<?xml version="1.0" encoding="utf-8"?>
<!-- Generator: Adobe Illustrator 21.0.2, SVG Export Plug-In . SVG Version: 6.00 Build 0)  -->
<svg version="1.1" id="Layer_1" xmlns="http://www.w3.org/2000/svg" xmlns:xlink="http://www.w3.org/1999/xlink" x="0px" y="0px"
	 viewBox="0 0 192.5 156" style="enable-background:new 0 0 192.5 156;" xml:space="preserve">
<style type="text/css">
	.st0{fill-rule:evenodd;clip-rule:evenodd;fill:#E9EDF3;}
	.st1{fill-rule:evenodd;clip-rule:evenodd;fill:#42567A;}
	.st2{fill-rule:evenodd;clip-rule:evenodd;fill:#F4F7FB;}
</style>
<path class="st0" d="M71.8,42.9c0.2,0,0.2-0.1,0.2,0.6c0,0.1,0.1,0.3,0.2,0.4c-0.4,0.7-0.8,1.2-1.2,1.7c-0.2,0.3-0.4,0.5-0.5,0.7
	c-0.2,0.4-0.6,0.5-1.2,0.8c-0.3,0.1-0.6,0.2-1,0.4c-0.5,0.2-0.9,0.1-1.4-0.1c-0.7-0.3-1.4-1-1.7-1.4c-0.4-0.4-0.6-0.7-1-0.8
	c-0.4-0.1-0.7-0.1-1.3-0.1c-0.6,0-0.7-0.4-0.8-0.8c0-0.1-0.1-0.3-0.1-0.4c-0.2-0.6-0.6-0.5-1.1-0.2c-0.3,0.1-0.7,0.3-1.3,0.3
	c-0.7,0-1.4,0.1-2.1,0.5c-0.7,0.3-1.4,0.8-2.3,1.5c-0.8,0.6-1.4,0.9-1.9,0.9c-0.5,0-1-0.2-1.5-0.4c-0.7-0.3-0.8-1.6-0.9-2.5
	c0-0.2-0.1-0.4-0.1-0.6c-0.1-0.6-0.8-1-1.6-1.4c-0.5-0.3-1.1-0.7-1.5-1c-0.7-0.7-0.8-1.9-0.8-3.2l0-0.6c-0.1-1.1,0.2-1.2,0.6-1.3
	c0.1,0,0.2-0.1,0.3-0.1c0.4-0.2,0.8-0.4,1.1-0.6c0.3-0.3,0.5-0.6,0.5-0.9c0-0.3-0.3-0.7-0.6-1.1c-0.3-0.4-0.7-0.8-1-1
	c-0.3-0.3-0.6-0.8-0.9-1.3c-0.3-0.5-0.6-1-0.9-1.4c0,0,0.1,0,0.1,0c0.4-0.3,1.2-0.7,2-1c0.6-0.2,1-0.4,1.2-0.6
	c0.5-0.4,0.4-3.9,0.3-6.1c0-0.8,0-1.4,0-1.7c0-0.9-0.7-1.8-1.5-2.7c-0.2-0.3-0.4-0.5-0.6-0.8c-0.3-0.4,0.3-1.1,0.9-1.7
	c0.4-0.4,0.7-0.7,0.8-1.1c0.1-0.4,0.4-2.8,0.6-5c1.9-1.4,0.2-1.3,3.8-1.4c0.5,0.2,3.4,3.6,5.4,5.1c3.8,3,5.1,2.9,7.4,9.5
	c2.2,6.2,2.6,5.7,2.4,10.3C68.4,35.5,69.1,42.3,71.8,42.9L71.8,42.9z"/>
<path class="st0" d="M46.2,4.3c0.6,0.8,2.2,3,2.8,4.1L49,9.5c-0.3,0.9-0.4,2.1-0.3,2.8c-0.1,0.5-0.1,0.9-0.2,1
	c-0.1,0.2-0.3,0.5-0.7,0.8c-0.7,0.8-1.6,1.7-1,2.6c0.2,0.3,0.4,0.5,0.6,0.8c0.6,0.8,1.3,1.6,1.3,2.3c0,0.3,0,0.9,0,1.7
	c0,2.1,0.1,5.4-0.1,5.6c-0.1,0.1-0.5,0.3-1.1,0.5c-0.8,0.3-1.7,0.7-2.2,1.1c-0.3,0.3-0.4,0.6-0.2,0.9c0.3,0.3,0.6,0.8,0.9,1.3
	c0.4,0.6,0.7,1.1,1,1.5c0.3,0.3,0.6,0.6,0.9,1c0.3,0.3,0.5,0.6,0.5,0.7c0,0.1-0.1,0.2-0.3,0.4c-0.2,0.2-0.6,0.4-0.9,0.5
	c-0.1,0-0.2,0.1-0.3,0.1c-0.8,0.2-1.2,0.4-1.1,2l0,0.6c0.1,1.4,0.2,2.7,1,3.6c0.4,0.4,1.1,0.8,1.6,1.2c0.6,0.4,1.2,0.7,1.3,1
	c0,0.1,0.1,0.3,0.1,0.5c0.1,1,0.3,2.5,1.3,3c0.5,0.3,1.1,0.5,1.8,0.5c0.7,0,1.4-0.3,2.3-1c0.8-0.7,1.5-1.1,2.1-1.4
	c0.6-0.3,1.1-0.4,1.8-0.4l0.1,0l-0.2,3.7c0,0.5-0.1,0.9-0.2,1.3c-0.1,0.3-0.2,0.6-0.3,0.7c0,0-0.2,0.1-0.3,0.1
	c-0.1,0-0.2,0.1-0.3,0.1c-0.6,0.2-1.1,0.6-0.7,1.6c0.2,0.6,0.4,1.1,0.4,1.6c0,0.4,0,0.7-0.1,0.9c-0.1,0.1-0.6,0.4-1.2,0.6
	c-0.7,0.3-1.5,0.7-1.7,1c-0.1,0.2-0.4,0.7-0.6,1.1c-0.2,0.6-0.5,1.2-0.6,1.7c-0.1,0.1-0.1,0.4-0.3,0.6l0,0.1c-0.2,0.5-0.5,1-0.7,1.5
	l-0.3,0.4c-0.6,0.4,0.3,0.3-1.3-0.2c-7.4-1.9-6.7,1.1-12.9,0.6c-8.4-0.7-3.1-5.3-9.3-7.7c2-3.7-2.3-2.1-3.6-3c-1.5-1-2.5-3.9-2-5.5
	c1.3-0.5,1.4-0.5,2.6,0.1c1.6-8.5-0.9-5.1,1.1-10.4c0.1-0.1,1.9-9.3,1.2-9.9c-2.3-0.9-3.1,2-3.5,3.9c-0.6,2.9-2.4,3-5,3
	c-1.8,0.7-1.4,2.1-2.9,3.4c-4.2,3.8-2.5,4.3-8.1,4.2c-2.3,0-2.5-0.3-3.9-2.1c1.3-1.6,2-2.5,3.3-3.9c1.1-1.2,0.5-0.6,1.7-1.6l2.8-2.7
	c3.4-3,2.2-3.9,6.5-5.3c0.3-4.9,3.3-4.4,4.5-5.2c0.9-0.6,1.1-1.9,1.8-2.8c1.8-2.4,1.5-0.8,6.1-7.8c1.6-2.5,5-2.5,6.3-2.9
	c1-2.7-0.9-5.7,4.4-5.1c1.5,2-0.7,1.1,1.6,2.2C45.6,3.6,44.5,2.1,46.2,4.3L46.2,4.3z"/>
<path class="st0" d="M154.8,85.3c0.4,0.7,3.4,0.6,5.7,0.4c1-0.1,1.8-0.1,2.3-0.1c0.9,0,1.9,1,2.7,1.7c0.4,0.4,0.8,0.7,1.1,0.8
	c0.1,0,0.1,0,0.2,0c0.4,0.1,0.8-0.2,1.1-0.5c0.3-0.3,0.5-0.8,0.7-1.2c0.1-0.2,0.1-0.4,0.2-0.6c0.1-0.5-0.2-1.1-0.5-1.8
	c-0.3-0.7-0.7-1.5-0.6-2.2c0-0.5,0.5-1.3,1.1-2.1c1-1.5,2.4-3.1,2.8-3.6c0.3-0.3,0.9-0.5,1.4-0.7c0.7-0.3,1.4-0.5,2-1.1
	c0.5-0.5,0.9-1.4,1.2-2.3c0.3-1,0.5-2.2,0.5-3.2c0-0.9-0.1-1.7-0.3-2.4c-0.2-0.7-0.6-1.3-1.2-1.7c-0.3-0.2-0.4-0.6-0.5-1
	c-0.1-0.8,0.2-1.8,0.3-1.9c0.1-0.2,0.7-0.9,1.5-1.5c0.5-0.3,1-0.6,1.6-0.8c0.4,0,0.9,0,1.5,0.1c0.3,0.1,0.6,0.2,0.8,0.4
	c0,0,0,0.1,0,0.1c0,2.1,0.1,1.9,0.6,4c0.4,1.7-0.5,2.2-0.1,4.3c0.4,2.6,3.1,2.9,5,4.5c0.1,0.1,0.1,0.1,0.2,0.2c0.4,1.3,1,5.3,1,6.5
	c-0.2,9.8,3.7,5.2,5.5,8c0.1,0.2,0.1,0.3,0,0.5c-1,1.8-0.9-0.6-2.6,1.3c-2.2,2.5,2.2,3.8-0.3,8.5c-0.5,0.8-1.1,1.6-1.3,2.4
	c-0.5,2,0.7,0.5-0.5,2.5c-2.7,4.4-1.1,0.9-1,4.7c0,0.1,0,0.3-0.1,0.4c-1,1-3.4,1.9-4.9,2.9c-3.2,2.2-2.6,1.3-5.6,1.5
	c-0.2,0-0.3,0.1-0.4,0.3c-0.1,0.2,0,0.4,0.1,0.5l0.5,0.6c0.1,0.1,0.1,0.3,0.1,0.5c-1,2.9-1.7,3-4.5,4.5c-0.1,0.1-0.3,0.1-0.4,0
	c-2.7-0.9-6.6-3.5-8.7-3.7c-3.5-0.4-4,2.4-9.6-0.3c-0.2-0.1-0.3-0.3-0.3-0.5l0.1-2.7c0-0.1,0-0.3-0.1-0.4l-0.7-0.7
	c-0.1-0.1-0.3-0.2-0.4-0.1c-2,0.3-1.6,0-3.2-0.7c-0.2-0.1-0.3-0.2-0.3-0.4c-0.1-1.8,0.4-2.1-1.1-3.2c-1.6-1.2-1.6-0.6-1.5-2.5
	c0-0.1,0.1-0.3,0.2-0.4c0.1-0.1,0.2-0.1,0.4-0.1c0.2,0,0.2,0,0.2-0.1c0-0.3,0.2-0.5,0.4-0.5c1-0.1,0.2,0.1,0.5-0.7
	c0-0.1,0-0.1,0-0.2l0-0.1c0-0.2-0.1-0.3-0.2-0.4c0-0.3-0.1-0.7-0.2-1l0,0c-0.1-0.3-0.3-0.7-0.6-1.2c-0.5-0.7-1-1.6-1.3-2
	c-0.2-0.3-0.3-0.8-0.4-1.5c-0.1-0.8,0-1.6,0.1-2.3c0.1-0.7,0.5-0.6,1-0.5c0.3,0.1,0.7,0.1,1.1,0.1c1.1-0.2,1.1-0.9,1-1.7
	c0-0.2,0-0.4,0-0.6c0-0.5-0.1-1.2-0.3-1.9c-0.2-0.7-0.4-1.3-0.7-1.7c-0.3-0.5-0.1-1,0.1-1.4c0.1-0.1,0.1-0.2,0.1-0.4
	c0.1-0.3,0.9-1.2,1.7-2c0.3-0.3,0.5-0.6,0.7-0.8c0.3-0.4,0.6-1,0.7-1.6c0.2-0.9,0.3-1.9,0.4-2.4c0-0.3,0.1-0.5,0.3-0.6
	c0.2-0.1,0.5-0.2,0.8-0.3c0.4-0.1,1.3,0,2.1,0.4c0.6,0.3,1.2,0.7,1.6,1.3c0.5,0.8-0.4,1.6-1.1,2.3c-0.4,0.3-0.7,0.6-0.8,0.9
	c-0.2,0.6,0.4,1.5,0.9,2.3C154.5,84.8,154.7,85.1,154.8,85.3L154.8,85.3z"/>
<path class="st0" d="M109.5,87.7c0.2,0.1,0.4,0.2,0.6,0.3c0.1,0.1,0.1,0.1,0.2,0.1c0,0.1-0.1,0.1-0.1,0.2c-0.3,0.4-0.7,0.9-0.6,1.7
	l0,0.1c0.1,0.5,0.4,0.8,0.9,0.9c0.4,0.1,0.8,0.1,1.2,0.1c0.2,0,0.4,0,0.6,0c0.3,0,0.6-0.2,1-0.4c0.5-0.2,1.1-0.5,1.5-0.5
	c-0.1,0.2-0.2,0.4-0.3,0.6c-0.2,0.3-0.4,0.7-0.5,1c0,0.2-0.1,0.5-0.2,0.8c-0.2,0.6-0.3,1.2-0.3,1.7c0,0.6,0.3,0.8,0.8,0.8
	c0.1,0,0.3,0,0.5-0.1c0.3,0,0.6-0.1,1-0.1c0.6,0,1.4,0,2-0.1c0.7-0.1,1.3-0.3,1.6-0.7c0.3-0.4,1.3-0.5,1.3-0.5l0.1,0l0.1,0
	c0,0,0.5-0.2,1.1-0.4c0,0,0.1,0,0.1,0c0.6-0.2,1.4-0.4,1.8-0.4c0,0,0.1,0,0.1,0c0.1,0,0.1,0.1,0.2,0.2c0,0.1,0,0.3,0,0.5
	c0,0.4-0.2,0.8-0.3,1.1c-0.2,0.5-0.1,1.1,0.2,1.7c0.3,0.5,0.8,1,1.4,1.3c0.9,0.4,1.8,0,2.3-0.2l0,0.4c-0.1,1.2-0.2,3.2,0.2,3.9
	c0.5,0.9,1.9,2.1,2.2,2.3l0,0.1c0,0,0,0.1,0,0.1l0,0c0,0.2-0.1,0.3-0.3,0.4l-1.6,0.6c-0.1,0.1-0.3,0.2-0.3,0.3
	c-0.5,1.8,0.4,1.6-1.4,2.9c-0.9,0.6-2.1,1-2.8,1.8c-2,2.4,0,4.8-0.2,6.5c0,0,0,0.1,0,0.1c-0.5,1.8-2.3,3.4-4.4,3.8
	c-0.3,0-0.5-0.1-0.6-0.4l-0.4-1.9c0-0.2-0.2-0.3-0.4-0.4c-1.2-0.2-2.2-0.4-3.4-0.9c-0.2-0.1-0.4-0.3-0.3-0.6l1-3.6
	c0.1-0.2,0-0.4-0.2-0.6c-0.9-0.6-1.7-1.1-2.5-2c-0.1-0.1-0.1-0.3-0.1-0.5c1.4-3.5,0.8-2.1-5.2-3c-5.8-0.8-3.3,1.4-8.2,1.1
	c-0.1,0-0.3-0.1-0.4-0.2c-0.1-0.1-0.1-0.2-0.1-0.4l0.2-1.7c0-0.2,0-0.3-0.1-0.4c-0.1-0.1-0.3-0.2-0.4-0.1c-1.1,0.1-0.5,0.5-1.2,0
	c-0.1-0.3-0.2-0.6-0.2-0.9l0-0.7c0-0.1,0-0.2-0.1-0.3l-0.5-0.6c-0.5-1.2-1.1-1.8-1.2-2c-0.1-0.3-0.3-1-0.3-1.4c0-0.1,0-0.2-0.1-0.3
	c0.6-0.2,2-0.8,2.3-1.5c0.3-0.7,0.2-1.3,0-2.1c-0.1-0.3-0.1-0.7-0.1-1c0-0.4,1.1-1,2.2-1.6c0.9-0.5,1.7-0.9,2-1.3
	c0.2-0.4,0.2-1,0.2-1.7c0-0.9-0.1-1.9,0.4-2.9c0.5-1,1.7-0.9,2.6-0.9c0.4,0,0.7,0,1-0.1c0.4,0.2,1.2,0.6,1.7,0.9
	c0.3,0.2,0.7,0.3,1.1,0.3c0.6,0.1,1.2,0.1,1.4,0.1C109.1,87.5,109.3,87.5,109.5,87.7L109.5,87.7z"/>
<path class="st0" d="M100.6,91.6L100.6,91.6L100.6,91.6z"/>
<path class="st0" d="M134.8,59.8c0.1,0,0.4,0.9,0.5,1.6l0.1,0.4c0.1,0.4,0.5,1,0.9,1.5c0.6,0.7,1.4,1.5,2,2.1c0.5,0.5,1.6,0.8,2.7,1
	c1.5,0.3,3.2,0.3,3.9,0.1c1-0.2,0.9-0.8,0.8-1.4c0-0.2-0.1-0.5,0-0.7c0.1-0.4,0.2-1.1,0.3-1.9c0-0.4,0-0.8,0-1.2
	c1.1,0.3,4.3,1.2,5.6,1.3c0.9,0.1,4.7,0,8.1-0.1c2.8-0.1,5.4-0.3,5.6-0.5c0.2-0.2,0.4-0.5,0.5-1.2c0.1-0.6,0.2-1.5,0.2-3
	c0.1-2.3,1.6-4.3,2-4.7c0.3,0,0.5-0.1,0.8-0.1c0.5-0.1,1.1-0.2,1.8,0.1c0.4,0.2,0.6,0.4,0.8,0.7c0.4,0.5,0.7,0.9,1.9,1l0.4,0
	c1.2,0.1,1.7,0.1,1.7,0.4l0,0.1c0,0.2,0,0.3,0,0.5h0c0,0.7,0.2,1.3,1,1.3c0.4,0,1.9-0.1,3.4-0.2c0.6,0.6,0.8,1,1.3,1.9
	c0.1,0.1,0.1,0.3,0,0.5c-0.1,0.1-0.2,0.2-0.3,0.2c-0.6-0.4-1.5-0.9-2.7-0.7c-0.1,0-0.2,0-0.3,0.1c-1.2,0-2,0.3-1.2,0.5
	c-0.2,0.1-0.4,0.2-0.6,0.4c-1,0.7-1.7,1.7-1.8,1.9c-0.1,0.2-0.4,1.2-0.3,2.2c0.1,0.6,0.3,1.1,0.7,1.5c0.5,0.3,0.8,0.8,0.9,1.3
	c0.2,0.6,0.2,1.3,0.2,2.2c0,0.9-0.2,2-0.5,3c-0.3,0.9-0.6,1.6-1,2.1c-0.4,0.4-1.1,0.7-1.7,0.9c-0.7,0.2-1.3,0.5-1.7,0.9
	c-0.5,0.5-1.9,2.2-2.9,3.7c-0.6,1-1.1,1.9-1.2,2.5c0,0.8,0.3,1.7,0.7,2.5c0.3,0.6,0.5,1.1,0.4,1.4c0,0.1-0.1,0.3-0.1,0.4
	c-0.1,0.3-0.4,0.7-0.6,1c-0.2,0.2-0.4,0.3-0.5,0.3l0,0c-0.2-0.1-0.5-0.4-0.9-0.7c-0.8-0.8-2-1.8-3.1-1.8c-0.5,0-1.3,0-2.3,0.1
	c-2.1,0.1-4.9,0.3-5.1-0.1c-0.1-0.2-0.3-0.5-0.5-0.8c-0.4-0.7-0.9-1.4-0.8-1.7c0-0.1,0.3-0.3,0.6-0.6c0.9-0.8,2-1.8,1.2-3.1
	c-0.5-0.7-1.1-1.2-1.9-1.5c-1-0.4-2-0.6-2.5-0.5c-0.4,0.1-0.8,0.2-1.1,0.4c-0.3,0.2-0.5,0.6-0.5,1.1c0,0.5-0.1,1.4-0.4,2.3
	c-0.1,0.5-0.3,1-0.6,1.3c-0.2,0.2-0.4,0.5-0.7,0.7c-0.8,0.8-1.7,1.8-1.8,2.3c0,0.1-0.1,0.2-0.1,0.3c-0.2,0.5-0.6,1.2-0.1,2
	c0.2,0.4,0.4,0.9,0.6,1.5c0.2,0.6,0.3,1.3,0.3,1.7c0,0.2,0,0.4,0,0.6c0,0.5,0.1,1-0.4,1c-0.3,0-0.6,0-0.9-0.1
	c-0.8-0.1-1.5-0.3-1.7,1c-0.1,0.8-0.2,1.7-0.1,2.5c0.1,0.8,0.2,1.4,0.5,1.8c0.3,0.4,0.9,1.2,1.3,1.9c0.3,0.5,0.5,0.9,0.6,1l0,0
	c0.1,0.3,0.2,0.6,0.2,0.9c0,0-0.1,0.1-0.1,0.1c-0.1,0.2-0.2,0.3-0.3,0.5l0,0l-0.6,1c0,0,0,0.1-0.1,0.1c-1.6,6.1-4.9,2.1-6.8,1.2
	c-0.1,0-0.1,0-0.2,0c-3,0-4.9,1-7.7-0.4c0,0-0.1,0-0.1,0l-0.1-0.1l0-0.1l-0.1,0c0,0-1.6-1.2-2.1-2.2c-0.3-0.6-0.2-2.5-0.1-3.6
	c0-0.5,0.1-0.8,0-1c-0.1-0.3-0.3-0.3-0.6-0.3c-0.1,0-0.2,0.1-0.3,0.1c-0.4,0.2-1.1,0.5-1.8,0.2c-0.5-0.2-0.9-0.6-1.1-1
	c-0.2-0.4-0.3-0.8-0.2-1.1c0.1-0.3,0.3-0.8,0.4-1.3c0-0.3,0-0.6,0-0.8c-0.1-0.3-0.2-0.5-0.5-0.6c-0.1,0-0.2-0.1-0.3-0.1
	c-0.5-0.1-1.1,0.1-1.7,0.3c-0.1-0.4-0.1-1.2,0-1.5c0.1-0.3,0.6-0.9,1-1.4c0.5-0.6,0.9-1.2,1-1.5c0.1-0.2,0.1-0.6,0.1-1
	c0-0.7,0.1-1.6,0.3-2.2c0.3-0.7,2.3-0.8,3.2-0.8l0.3,0c0.4,0,0.9-0.3,1.3-0.7c0.6-0.6,1-1.4,1-1.6c0-0.2-0.1-0.4-0.3-0.7
	c-0.2-0.4-0.5-1-0.4-1.2c0-0.2,1.5-0.1,2.6-0.1c0.5,0,0.9,0,1.1,0c0.4-0.1,0.7-0.8,0.8-1.8c0.1-1.5,0.1-3.6,0.1-4.2
	c0-0.8-1.1-2-1.9-2.8c-0.3-0.3-0.5-0.5-0.6-0.7c-0.2-0.3-0.4-1.3-0.5-2c-0.1-0.4-0.1-0.8-0.2-1c-0.1-0.4-0.8-1.4-1.2-2.1
	c-0.2-0.3-0.4-0.6-0.5-0.7c-0.1-0.2,0.3-0.8,0.6-1.4c0.1-0.2,0.3-0.4,0.3-0.6c0.1-0.2,0.2-0.5,0.3-0.8c0.2-0.6,0.4-1.4,0.7-1.4
	c0.2-0.1,0.8-0.1,1.4-0.2C133.6,59.8,134.5,59.7,134.8,59.8L134.8,59.8z"/>
<path class="st0" d="M130.3,62.3L130.3,62.3L130.3,62.3z"/>
<path class="st0" d="M165.8,60.9L165.8,60.9L165.8,60.9z"/>
<path class="st0" d="M38.9,119.6c0.2,0.4,1,1.1,1.7,1.7c0.6,0.4,1.2,0.8,1.5,0.7c0.3-0.1,0.7,0,1,0c0.4,0.1,0.8,0.2,1.1,0.3
	c0.1,0,0.2,0.1,0.3,0.2c0.9,0.5,2.4,1.3,3.9,0.9c0.8-0.2,1.5-0.5,1.9-0.8c0.5-0.4,0.8-0.9,0.8-1.5c0-0.2,0-0.3,0-0.5
	c0.1-1.2,0.3-3.2-0.5-3.8c-0.2-0.2-0.4-0.3-0.7-0.5c-0.7-0.5-1.6-1.2-1.5-1.9c0.1-0.9,3.3-2.6,4.6-3.2l0.3-0.2l0.4-0.2l0.5-0.3l0,0
	c0.8-0.4,1.8-0.9,2.2-0.5c0.4,0.3,0.7,0.6,0.9,1c0.2,0.4,0.4,0.7,0.5,1.1c0,0.2,0.1,0.5,0.1,0.8c0.1,0.8,0.1,1.7,0.7,2.1
	c0.2,0.2,0.4,0.5,0.6,0.8c0.2,0.5,0.3,1,0.3,1.4c0,0.2,0,0.5,0,0.9c-0.1,1.2-0.2,3.1,0.2,3.4c0.1,0.1,0.3,0.7,0.6,1.4
	c0.5,1.2,1,2.6,1.6,2.6c0.1,0,0.2,0,0.3,0c0.6,0.1,1.4,0.2,2-0.3l0.2-0.1c0.5-0.4,1-0.8,2.1-0.6c0.8,0.2,1.2,0.2,1.6,0.2h0
	c0.4-0.1,0.6-0.3,0.8-0.8c0.2-0.3,0.2-0.8,0.3-1.2c0.1-0.6,0.2-1.3,0.5-1.5c0.2-0.1,0.6,0,0.9,0.1c0.3,0.1,0.7,0.3,0.9,0.4
	c0,0,0.1,0.1,0.1,0.1c0.1,0.1,0.2,0.1,0.2,0.1l0,0c0.2,0.3,1,1.2,3,0.6c0.9-0.2,2.3-0.6,4-0.6c1.1,0,2.4,0,3.7,0.3
	c0,0.2,0,0.3,0.1,0.5l0.2,0.1c0.1,0.1,0.2,0.3,0.1,0.5c-0.8,2.3-2,1.3-4.1,2.8c-0.2,0.1-0.3,0.4-0.2,0.6l0.5,1.5
	c0.1,0.2,0,0.4-0.2,0.6c-1,0.7-1.8,0.8-2.4,2.1c-1.2,2.4,0.2,0.9-2.1,2.9c-1.3,1.1-2.7,4.1-4.1,5.5c0,0,0,0-0.1,0.1l-4.6,3.3l-0.1,0
	c-2.4,1.3-3.1,0.1-6.2,0.1c-1.6,0-2.3,0.3-3.5,0.4c-0.2,0-0.3,0.1-0.4,0.2c-0.1,0.1-0.1,0.3,0,0.4c0.5,1.3-0.5,0.4,0.1,2.3
	c0.3,0.8,1.3,2.2,1.5,2.7c0.6,1.9-0.2,1.8-0.1,3.5c0.1,1.1,0.6,1.7,0.5,2.8c0,0.2-0.2,0.4-0.4,0.5c-3,0.8-2.9-0.8-4.7-0.5
	c-1.6,0.3-3.3,1.4-5.3,0.3c-3-1.6-0.9-4.5-6.3-5.9c-3.6-0.9-1.5-0.3-3.6-2.8c-0.9-1.1-1.9-1.9-2.8-3.1c-3.8-5-3.4-5.6-2.7-7.5
	c0.1-0.1,0-0.3-0.1-0.4c-0.1-0.1-0.2-0.2-0.4-0.2c-5.3-0.4-2.1,2-8.6-1.6l-0.6-0.3c0.4-0.7,0.9-1.9,0.9-2.4c0-0.4,0-1.3,0-2.2
	c0-0.8,0.1-1.6,0.2-1.8c0.1-0.1,0.5-0.3,1-0.6c1.2-0.7,3-1.8,3.4-2.8c0.3-0.7,1.2-2,2.1-2.9c0.6-0.6,1.2-1.1,1.4-1l0,0l0.3,0.2
	c0.8,0.4,1.9,0.9,3.1,0.7c0.5-0.1,1.1-0.3,1.8-0.6C37.6,119.9,38.8,119.5,38.9,119.6L38.9,119.6z"/>
<path class="st1" d="M71.8,121.8L71.8,121.8L71.8,121.8z"/>
<path class="st1" d="M71.8,121.8L71.8,121.8L71.8,121.8z"/>
<path class="st0" d="M50.5,122.6L50.5,122.6L50.5,122.6z"/>
<path class="st0" d="M12.3,110.9c0.8-0.6,1.3-0.9,1.7-1.1c0.9-0.1,4.2-0.4,4.7,0.4c0.3,0.5,0.7,1.1,1,1.7c0.3,0.7,0.6,1.4,0.8,1.8
	c0.1,0.3,0.1,0.7,0.1,1.1c0,0.9,0,1.8,0.8,2c0.5,0.1,0.8,0.1,1.1,0.1c0.3-0.1,0.6-0.3,0.9-0.7c0.3-0.4,0.3-0.9,0.2-1.3
	c0-0.4,0-0.7,0.2-0.8c0.3-0.1,0.6,0,1,0.1c0.7,0.2,1.5,0.6,1.7,0.7c0.1,0.1,0.4,0.2,0.8,0.4l0,0c0.1,0,0.2,0.1,0.4,0.1
	c0.4,0.1,0.7,0.2,1,0.2c0.3,0,0.7,0.2,1,0.4c0.2,0.2,0.4,0.3,0.4,0.5c0,0.5,0.6,2.1,0.9,2.9c-0.5,0.2-1,0.6-1.5,1.2
	c-0.9,1-1.9,2.3-2.2,3.1c-0.4,0.8-2,1.8-3.2,2.4c-0.6,0.3-1.1,0.6-1.2,0.8c-0.2,0.3-0.3,1.2-0.4,2.2c0,0.9,0,1.9,0,2.2
	c0,0.4-0.5,1.4-0.9,2.1c-5.2-2.7-5.5-1.2-7.7-1.2c-0.2,0-0.3-0.1-0.4-0.2c-1-1.7,1.2-1.4-1.8-3.3C9,127.1,0.2,129.1,0,122.8
	c0-0.2,0-0.3,0.2-0.4c2.4-2.2,2.2,1.6,3.2-5.8c0.4-2.8,1.7-2.8,3.6-4.8c0.1-0.1,0.3-0.2,0.5-0.1C9,112.2,10.9,111.8,12.3,110.9
	L12.3,110.9z"/>
<path class="st0" d="M29,84.1L29,84.1c-0.1,1.1-0.1,2.4,0.1,3.1c0.4,0.9,1,2,1.5,2.7c0.2,0.3,0.3,0.5,0.4,0.6l0.1,0.1l0.1,0.2
	c0.1,0.2,0.3,0.4,0.4,0.6c0.4,0.5,0.8,1.1,0.9,1.4c0.1,0.3,0.2,1,0.2,1.6c0,0.6,0,1.1,0,1.2c0,0.1-0.5,0.4-1,0.9
	c-1,0.8-2.3,1.9-2.5,2.5c-0.1,0.2-0.2,0.4-0.2,0.5c-0.3,0.7-0.7,1.3,0.1,2.3c0.1,0.1,0.2,0.3,0.3,0.4c0.3,0.5,0.5,1,0.6,1.4
	c0.1,0.4,0.1,0.6,0,0.7c0,0,0,0,0,0c-0.1,0.1-0.3,0.1-0.4,0.2c-0.7,0.2-1.6,0.5-1.7,2.2c-0.1,1.6-0.6,6.5-0.8,8
	c-0.2-0.1-0.3-0.1-0.3-0.2c-0.2-0.1-1-0.5-1.8-0.8c-0.5-0.1-1-0.2-1.4-0.1c-0.8,0.2-0.7,0.8-0.7,1.5c0,0.3,0,0.7-0.1,0.9
	c-0.2,0.3-0.3,0.4-0.5,0.4c-0.2,0-0.4,0-0.8-0.1c-0.3-0.1-0.3-0.7-0.3-1.3c0-0.5,0-0.9-0.1-1.3c-0.2-0.5-0.4-1.2-0.8-1.9
	c-0.3-0.6-0.7-1.3-1-1.8c-0.6-1-3.4-0.9-4.8-0.8c-0.1-0.2-0.2-0.3-0.4-0.3c-0.4-0.1-0.8-0.2-1.1-0.4c-0.1-0.1-0.2-0.2-0.2-0.4
	c-0.1-1.2,0.1-2.4,0.6-3.4c0.1-0.2,0-0.4-0.1-0.5c-0.9-0.9-1.4-1.3-2.1-2.5c-1.3-2-1.3-0.8-2.2-2.2c0-0.1-0.1-0.1-0.1-0.2
	c-0.1-1.1,0.7-1.5,0.9-3c0.7-5.1-1.1-7.8-1.6-10.7c0-0.2,0-0.3,0.1-0.4c0.1-0.1,0.2-0.2,0.4-0.2c4.3,0.3,3,3.3,8.2,6.5
	c0.2,0.1,0.5,0.1,0.7-0.1l1.9-2.6c1.5-2.1,2.9-7.8,9.2-5.1c0.1,0,0.1,0.1,0.2,0.1C29,83.7,28.9,83.6,29,84.1L29,84.1z"/>
<path class="st0" d="M61,83.3c0.2,0.8,0.8,1.4,1.2,2c0.4,0.5,0.8,0.9,0.6,1.2c-0.5,0.8-0.7,2.7-0.8,3.3c-0.4,0.2-1.4,0.6-1.9,0.3
	c-0.3-0.1-0.5-0.5-0.7-0.8C59,88.7,58.6,88,57.7,88c-0.3,0-0.6,0-1-0.1c-1.3-0.1-3-0.3-3.5,0.4c-0.2,0.3-0.6,0.9-1,1.4
	c-0.4,0.4-0.8,0.8-1.2,0.8c-0.3,0-0.9-0.1-1.5-0.2c-0.9-0.1-1.9-0.3-2.5-0.2c-0.1,0-0.3,0-0.4,0.1c-1.6-0.8-2.2-1.8-2.7-2.5l0-0.1
	c-0.4-0.6-1-0.5-1.6,0.1c-0.5,0.4-1,1.1-1.4,1.6c-0.6,0.8-2-0.7-2-0.7l-0.1-0.1l-0.1,0c0,0-3.4-0.1-4.3,0c-0.7,0.1-2.1,1.2-2.6,1.6
	l-0.1-0.1l-0.1-0.1c-0.1-0.2-0.2-0.4-0.4-0.7c-0.5-0.7-1.1-1.7-1.5-2.5c-0.2-0.5-0.2-1.4-0.1-2.4c1.6,0.6,4,0.2,5.3-1
	c0.2-0.2,0.2-0.5,0.1-0.7c-1.7-2.4-0.7-2.7-0.6-2.9c0.8-2.3,0.7-1.1-1.5-3.5c-0.2-0.2-0.2-0.4,0-0.6c2.4-3.6,5.8-4.5,9.4-2
	c3.3,2.3-0.1-0.3,5.2,2c1.3,0.6,0.8,0.2,2.1,0.5c1.7,0.4,4.6,3.5,6.3,4.6l0.1,0l1.9,0.9c0.2,0.1,0.3,0.4,0.3,0.6
	c-0.4,1.5-0.7,1.5,0.2,2.7c0.2,0.2,0.5,0.3,0.7,0.1c1.3-0.9,1-2.1,0.8-2.9C60.2,82.3,60.7,82.4,61,83.3L61,83.3z"/>
<path class="st0" d="M54,60c0.9-0.1,4.3-0.3,4.8,0.2c0.2,0.2,0.3,0.3,0.5,0.4c0.4,0.4,0.8,0.7,1.1,1.3c0.1,0.2,0.1,0.5,0.2,0.9
	c0.1,0.8,0.3,1.7,1.2,2.2c0.2,0.1,0.4,0.2,0.6,0.3c0.7,0.3,1.2,0.5,1.5,1.6c0.1,0.7,0.1,1.2,0.1,1.7c0,0.7,0,1.3,0.3,1.9
	c0.2,0.5,0.5,0.9,0.6,1.3c0.1,0.4,0.2,0.7,0.2,1c0,0.6,0,2.6,0.3,3.6c0.1,0.2,0.1,0.4,0.1,0.6c0.2,0.8,0.3,1.5,1.2,1.7
	c0.4,0.1,1,0.2,1.5,0.5c0.6,0.3,1.2,0.6,1.9,1.1c1.4,1,2,2.3,2,2.3l0.3,0.6c-0.1,0.2-0.3,0.5-0.5,0.8c-0.7,1.3-2.1,3.7-3.6,4.6
	L67.7,89c-1.6,1-2.2,1.4-2.9,1.2c-0.7-0.2-1.6-0.4-2.1-0.5c0.1-0.7,0.3-2.2,0.7-2.9c0.4-0.7-0.1-1.3-0.7-2c-0.4-0.5-0.9-1-1.1-1.7
	c-0.4-1.5-1.3-1.5-1.9-1.4c0-0.6-0.7-1,0.1-1.1c1-0.2,1.5-0.1,2.9-0.7c0.1-0.1,0.2-0.2,0.3-0.3c0.9-3.3-1.9-7.4-4.1-9.5
	c-2.1-2.1-2.5-0.9-3.1-4.1c-0.6-3-0.8-1.9-2.3-4.3c0-0.1-0.1-0.2-0.1-0.3v-0.1C53.6,60.9,53.8,60.4,54,60L54,60L54,60z"/>
<path class="st1" d="M72.2,82.5L72.2,82.5L72.2,82.5z"/>
<path class="st2" d="M75.7,44.3c4,3.4,1.9,3.6,2.4,7.2c0.9,5.5-1.3,3.4,4.1,9.8c1.2,1.5,0.6,1.9,0.8,3.9c1,10.2-0.9,6.6-1.3,11.4
	c0,0,0,0.1,0,0.1l0,0.1l-0.8,1c-0.3,0.2-1.7,1.2-1.5,2.6c0.1,0.4,0,0.9-0.2,1.3c-0.3,0.6-0.7,1.1-0.9,1.3l-0.1,0.1
	c-0.4,0.3-1.3,1.1-1.9,0.7c-0.5-0.3-1.4-0.6-2.2-0.8c-0.4-0.1-0.8-0.1-1-0.1l-0.3-0.6v0c0,0-0.7-1.4-2.2-2.5
	c-0.7-0.5-1.4-0.9-2.1-1.2c-0.6-0.3-1.2-0.4-1.7-0.5c-0.5-0.1-0.6-0.6-0.7-1.2c0-0.2-0.1-0.4-0.1-0.6c-0.3-0.9-0.3-2.8-0.3-3.4
	c0-0.4-0.1-0.8-0.3-1.2c-0.2-0.4-0.4-0.9-0.7-1.4c-0.2-0.4-0.2-0.9-0.2-1.5c0-0.5,0-1.1-0.1-1.9c-0.3-1.4-1-1.7-1.9-2.1
	c-0.2-0.1-0.4-0.2-0.6-0.3c-0.6-0.3-0.7-1-0.8-1.7c-0.1-0.4-0.1-0.7-0.2-1c-0.3-0.7-0.7-1.1-1.2-1.6c-0.1-0.1-0.3-0.3-0.5-0.4
	c-0.6-0.6-3.7-0.5-5-0.4l0.1-0.2c0.1-0.4,0.4-1,0.6-1.6c0.2-0.4,0.4-0.8,0.5-1.1c0.1-0.2,0.8-0.5,1.4-0.8c0.6-0.3,1.2-0.6,1.4-0.8
	c0.2-0.3,0.3-0.7,0.2-1.3c0-0.5-0.2-1.1-0.4-1.8c-0.2-0.5,0.1-0.7,0.3-0.8c0.1,0,0.2-0.1,0.3-0.1c0.2-0.1,0.3-0.1,0.5-0.2
	c0.2-0.2,0.4-0.5,0.6-1c0.1-0.5,0.2-1,0.3-1.5l0.2-3.8c0.3-0.1,0.6-0.2,0.8-0.3c0.1-0.1,0.2-0.1,0.2-0.1c0,0.1,0.1,0.2,0.1,0.3
	c0.2,0.6,0.4,1.3,1.5,1.3c0.5,0,0.8,0,1,0.1c0.2,0.1,0.5,0.3,0.7,0.6c0.4,0.5,1.1,1.2,2,1.6c0.6,0.3,1.3,0.4,1.9,0.1
	c0.4-0.2,0.7-0.3,1-0.4c0.8-0.3,1.2-0.4,1.6-1.1c0.1-0.1,0.2-0.3,0.4-0.6c0.5-0.5,1.1-1.2,1.5-2.3C73.6,43.1,74.1,42.9,75.7,44.3
	L75.7,44.3z"/>
<path class="st0" d="M53.5,109.5c0.2,0.2,0.3,0.4,0.3,0.5l-0.3,0.2l-0.4,0.2l-0.3,0.2c-1.4,0.7-4.8,2.6-4.9,3.8
	c-0.1,1,1,1.8,1.8,2.4c0.2,0.2,0.5,0.3,0.6,0.5c0.5,0.5,0.4,2.2,0.2,3.3v0l0,0.5c0,0.4-0.2,0.8-0.6,1h0c-0.4,0.3-0.9,0.5-1.7,0.7
	c-1.3,0.3-2.6-0.4-3.4-0.8c-0.1-0.1-0.2-0.1-0.4-0.2c-0.4-0.2-0.8-0.3-1.3-0.4c-0.5-0.1-0.9-0.1-1.3,0c-0.2,0-0.6-0.2-1-0.6
	c-0.7-0.5-1.4-1.2-1.6-1.5c-0.4-0.6-1.8-0.1-3.2,0.4c-0.7,0.2-1.3,0.5-1.7,0.5c-0.9,0.2-1.9-0.3-2.7-0.6l-0.2-0.1
	c-0.2-0.5-0.9-2.5-0.9-2.9c0-0.4-0.3-0.7-0.7-1c-0.4-0.3-0.9-0.5-1.3-0.5c-0.2,0-0.6-0.1-0.9-0.2l-0.1,0c0.1-1.2,0.7-6.5,0.8-8.2
	c0.1-1.2,0.7-1.4,1.2-1.6c0.2-0.1,0.4-0.1,0.6-0.2l0.1-0.1c0.3-0.3,0.4-0.8,0.3-1.4c-0.1-0.5-0.4-1.1-0.7-1.6
	c-0.1-0.2-0.2-0.3-0.3-0.5c-0.5-0.6-0.3-1.1,0-1.6c0.1-0.2,0.2-0.4,0.3-0.6c0.1-0.4,1.4-1.4,2.3-2.2c0.6-0.5,1.1-0.9,1.2-1.1
	c0.1-0.2,0.1-0.8,0.1-1.5c0-0.7-0.1-1.4-0.2-1.8c-0.1-0.4-0.6-1.1-1-1.6l0-0.1c0.5-0.4,1.8-1.4,2.4-1.5c0.7-0.1,3.4-0.1,4,0
	c0.4,0.4,2,1.8,2.9,0.5c0.4-0.6,0.9-1.2,1.3-1.5c0.3-0.2,0.5-0.4,0.6-0.2l0,0.1c0.5,0.8,1.1,1.8,2.8,2.7l0,0l0,0.4
	c0.1,1.3,0.3,4.5,1.4,5.4c0.7,0.5,1,2,1.3,3.1c0.1,0.5,0.2,0.9,0.3,1.1c0.1,0.2,0.1,0.4,0.2,0.6c0.1,0.5,0.2,0.8,1.1,1.5l0.4,0.3
	c0.7,0.5,1.1,0.8,0.8,1.4c-0.2,0.3-0.3,0.5-0.4,0.8c-0.4,0.6-0.7,1.1-0.6,1.9c0.1,0.5,0.1,0.8,0.3,1c0.2,0.2,0.4,0.3,0.9,0.5
	c0.3,0.1,0.7,0.2,1,0.3C53.1,109.1,53.4,109.3,53.5,109.5L53.5,109.5z"/>
<path class="st0" d="M66.1,98.3c-0.4,0.3-0.5,0.7-0.2,1.1c0.2,0.3,0.8,0.5,1.4,0.8c0.9,0.5,2.1,1,2.4,1.6c0.3,0.5,0.5,0.9,0.6,1.4
	c0.1,0.5,0.2,1,0.3,1.9c0.2,1.4,0.1,3.9,0.1,4.9l0,0.5c0,0.1,0,0.2,0,0.4c-0.1,0.7-0.3,1.9,0.3,2.4c0.1,0.1,0.2,0.2,0.4,0.4
	c0.6,0.6,1.6,1.6,1.6,2.3c0,0.5,0,1.1-0.1,1.7c-0.1,0.5-0.1,0.9-0.3,1.1c-0.2,0.3-0.5,0.7-0.7,1c-0.2,0.4-0.4,0.7-0.4,0.9l0,0.1
	c-0.2-0.1-0.3-0.1-0.5-0.2c-0.5-0.1-0.9-0.2-1.3,0c-0.7,0.3-0.8,1.2-0.9,2c0,0.4-0.1,0.8-0.2,1c-0.1,0.3-0.2,0.4-0.4,0.4
	c-0.2,0-0.6,0-1.3-0.2c-1.5-0.3-2.1,0.2-2.7,0.7l-0.2,0.1c-0.4,0.3-1,0.3-1.5,0.2c-0.1,0-0.2,0-0.3,0c-0.1,0-0.6-1.2-1-2.2
	c-0.3-0.8-0.6-1.4-0.8-1.6c-0.2-0.2-0.1-1.8,0-2.9c0-0.4,0-0.7,0-0.9c0-0.4-0.1-1.1-0.3-1.6c-0.2-0.5-0.4-0.9-0.8-1.1
	c-0.3-0.2-0.4-1-0.4-1.6c0-0.3,0-0.6-0.1-0.8c-0.1-0.4-0.3-0.9-0.6-1.3c-0.3-0.4-0.6-0.8-1-1.1c-0.7-0.6-1.7-0.2-2.6,0.2
	c-0.1-0.2-0.2-0.4-0.4-0.7c-0.3-0.3-0.6-0.5-0.9-0.7c-0.3-0.2-0.7-0.3-1.1-0.4c-0.3-0.1-0.4-0.1-0.5-0.2c-0.1-0.1-0.1-0.3-0.2-0.7
	c-0.1-0.5,0.2-0.9,0.5-1.4c0.1-0.2,0.3-0.5,0.5-0.8c0.6-1.2,0-1.6-1-2.3l-0.4-0.3c-0.7-0.5-0.7-0.7-0.8-1c0-0.2-0.1-0.4-0.2-0.7
	c-0.1-0.2-0.2-0.6-0.3-1.1c-0.3-1.2-0.7-2.8-1.6-3.5c-0.8-0.6-1-3.6-1.1-4.9l0-0.4l0,0l0,0c0,0,0.1,0.1,0.1,0.1
	c0.5-0.1,1.5,0.1,2.3,0.2c0.7,0.1,1.3,0.2,1.6,0.2c0.6,0,1.2-0.5,1.7-1.1c0.5-0.5,0.9-1.1,1.1-1.5c0.2-0.4,1.7-0.2,2.9-0.1
	c0.4,0,0.7,0.1,1,0.1c0.5,0,0.8,0.5,1.1,1c0.3,0.4,0.6,0.9,1,1.1c0.8,0.4,2.2-0.2,2.6-0.4c0.3,0.1,1.4,0.3,2.2,0.5
	c0.8,0.2,1.4,0,2.4-0.7c0.4,1,1.5,3.6,1.4,4.6c-0.1,0.5-0.2,1.1-0.4,1.6c-0.3,0.6-0.5,1.1-0.7,1.2c0,0-0.2,0.1-0.3,0.2
	C66.7,97.9,66.4,98.1,66.1,98.3L66.1,98.3z"/>
<path class="st1" d="M68,124L68,124L68,124z"/>
<path class="st0" d="M78.8,88.1c0,0.7,0.1,2.7,0.1,2.7l0,0.2l0.2,0.1c0,0,1.4,0.6,3.3,0.3c1.2-0.1,2.8-0.1,3.7-0.1
	c0.2,0,0.4,0,0.5,0.1c0.1,0.1,0.2,0.2,0.4,0.3c0.2,0.1,0.4,0.3,0.4,0.5c0.1,0.2,0.1,0.7,0.2,1.2c0.1,0.7,0.2,1.5,0.3,1.7
	c0,0.1,0.1,0.4,0.3,0.7c0.2,0.7,0.5,1.6,0.9,1.7c0.1,0,0.4,0,0.8,0c1,0,2.7,0.1,2.8,0.2c0.1,0.2,0.3,0.5,0.5,0.9
	c0.1,0.3,0.3,0.7,0.3,0.9c0.1,0.5,0.4,1.6,0.4,1.6l0,0.1l0.1,0.1c0,0,0.6,0.5,1.2,1.9l0.3,1.6c0,0,0,0.1,0,0.1v0.3c0,0,0,0.1,0,0.1
	c-0.5,1.8-1.3,3.7-2,5.5c-1.6,3.8-0.7,3.3-0.1,4.3c0.1,0.2,0.1,0.3,0,0.5c-1.1,1.8-1.6,1.6-2.6,3c-2.5,3.4,0,3.1-7.3,3.1
	c-1.7-0.5-3.3-0.6-4.8-0.6c-1.8,0.1-3.2,0.4-4.1,0.6c-1.6,0.4-2.1-0.2-2.3-0.4l0,0c0-0.1-0.2-0.1-0.3-0.2c0-0.1,0-0.2,0-0.3
	c0-0.1,0.2-0.4,0.3-0.7c0.2-0.3,0.4-0.7,0.6-0.9c0.3-0.3,0.4-0.9,0.5-1.5c0.1-0.6,0.1-1.2,0.1-1.8c0-1-1.1-2.1-1.8-2.8
	c-0.1-0.1-0.3-0.3-0.3-0.3c-0.3-0.3-0.2-1.3-0.1-1.9c0-0.2,0.1-0.3,0.1-0.5c0-0.1,0-0.2,0-0.4c0-1.1,0.1-3.6-0.1-5.1
	c-0.1-0.9-0.2-1.4-0.4-1.9c-0.1-0.5-0.3-0.9-0.6-1.5c-0.4-0.8-1.7-1.4-2.7-1.9c-0.6-0.3-1-0.5-1.2-0.7c0,0,0-0.1,0.1-0.2
	c0.2-0.2,0.5-0.3,0.7-0.5c0.2-0.1,0.3-0.2,0.4-0.2c0.2-0.2,0.6-0.7,0.9-1.5c0.2-0.5,0.4-1.2,0.5-1.8c0.1-1.2-1.1-4.2-1.4-5.1
	l0.4-0.3l0.7-0.4c1.7-1.1,3.1-3.5,3.9-4.9c0.2-0.4,0.4-0.7,0.5-0.8l0,0c0.1,0,0.5,0,0.9,0.1c0.7,0.2,1.6,0.5,2,0.7
	c0.1,0,0.1,0.1,0.2,0.1c0.3,0.5,1.3,2.3,1.8,2.7c0.1,0.1,0.2,0.2,0.3,0.2C78.6,87.5,78.8,87.7,78.8,88.1L78.8,88.1z"/>
<path class="st1" d="M72.3,121.4L72.3,121.4L72.3,121.4z"/>
<path class="st1" d="M72.3,121.4L72.3,121.4L72.3,121.4z"/>
<path class="st0" d="M102.8,64.9c0.3,1.6,0.5,2.6,0.4,3.2c0,0.6-0.2,0.9-0.4,1.3l-0.1,0.1c-0.7,0.9-1.4,1.9-0.4,3.9
	c0.4,0.8,1.1,1.6,1.8,2.3c0.8,0.9,1.5,1.6,1.3,2.2c-0.1,0.4-0.3,0.8-0.5,1.3c-0.4,1-0.8,1.9-0.7,2.7c0.1,0.6,0.2,1.6,0.2,2.4
	c0,0.6,0,1.1,0,1.3c0,0.1-0.2-0.1-0.6-0.1c-1-0.1-2.5-0.1-3.2,1.2c-0.5,1.1-0.5,2.2-0.5,3.2c0,0.6,0,1.1-0.1,1.4v0
	c-0.1,0.3-0.9,0.7-1.7,1.1c-1.2,0.7-2.6,1.4-2.6,2.2c0,0.4,0.1,0.8,0.2,1.1c0.1,0.6,0.2,1.2,0,1.7c-0.2,0.5-1.4,1-1.9,1.2l0-0.1
	c-0.2-0.4-0.4-0.8-0.5-1c-0.3-0.4-2.2-0.4-3.3-0.5c-0.4,0-0.7,0-0.7,0c0,0-0.2-0.7-0.4-1.2c-0.1-0.4-0.2-0.7-0.3-0.9
	c-0.1-0.1-0.1-0.8-0.2-1.4c-0.1-0.5-0.1-1.1-0.2-1.3c-0.1-0.4-0.5-0.7-0.7-0.8c0,0-0.2,0.3-0.1,0.1c0,0,0-0.1,0-0.1
	c0-0.2-0.2-0.4-0.5-0.4c-0.2,0-0.4-0.1-0.6-0.1c-1-0.1-2.6-0.1-3.9,0.1c-1.4,0.2-2.4-0.1-2.8-0.2c0-0.5-0.1-1.9-0.1-2.5
	c0-0.8-0.4-1.1-0.8-1.4c-0.1-0.1-0.2-0.1-0.3-0.2c-0.3-0.2-1-1.5-1.4-2.2c0.7-0.1,1.3-0.7,1.6-0.9l0.1-0.1c0.3-0.2,0.8-0.8,1.1-1.5
	c0.2-0.5,0.3-1.1,0.2-1.6c-0.2-1.1,1.2-1.9,1.2-1.9l0.1,0l0-0.1l0.5-0.6l0.5-0.3c0.1-0.1,0.3-0.1,0.4-0.1c0.8,0.2,1.4,0.4,2.3,0.4
	c1.7-0.1,1.1-0.4,2.3-0.6c1.2-0.2,2.8,0.8,4.3,1c0.1,0,0.3,0,0.4-0.1c1.6-1.2,2.9-2.3,2.9-4.3c0.1-3.8-1.1-3.4-1.8-5
	c-0.1-0.2,0-0.4,0.1-0.5c1.4-1.6,0.4,1.2,2.8-3.5c2.1-4.2-0.8-6.9,5.5-4.7c0.2,0.1,0.3,0.2,0.3,0.5c0.1,2.2-0.8,0.6,0.5,2.5
	c0,0,0,0,0,0.1l0.3,0.6C102.6,63.9,102.7,64.4,102.8,64.9L102.8,64.9z"/>
<path class="st0" d="M102.7,69.6L102.7,69.6L102.7,69.6z"/>
<path class="st0" d="M102.8,69.5L102.8,69.5L102.8,69.5z"/>
<path class="st0" d="M127.4,45.7c0.2,0.2,1.5,1.7,3.5,2.3c0.6,0.2,1.6,0.4,2.6,0.6c2.7,0.6,6.1,1.5,6.5,1.8c0.3,0.2,0.5,0.4,0.6,0.6
	c0.1,0.2,0.2,0.5,0.2,0.9c0,0.3,0,0.5-0.1,0.7h0c-0.2,0.7-0.3,1.1,1,1.5c0.3,0.1,0.7,0.2,1,0.2c1.2,0.3,2.6,0.5,2.7,0.9
	c0.1,0.3,0,1.3,0,2.3c-0.1,0.9-0.1,1.7-0.1,2.3c0,0.3,0,0.7,0,1.1v0c0,0.5,0,1.1,0,1.6c0,0.8-0.1,1.4-0.2,1.7c-0.1,0.4-0.1,0.7,0,1
	c0,0.3,0.1,0.5-0.3,0.6c-0.6,0.1-2.2,0.1-3.6-0.1c-1-0.2-1.9-0.5-2.3-0.9c-0.6-0.6-1.4-1.4-2-2.1c-0.4-0.5-0.7-1-0.8-1.3l-0.1-0.4
	c-0.2-0.9-0.5-2-1.1-2.1c-0.3,0-1.3,0-2.2,0.1c-0.7,0-1.3,0.1-1.6,0.2c-0.6,0.2-0.9,1.1-1.1,1.9c-0.1,0.3-0.2,0.6-0.3,0.8
	c-0.1,0.2-0.2,0.4-0.3,0.6c-0.4,0.7-0.9,1.5-0.6,2c0.1,0.2,0.3,0.4,0.5,0.8c0.5,0.7,1.1,1.7,1.2,2c0,0.1,0.1,0.5,0.1,0.8
	c0.1,0.8,0.2,1.9,0.6,2.3c0.1,0.2,0.4,0.4,0.6,0.7c0.7,0.7,1.7,1.8,1.7,2.4c0,0.6,0.1,2.6,0,4.1c-0.1,0.7-0.1,1.2-0.2,1.2
	c-0.2,0-0.6,0-1,0c-1.3,0-3.1-0.1-3.2,0.6c-0.1,0.5,0.2,1.2,0.5,1.7c0.1,0.2,0.2,0.4,0.2,0.4c0,0.1-0.4,0.7-0.9,1.2
	c-0.3,0.3-0.6,0.5-0.8,0.5l-0.2,0c-1,0-3.3,0.1-3.8,1.2c-0.3,0.7-0.4,1.7-0.4,2.4c0,0.4,0,0.7-0.1,0.8c-0.1,0.2-0.5,0.7-0.9,1.3
	c-0.5,0.6-1,1.2-1.1,1.6c-0.2,0.5-0.1,1.5,0,2c-0.4,0.1-0.7,0.3-0.9,0.3c-0.3,0-1.4,0.1-1.8,0.8c-0.1,0.2-0.5,0.3-1.1,0.4
	c-0.6,0.1-1.3,0.1-2,0.1c-0.4,0-0.8,0.1-1.1,0.1c-0.2,0-0.3,0-0.4,0.1c-0.1,0-0.1,0-0.1-0.1c0-0.5,0.1-1,0.3-1.5
	c0.1-0.3,0.2-0.6,0.2-0.8c0-0.2,0.2-0.5,0.4-0.8c0.2-0.4,0.4-0.7,0.4-1c0-0.3-0.1-0.6-0.6-0.6c-0.6,0-1.3,0.3-1.9,0.6
	c-0.4,0.2-0.7,0.3-0.9,0.3c-0.1,0-0.3,0-0.5,0c-0.3,0-0.7,0-1-0.1c-0.2-0.1-0.4-0.2-0.4-0.4l0,0c0-0.6,0.3-1,0.5-1.3
	c0.1-0.1,0.2-0.3,0.3-0.4c0-0.1,0-0.1,0-0.2c0-0.2-0.2-0.5-0.4-0.6c-0.2-0.1-0.5-0.3-0.7-0.4c-0.3-0.1-0.6-0.2-0.8-0.2
	c-0.2,0-0.8,0-1.3-0.1c-0.3-0.1-0.7-0.1-0.9-0.3c-0.5-0.2-1.3-0.7-1.7-0.9c0-0.3,0-0.8,0-1.2c0-0.9-0.1-1.9-0.2-2.5
	c-0.1-0.6,0.3-1.5,0.7-2.4c0.2-0.5,0.4-0.9,0.5-1.3c0.3-0.9-0.6-1.8-1.5-2.8c-0.6-0.7-1.3-1.4-1.7-2.1c-0.8-1.6-0.2-2.5,0.4-3.2v0
	l0.1-0.1h0c0.4-0.5,0.5-0.9,0.6-1.7c0-0.7-0.1-1.7-0.5-3.4c-0.1-0.5-0.2-1.1-0.2-1.6c0-0.1,0.1-0.1,0.2-0.2c2-1.1,2.8,0.5,4.8,1
	c3.8,1.1,7.4,1.4,10.2-1.2c1.4-1.3,2.1-1.6,3.4-2.5c0.2-0.1,0.2-0.3,0.2-0.5c-0.4-1.7-1.4-1.4-1.1-5.1c0.2-2.9,1.3-1.6,1.3-5l0-0.1
	c-0.3-1.8-2-0.7-2.1-4.9c0-0.1,0-0.3,0.1-0.4c0.1-0.1,0.2-0.2,0.4-0.1c2.1,0,1.9,0.3,3.4,1.5c0.2,0.2,0.5,0.1,0.7,0l0.7-0.7
	c0.1-0.1,0.3-0.2,0.5-0.1l1.2,0.4L127.4,45.7L127.4,45.7z"/>
<path class="st0" d="M110.9,88.3L110.9,88.3L110.9,88.3z"/>
<path class="st0" d="M129.7,62L129.7,62L129.7,62z"/>
<path class="st0" d="M148.4,25.5c0.1,0.9,0.2,1.9,1.7,2.5l0.4,0.2c1.7,0.7,4.7,1.9,4.8,2.5c0,0.3,0.1,0.8,0.1,1.4
	c0.1,1.2,0.2,2.8,0.4,4.1c0.1,0.3,0.1,0.7,0.2,1.1c0.2,1.6,0.5,3,1.5,3.6l0.1,0c1.1,0.5,2.2,1.1,2.7,2.6c0.2,0.6,0.3,1.3,0.3,2
	c0.1,1.2,0.2,2.3,1.1,2.8c0.5,0.3,1.2,0.5,1.9,0.8c1.1,0.4,2.3,0.8,2.5,1.2c0.1,0.3,0.2,0.7,0.3,1.1c0.2,0.7,0.4,1.4,0.8,1.7
	c-0.6,0.8-1.9,2.6-1.9,4.9c0,1.4-0.1,2.3-0.2,2.9c-0.1,0.5-0.2,0.7-0.3,0.8c-0.1,0.1-2.4,0.2-5.2,0.3c-3.3,0.1-7.2,0.2-8,0.1
	c-1.3-0.1-4.7-1.1-5.6-1.3c0-0.3,0-0.6,0-0.9c0-0.5,0-1.4,0.1-2.3c0.1-1.1,0.1-2.1,0-2.5c-0.2-0.7-1.8-1.1-3.2-1.4
	c-0.4-0.1-0.7-0.2-1-0.2c-0.7-0.2-0.6-0.4-0.5-0.7c0.1-0.3,0.1-0.5,0.1-0.9c0-0.6-0.1-0.9-0.3-1.2c-0.2-0.3-0.4-0.5-0.8-0.8
	c-0.5-0.4-4-1.3-6.8-1.9c-1.1-0.3-2-0.5-2.6-0.6c-1.9-0.5-3.2-2.1-3.2-2.1l0,0l0,0l-1.1-1.1c0-0.1-0.1-0.3-0.1-0.5
	c0-0.2,0-0.3,0.1-0.4c1.6-1.9,1.1-2.1,0.8-4.1c0-0.2,0.1-0.4,0.2-0.5c2.2-1.3,2.8-1.2,3.1-4.4c0.2-2.4-0.2-0.9,1.1-2.7
	c2.1-3-0.9-3,4.1-7.3c2.8-2.4,1.4-2.5,2.2-5.1c0-0.2,0.2-0.3,0.3-0.3c3.6-1,5.6,1.3,6.7,2.2c0.1,0.4,0.3,0.7,0.4,0.9
	c0.3,0.4,0.7,0.9,1.2,1.3c0.6,0.6,1.3,1.3,1.4,1.8C148.4,25.1,148.4,25.3,148.4,25.5L148.4,25.5z"/>
<path class="st0" d="M141.4,52.8L141.4,52.8L141.4,52.8z"/>
<path class="st0" d="M165.2,60.8L165.2,60.8L165.2,60.8z"/>
<path class="st0" d="M179.6,0.8c0.1,0,0.3,0,0.4,0.1c2.9,2.2,2.3,1.8,5.9,3.6c1.8,0.9,3,3.9,3.5,5.8c0.8,2.8-1.6,3.2-2.4,5.7
	c-0.7,2,1.2,1.5-1.7,6.4c-0.1,0.1-0.2,0.2-0.4,0.2c-2.4,0.4-4.7-0.7-5.5,6.5c-0.5,4.9,2.5,7.8,3.1,9c1.5,3,0.4,8.1,0.7,11.5
	c0.5,4.7-2.2,5.6-3.6,6.4c-0.2,0.1-0.3,0.2-0.3,0.4l0,0c-1.3,0.1-2.6,0.2-2.9,0.2c-0.3,0-0.4-0.3-0.4-0.7h0c0-0.2,0-0.3,0-0.5l0-0.1
	v0c0.1-0.9-0.6-1-2.3-1.1l-0.4,0c-0.9-0.1-1.2-0.4-1.5-0.7c-0.2-0.3-0.5-0.6-1.1-0.9c-0.9-0.4-1.6-0.3-2.2-0.2
	c-0.3,0.1-0.5,0.1-0.7,0.1l0,0c-0.3,0-0.5-0.7-0.7-1.4c-0.1-0.4-0.2-0.9-0.4-1.2c-0.3-0.7-1.6-1.1-2.8-1.5c-0.7-0.2-1.4-0.5-1.8-0.7
	c-0.6-0.3-0.7-1.3-0.8-2.3c-0.1-0.7-0.1-1.5-0.4-2.2c-0.7-1.7-1.9-2.3-3-2.9l-0.1,0c-0.8-0.4-1-1.7-1.2-3.1
	c-0.1-0.4-0.1-0.7-0.2-1.1c-0.2-1.2-0.3-2.9-0.4-4.1c0-0.6-0.1-1.2-0.1-1.5c-0.1-1-3.4-2.3-5.2-3l-0.4-0.2c-1.2-0.5-1.2-1.2-1.3-1.9
	c0-0.2,0-0.4-0.1-0.6c-0.1-0.7-0.8-1.4-1.5-2.1c-0.4-0.4-0.8-0.8-1.1-1.2c-0.1-0.1-0.1-0.2-0.2-0.4c0.1-0.1,0.1-0.2,0.1-0.4
	c0-0.2,0.1-0.3,0.3-0.4c5-2.7,2.5-5,4.7-9.3c3.8-7.3,8.7-5.9,10.6-7.5c0.6-0.5,0.9-1.1,1.7-1.6c5.3-3.7,8.2-0.9,10.8-0.1
	C176.9,2.5,177.1,1.3,179.6,0.8L179.6,0.8z"/>
<path class="st0" d="M167.9,52.6L167.9,52.6L167.9,52.6z"/>
<path class="st0" d="M176.1,55.5L176.1,55.5L176.1,55.5z"/>
</svg>
