<?xml version="1.0" encoding="utf-8"?>
<!-- Generator: Adobe Illustrator 21.0.2, SVG Export Plug-In . SVG Version: 6.00 Build 0)  -->
<svg version="1.1" id="Слой_1" xmlns="http://www.w3.org/2000/svg" xmlns:xlink="http://www.w3.org/1999/xlink" x="0px" y="0px"
	 viewBox="0 0 348.2 348.2" style="enable-background:new 0 0 348.2 348.2;" xml:space="preserve">
<style type="text/css">
	.st0{fill-rule:evenodd;clip-rule:evenodd;fill:#9FE1FA;}
	.st1{fill-rule:evenodd;clip-rule:evenodd;fill:#00AFF2;}
	.st2{fill-rule:evenodd;clip-rule:evenodd;fill:#FFFFFF;}
</style>
<g>
	<path class="st0" d="M174.1,0c96.1,0,174.1,77.9,174.1,174.1s-77.9,174.1-174.1,174.1S0,270.2,0,174.1S77.9,0,174.1,0L174.1,0z"/>
	<path class="st1" d="M174.1,65.5c60,0,108.6,48.6,108.6,108.6s-48.6,108.6-108.6,108.6S65.5,234.1,65.5,174.1
		S114.1,65.5,174.1,65.5L174.1,65.5z"/>
	<path class="st2" d="M184.2,194.4c-1.7-1.5-9.6-8.8-9.9-8.8c0,0-0.2,0.2-0.3,0.3l0,0c-12.4,9.5-28,19-41.1,27.9l0,0l-0.5,0.4
		c-1,0.7-2,1.4-3,2.1c-0.7,0.5-3.2,2.1-5.6,3.7l96.3,6.3l-0.5-0.4c-1.7-1.5-3.7-3.3-5.8-5.2c-5-4.5-10.4-9.3-14.8-13.1
		C194.5,203.1,188.9,198.7,184.2,194.4L184.2,194.4z M153.2,160.3c-2.3-4.2-3.4-9.1-3.1-14.3c0.4-6.1,2.8-11.3,6.4-15.4
		c3.4-3.9,8-6.8,12.9-8.2c1.4-0.4,2.9-0.7,4.4-0.9l-30.2-2c-0.4,0,0.4,0.2,0.4,0.5c0,0.3,0,0.5,0,0.7l0,0.8l-2.1,33.1
		c-0.2,2.5-1.3,4.1-2.6,4.8c-0.6,0.3-1.3,0.5-2,0.5c-0.7,0-1.3-0.3-1.9-0.7c-1.3-0.8-2.2-2.5-2-4.7L134,144l-7.4,5l0,0l-0.2,0.1
		c-0.3,0.2-0.8,0.6-1.4,1c8.8,7.7,18.3,17,27.3,24.2c0.4,0.4,0.8,0.7,1.2,1c1.7,1.4,3.1,2.6,3,4.8c0,0.6-0.2,1.3-0.6,2h0
		c-0.4,0.7-1,1.3-1.8,1.6c-0.8,0.4-1.8,0.5-2.9,0.1c-0.8-0.3-1.7-0.8-2.7-1.7L121.1,158l-3.6,55.9l40.7-27.5l0,0
		c0.7-0.5,1.4-0.9,2.1-1.4v0c0.6-0.4,1.2-0.8,1.6-1.1c1.3-0.9,2.3-1.6,3.2-2.3c6.2-4.5,9.6-6.9,15.5-1.9c3.9,3.4,7.8,6.8,11.6,10.3
		c3.9,3.5,7.8,7.1,11.5,10.2l23.4,20.7l3.6-55.9l-14.5,9.8c-0.8,0.5-1.5,1-2.2,1.5c-0.7,0.5-1.4,1-2.2,1.5c-0.7,0.5-1.5,1-2.3,1.6
		l0,0c-0.7,0.5-1.5,1-2.2,1.5l-6.8,4.6c-1.6,1.1-3,1.6-4.2,1.5c-0.6,0-1.1-0.2-1.6-0.4c-0.5-0.3-0.9-0.6-1.2-1.1
		c-0.5-0.8-0.8-1.7-0.7-2.7c0.2-2.4,1-2.9,2.3-3.7h0c0.1-0.1,0.3-0.2,0.5-0.3l0,0c8.8-5.9,17.7-11.8,26.3-17.8c1.5-1,3.9-2.8,5.9-4
		c-0.5-0.4-0.9-0.8-1.2-1.1l-0.2-0.1l0,0l-6.7-5.9l-0.7,10.7c-0.2,2-1.3,3.5-2.7,4.1c-0.6,0.3-1.3,0.4-2,0.4c-0.7-0.1-1.4-0.3-2-0.8
		c-1.2-0.9-2-2.6-1.8-5.3l2.2-34.8l-29.2-1.9c0.4,0.1,0.9,0.2,1.3,0.4c5.2,1.6,10,5,13.8,10.4c5.4,7.5,4.9,14.4,4.3,22.7l-0.1,1.3
		c-0.2,3.4-1.5,6-3.4,7.8c-1.4,1.4-3.2,2.2-5,2.6c-1.8,0.4-3.7,0.2-5.5-0.4c-2.4-0.9-4.5-2.7-5.9-5.4c-0.1-0.2-0.2-0.3-0.2-0.5
		c-2.8,1.4-5.9,1.7-8.8,1.1c-3.2-0.6-6.2-2.3-8.5-5c-1.2-1.4-2.1-3-2.6-4.7c-0.9-2.7-0.9-5.7-0.1-8.4c0.8-2.7,2.3-5.2,4.5-7.1
		c1.3-1.1,2.9-2,4.6-2.6c3.7-1.2,6.1-1,7.6-0.2c0.8,0.4,1.4,1.1,1.7,1.8c0.3,0.7,0.4,1.5,0.4,2.2c-0.2,1.4-1.1,2.7-2.3,3.3
		c-1,0.5-1.6,0.5-2.5,0.5c-0.2,0-0.4,0-0.6,0c-1.3,0-2.6,0.7-3.7,1.7c-1,1-1.7,2.3-1.8,3.9c-0.1,1.2,0.2,2.2,0.7,3.1
		c0.5,0.9,1.2,1.6,2.1,2.1c0.9,0.5,1.9,0.9,2.9,0.9c1.1,0.1,2.2-0.2,3.3-0.7c2.2-1.2,2.5-3,2.8-4.4c0.6-2.6,1-4.5,4.7-4.3
		c3.4,0.2,4,2.7,3.8,6c-0.1,0.8-0.1,1.6-0.2,2.4c-0.2,1.9-0.5,3.9-0.1,5c0.2,0.5,0.6,0.8,1,1c0.3,0.1,0.7,0.2,1.1,0.1
		c0.4,0,0.7-0.2,0.9-0.4c0.3-0.3,0.6-0.7,0.6-1.2c0.1-1.1,0.1-1.9,0.2-2.8c0.5-6.9,1-12.8-4-18.4c-2-2.3-3.9-3.7-6.1-4.7
		c-2.2-1-4.7-1.4-7.7-1.6l0,0c-4.3-0.3-8.6,1.5-12,4.5c-3.4,3-5.8,7.3-6.1,12l0,0c-0.2,3.2,0.2,5.8,1.1,8.1c0.9,2.4,2.5,4.5,4.5,6.6
		c1.3,1.4,2.9,2.4,4.6,3.2c1.8,0.8,3.8,1.3,5.9,1.7l0.1,0c1.5,0.1,5,0.5,4.7,4.7c0,0.5-0.1,0.9-0.3,1.3l0,0
		c-0.7,1.7-2.2,2.4-4.2,2.5c-1.4,0-3-0.2-4.6-0.7c-3.1-0.8-6.2-2.3-7.1-2.8l0,0C159.2,168.5,155.6,164.8,153.2,160.3L153.2,160.3z
		 M132.2,135c0.8-0.6,1.6-1.1,2.5-1.7l0.1-2.2c0.2-5,0.6-12.8,1.3-14.7v0c0.5-1.4,1.3-2.6,2.5-3.6c1.1-0.9,2.4-1.6,3.9-1.9
		c1.6-0.3,15.9,0.8,21.2,1.2l1.4,0.1l0.6,0.1c0.1,0,0.1,0,0.2,0l0,0c0,0,0.5-0.3,0.7-0.5c0.1-0.1,0.2-0.1,0.2-0.2
		c0.9-0.7,1.9-1.3,2.8-1.9c0.8-0.5,1.7-1.1,2.4-1.6l0.7-0.5c2.8-2,3.8-2.7,7.4-2.5c2.9,0.2,6.4,3.5,8.6,5.6l0,0l0.6,0.6
		c0.5,0.4,0.9,0.9,1.3,1.2c1.3,1.3,1.6,1.5,3,1.6l13.1,0.9c0.8,0.1,1.5,0.1,2.2,0.1c5.2,0.1,11.1,0.3,12.4,7.2
		c0.4,2-0.2,9.2-0.6,14.1l-0.2,2.5c0.8,0.7,1.6,1.4,2.3,2c0.7,0.6,1.4,1.3,1.9,1.7h0c0.4,0.3,0.9,0.8,1.3,1.2l0,0
		c0.4,0.4,0.9,0.8,1.2,1.1c0.3,0.3,0.6,0.5,0.8,0.7c0.2,0.2,0.3,0.3,0.5,0.5l6.1,5.4c0.2,0.2,0.6,0.5,0.9,0.8c0.5,0.4,1,0.9,1.5,1.3
		h0l0.3,0.2c1.2,0.9,2.4,1.9,2.3,4.2l-4.5,69.8c-0.1,1-0.4,1.9-0.8,2.7c-0.5,0.9-1.1,1.7-1.8,2.3c-0.6,0.6-1.6,1.2-2.6,1.6
		c-0.9,0.4-1.9,0.6-2.9,0.5l-111-7.2c-1.9-0.1-3.8-1.2-5.1-2.7c-1.3-1.5-2.2-3.5-2-5.4l4.5-69.8c0.1-2.3,1.6-3.2,2.9-3.9l0.4-0.2
		l0,0l13.6-9.3C130.9,136,131.5,135.5,132.2,135L132.2,135z"/>
</g>
</svg>
