<?xml version="1.0" encoding="utf-8"?>
<!-- Generator: Adobe Illustrator 21.0.2, SVG Export Plug-In . SVG Version: 6.00 Build 0)  -->
<svg version="1.1" id="Слой_1" xmlns="http://www.w3.org/2000/svg" xmlns:xlink="http://www.w3.org/1999/xlink" x="0px" y="0px"
	 viewBox="0 0 507 507" style="enable-background:new 0 0 507 507;" xml:space="preserve">
<style type="text/css">
	.st0{fill-rule:evenodd;clip-rule:evenodd;fill:#4D66AC;}
	.st1{fill:#FFFFFF;}
	.st2{fill-rule:evenodd;clip-rule:evenodd;fill:#FFFFFF;}
	.st3{fill-rule:evenodd;clip-rule:evenodd;fill:#D24A43;}
</style>
<g>
	<path class="st0" d="M253.5,0C393.5,0,507,113.5,507,253.5S393.5,507,253.5,507C113.5,507,0,393.5,0,253.5S113.5,0,253.5,0L253.5,0
		z"/>
	<path class="st1" d="M95.3,375c0.3-0.6,0.6-1,0.8-1.2c0.2-0.3,0.5-0.4,0.7-0.4c0.3,0,0.6,0.2,0.9,0.5c0.3,0.3,0.8,0.8,1.3,1.4
		c0.6,0.7,1,1.2,1.3,1.6c0.3,0.4,0.5,0.7,0.6,0.9c0.1,0.2,0.1,0.4,0.1,0.6c0,0.2-0.1,0.4-0.2,0.5l-3.6,6l8.2,9.4l6.2-2.7
		c0.2-0.1,0.4-0.2,0.6-0.2c0.2,0,0.4,0,0.6,0.1c0.2,0.1,0.5,0.3,0.8,0.7c0.3,0.3,0.7,0.8,1.2,1.3c0.5,0.6,0.9,1.1,1.1,1.4
		c0.3,0.4,0.4,0.7,0.3,0.9c0,0.3-0.2,0.5-0.5,0.7c-0.3,0.2-0.7,0.4-1.3,0.6l-28.8,11.5c-0.3,0.1-0.5,0.2-0.8,0.2
		c-0.2,0-0.5-0.1-0.7-0.2c-0.3-0.2-0.6-0.4-1-0.8c-0.4-0.4-0.8-0.9-1.4-1.6c-0.7-0.8-1.2-1.4-1.5-1.8c-0.4-0.5-0.6-0.9-0.8-1.2
		c-0.1-0.3-0.2-0.6-0.2-0.8c0.1-0.2,0.2-0.5,0.3-0.8L95.3,375L95.3,375z M86.9,402.4L86.9,402.4l13.6-5.7l-6.1-7L86.9,402.4
		L86.9,402.4z M78.7,354.4c0.4-0.2,0.7-0.4,0.9-0.6c0.3-0.1,0.5-0.2,0.7-0.3c0.2-0.1,0.4-0.1,0.6-0.1c0.2,0,0.4,0,0.7,0.1
		c0.3,0.1,0.7,0.2,1.2,0.5c0.5,0.3,1.1,0.7,1.8,1.2c0.6,0.5,1.3,1.1,2,1.9c0.7,0.7,1.4,1.6,2,2.6c1.2,1.9,2,3.8,2.4,5.7
		c0.4,1.9,0.4,3.8-0.1,5.6c-0.5,1.8-1.4,3.6-2.8,5.3c-1.4,1.7-3.2,3.3-5.5,4.8c-2.4,1.5-4.7,2.5-6.9,3.1c-2.2,0.5-4.3,0.7-6.3,0.3
		c-2-0.3-3.8-1.1-5.4-2.3c-1.7-1.2-3.1-2.7-4.3-4.6c-0.5-0.8-0.9-1.6-1.2-2.4c-0.3-0.8-0.6-1.6-0.8-2.3c-0.2-0.7-0.3-1.4-0.3-2.1
		c0-0.7,0-1.2,0.1-1.5c0.1-0.3,0.2-0.6,0.2-0.7c0.1-0.2,0.2-0.3,0.4-0.5c0.2-0.2,0.4-0.4,0.6-0.6c0.3-0.2,0.6-0.4,1-0.7
		c0.4-0.3,0.8-0.5,1.1-0.7c0.3-0.2,0.6-0.3,0.8-0.3c0.2,0,0.4,0,0.6,0c0.2,0,0.3,0.1,0.4,0.3c0.1,0.2,0.2,0.6,0.1,1.1
		c0,0.5,0,1.1,0,1.8c0,0.7,0.1,1.5,0.4,2.4c0.2,0.9,0.6,1.8,1.3,2.8c0.7,1.1,1.6,1.9,2.6,2.5c1,0.6,2.1,0.9,3.3,1
		c1.2,0.1,2.5-0.1,3.9-0.6c1.4-0.4,2.8-1.1,4.3-2.1c1.6-1,2.9-2.1,3.9-3.2c1-1.1,1.7-2.2,2-3.3c0.4-1.1,0.5-2.2,0.3-3.4
		c-0.2-1.1-0.6-2.2-1.3-3.3c-0.6-1-1.3-1.8-2-2.4c-0.7-0.6-1.4-1-2-1.4c-0.6-0.3-1.2-0.6-1.6-0.8c-0.4-0.2-0.7-0.4-0.8-0.6
		c-0.1-0.1-0.1-0.3-0.1-0.4c0-0.1,0.1-0.3,0.2-0.4c0.1-0.2,0.3-0.4,0.6-0.6C77.8,355,78.2,354.7,78.7,354.4L78.7,354.4z M66.6,329.2
		c0.4-0.2,0.7-0.3,1-0.4c0.3-0.1,0.5-0.2,0.7-0.2c0.2-0.1,0.4-0.1,0.6,0c0.2,0,0.4,0.1,0.6,0.2c0.2,0.1,0.6,0.3,1.1,0.7
		c0.5,0.4,1,0.8,1.6,1.4c0.6,0.6,1.1,1.3,1.7,2.1c0.6,0.8,1.1,1.8,1.6,2.8c0.9,2.1,1.5,4.1,1.6,6c0.1,1.9-0.2,3.8-0.9,5.5
		c-0.7,1.7-1.9,3.3-3.5,4.8c-1.6,1.5-3.7,2.8-6.2,3.9c-2.6,1.2-5,1.8-7.3,2.1c-2.3,0.2-4.4,0-6.3-0.6c-1.9-0.6-3.6-1.6-5.1-3
		c-1.5-1.4-2.7-3.1-3.6-5.2c-0.4-0.8-0.7-1.7-0.9-2.5c-0.2-0.8-0.4-1.6-0.4-2.4c-0.1-0.8-0.1-1.5,0-2.1c0.1-0.7,0.1-1.1,0.3-1.4
		c0.1-0.3,0.2-0.5,0.3-0.7c0.1-0.1,0.3-0.3,0.4-0.4c0.2-0.1,0.4-0.3,0.7-0.5c0.3-0.2,0.6-0.3,1.1-0.5c0.5-0.2,0.9-0.4,1.2-0.5
		c0.3-0.1,0.6-0.2,0.9-0.2c0.2,0,0.4,0,0.6,0.1c0.1,0.1,0.3,0.2,0.3,0.3c0.1,0.2,0.1,0.6,0,1.1c-0.1,0.5-0.2,1.1-0.3,1.8
		c-0.1,0.7-0.1,1.5,0,2.4c0.1,0.9,0.4,1.9,0.9,3c0.5,1.2,1.3,2.1,2.2,2.9c0.9,0.7,2,1.2,3.2,1.4c1.2,0.2,2.5,0.3,4,0
		c1.4-0.2,3-0.7,4.6-1.5c1.8-0.8,3.2-1.7,4.3-2.6c1.1-0.9,2-1.9,2.5-3c0.5-1,0.8-2.1,0.8-3.3c0-1.1-0.3-2.3-0.8-3.5
		c-0.5-1.1-1-2-1.7-2.6c-0.6-0.7-1.2-1.2-1.8-1.6c-0.6-0.4-1.1-0.8-1.5-1c-0.4-0.3-0.7-0.5-0.8-0.7c-0.1-0.2-0.1-0.3-0.1-0.4
		c0-0.1,0.1-0.3,0.3-0.4c0.2-0.1,0.4-0.3,0.7-0.5C65.6,329.7,66,329.4,66.6,329.2L66.6,329.2z M44.6,298.8c2.6-0.7,5.1-1.1,7.3-1
		c2.3,0.1,4.3,0.5,6.1,1.4c1.8,0.9,3.4,2.2,4.7,3.8c1.3,1.7,2.3,3.8,3,6.3c0.7,2.5,1,4.7,0.9,6.7c-0.1,2-0.7,3.8-1.6,5.4
		c-1,1.6-2.4,3-4.3,4.2c-1.9,1.2-4.2,2.2-7,3c-2.6,0.7-5,1.1-7.2,1c-2.2-0.1-4.3-0.5-6.1-1.4c-1.8-0.9-3.4-2.2-4.7-3.9
		c-1.3-1.7-2.3-3.8-3-6.3c-0.7-2.4-1-4.6-0.9-6.6c0.1-2,0.7-3.8,1.6-5.4c1-1.6,2.4-3,4.2-4.2C39.6,300.6,41.9,299.6,44.6,298.8
		L44.6,298.8z M46.9,305.5c-1.7,0.5-3.1,1-4.4,1.7c-1.3,0.6-2.3,1.4-3.1,2.3c-0.8,0.9-1.3,2-1.5,3.2c-0.2,1.2-0.1,2.6,0.3,4.1
		c0.4,1.6,1.1,2.8,2,3.7c0.9,0.9,1.9,1.5,3.1,1.9c1.2,0.4,2.5,0.5,3.9,0.4c1.4-0.1,2.9-0.4,4.4-0.8c1.7-0.5,3.3-1.1,4.6-1.7
		c1.3-0.7,2.4-1.4,3.2-2.3c0.8-0.9,1.3-1.9,1.5-3.1c0.2-1.2,0.1-2.6-0.3-4.2c-0.4-1.6-1.1-2.8-2-3.7c-0.9-0.9-1.9-1.5-3.1-1.9
		c-1.2-0.4-2.5-0.5-3.9-0.4C49.9,304.8,48.4,305.1,46.9,305.5L46.9,305.5z M64,258.2c0.2,0,0.3,0,0.4,0.1c0.1,0.1,0.2,0.2,0.3,0.4
		c0.1,0.2,0.2,0.5,0.3,0.9c0.1,0.4,0.2,0.8,0.2,1.4c0.1,0.6,0.1,1,0.1,1.4c0,0.4,0,0.7-0.1,0.9c0,0.2-0.1,0.4-0.2,0.5
		c-0.1,0.1-0.2,0.2-0.4,0.2l-7.7,1l2.8,21.7c0.1,0.6,0,1.1-0.3,1.5c-0.3,0.4-0.8,0.6-1.5,0.7l-29.8,3.8c-0.2,0-0.3,0-0.5-0.1
		c-0.1-0.1-0.3-0.3-0.4-0.5c-0.1-0.2-0.2-0.6-0.3-1c-0.1-0.4-0.2-1-0.3-1.6c-0.1-0.6-0.1-1.2-0.1-1.6c0-0.4,0-0.8,0.1-1
		c0.1-0.3,0.1-0.5,0.3-0.6c0.1-0.1,0.3-0.2,0.4-0.2l26.4-3.4l-1.5-12.1l-26.4,3.4c-0.2,0-0.3,0-0.5-0.1c-0.1-0.1-0.3-0.3-0.4-0.5
		c-0.1-0.2-0.2-0.6-0.3-1c-0.1-0.4-0.2-1-0.3-1.6c-0.1-0.6-0.1-1.2-0.1-1.6c0-0.4,0-0.8,0.1-1c0.1-0.3,0.1-0.5,0.3-0.6
		c0.1-0.1,0.3-0.2,0.4-0.2l26.4-3.4L51,261c-0.1-0.4,0-0.7,0.2-0.9c0.2-0.2,0.5-0.3,1-0.4L64,258.2L64,258.2z M57.9,227.5
		c0.2,0,0.3,0.1,0.4,0.2c0.1,0.1,0.2,0.3,0.3,0.6c0.1,0.3,0.1,0.6,0.1,1c0,0.4,0,1-0.1,1.6c0,0.6-0.1,1.2-0.2,1.6
		c-0.1,0.4-0.2,0.8-0.3,1c-0.1,0.2-0.2,0.4-0.4,0.5c-0.1,0.1-0.3,0.1-0.5,0.1L40,232.8c-0.7-0.1-1.3-0.1-1.9-0.2
		c-0.6-0.1-1.2-0.1-1.7-0.2l0,0.1c0.2,0.2,0.5,0.3,0.8,0.5c0.3,0.2,0.6,0.4,0.9,0.7c0.3,0.2,0.7,0.5,1,0.8c0.3,0.3,0.7,0.5,1,0.8
		L56.4,248c0.2,0.2,0.3,0.3,0.4,0.5c0.1,0.2,0.2,0.3,0.3,0.6c0.1,0.2,0.1,0.5,0.1,0.8c0,0.3,0,0.8-0.1,1.3c-0.1,0.7-0.1,1.2-0.2,1.6
		c-0.1,0.4-0.2,0.7-0.3,0.9c-0.1,0.2-0.2,0.4-0.4,0.4c-0.1,0.1-0.3,0.1-0.5,0.1l-31.2-2.4c-0.2,0-0.3-0.1-0.4-0.2
		c-0.1-0.1-0.2-0.3-0.3-0.6c-0.1-0.3-0.1-0.6-0.1-1c0-0.4,0-1,0.1-1.6c0-0.7,0.1-1.2,0.2-1.6c0.1-0.4,0.2-0.8,0.3-1
		c0.1-0.2,0.2-0.4,0.4-0.5c0.1-0.1,0.3-0.1,0.5-0.1l17.5,1.3c0.5,0,1.1,0.1,1.7,0.2c0.6,0.1,1.2,0.1,1.8,0.2l0-0.1
		c-0.5-0.3-1.1-0.7-1.7-1.2c-0.7-0.5-1.3-1-2-1.5l-16.2-12.8c-0.2-0.1-0.3-0.3-0.4-0.4c-0.1-0.1-0.2-0.3-0.3-0.6
		c-0.1-0.2-0.1-0.5-0.1-0.9c0-0.3,0-0.8,0-1.3c0-0.6,0.1-1.2,0.2-1.6c0.1-0.4,0.2-0.7,0.3-0.9c0.1-0.2,0.2-0.4,0.4-0.5
		c0.1-0.1,0.3-0.1,0.5-0.1L57.9,227.5L57.9,227.5z M63.6,193.5c0.6-0.1,1.1-0.1,1.5,0c0.4,0,0.6,0.2,0.7,0.4
		c0.1,0.2,0.2,0.6,0.1,1.1c-0.1,0.5-0.2,1.1-0.4,1.9c-0.2,0.8-0.4,1.5-0.5,2c-0.1,0.5-0.3,0.8-0.4,1.1c-0.1,0.2-0.3,0.4-0.4,0.4
		c-0.2,0.1-0.3,0.1-0.6,0.1l-7,0.6l-2.8,12.1l5.8,3.5c0.2,0.1,0.4,0.3,0.5,0.4c0.1,0.1,0.2,0.3,0.3,0.6c0,0.3,0,0.6,0,1.1
		c-0.1,0.4-0.2,1-0.3,1.7c-0.2,0.8-0.3,1.4-0.5,1.8c-0.2,0.4-0.3,0.7-0.6,0.8c-0.2,0.1-0.5,0.1-0.9,0c-0.3-0.1-0.8-0.4-1.3-0.7
		l-26.3-16.5c-0.3-0.2-0.5-0.3-0.6-0.5c-0.1-0.2-0.2-0.4-0.3-0.7c0-0.3,0-0.7,0.1-1.3c0.1-0.5,0.2-1.2,0.4-2c0.2-1,0.4-1.8,0.6-2.3
		c0.2-0.6,0.3-1,0.5-1.3c0.2-0.3,0.4-0.5,0.6-0.6c0.2-0.1,0.5-0.2,0.8-0.2L63.6,193.5L63.6,193.5z M36.5,202.8L36.5,202.8l12.6,7.7
		l2.1-9L36.5,202.8L36.5,202.8z M86.7,165.7c0.2,0.1,0.3,0.2,0.3,0.3c0.1,0.1,0.1,0.3,0.1,0.5c0,0.2-0.1,0.5-0.2,0.9
		c-0.1,0.4-0.3,0.8-0.5,1.3c-0.2,0.5-0.4,1-0.6,1.3c-0.2,0.3-0.4,0.6-0.5,0.7c-0.2,0.2-0.3,0.3-0.5,0.3c-0.2,0-0.3,0-0.5-0.1
		l-7.1-3.2l-9,19.9c-0.2,0.5-0.6,0.9-1.1,1.1c-0.5,0.2-1,0.1-1.7-0.2l-27.4-12.4c-0.2-0.1-0.3-0.2-0.3-0.3c-0.1-0.2-0.1-0.4-0.1-0.6
		c0-0.3,0.1-0.6,0.2-1c0.1-0.4,0.3-0.9,0.6-1.5c0.3-0.6,0.5-1.1,0.7-1.5c0.2-0.4,0.4-0.7,0.6-0.8c0.2-0.2,0.4-0.3,0.5-0.4
		c0.2,0,0.3,0,0.5,0l24.3,11l5-11.1l-24.3-11c-0.2-0.1-0.3-0.2-0.3-0.3c-0.1-0.2-0.1-0.4-0.1-0.6c0-0.3,0.1-0.6,0.2-1
		c0.1-0.4,0.3-0.9,0.6-1.5c0.3-0.6,0.5-1.1,0.7-1.5c0.2-0.4,0.4-0.7,0.6-0.8c0.2-0.2,0.4-0.3,0.5-0.4c0.2,0,0.3,0,0.5,0l24.3,11
		l1.2-2.6c0.2-0.4,0.4-0.6,0.6-0.7c0.2-0.1,0.6,0,1.1,0.2L86.7,165.7L86.7,165.7z M95.7,135.3c0.1,0.1,0.2,0.2,0.3,0.4
		c0,0.2,0,0.4,0,0.6c-0.1,0.3-0.2,0.6-0.4,1c-0.2,0.4-0.5,0.9-0.8,1.4c-0.3,0.5-0.7,1-0.9,1.3c-0.3,0.3-0.5,0.6-0.7,0.8
		c-0.2,0.2-0.4,0.3-0.6,0.3c-0.2,0-0.3,0-0.5-0.1l-14.7-9.4c-0.6-0.4-1.1-0.7-1.6-1.1c-0.5-0.4-1-0.7-1.4-1l0,0
		c0.1,0.2,0.3,0.5,0.4,0.9c0.2,0.3,0.3,0.7,0.5,1c0.2,0.4,0.4,0.8,0.5,1.2c0.2,0.4,0.4,0.8,0.5,1.2l8.2,18.9
		c0.1,0.2,0.1,0.4,0.2,0.6c0,0.2,0,0.4,0,0.7c-0.1,0.2-0.2,0.5-0.3,0.8c-0.2,0.3-0.4,0.7-0.7,1.1c-0.4,0.6-0.7,1-0.9,1.3
		c-0.3,0.3-0.5,0.6-0.7,0.7c-0.2,0.2-0.4,0.2-0.5,0.2c-0.2,0-0.3-0.1-0.5-0.2L54.8,141c-0.1-0.1-0.2-0.2-0.3-0.4c0-0.2,0-0.4,0-0.6
		c0.1-0.3,0.2-0.6,0.4-1c0.2-0.4,0.5-0.8,0.8-1.4c0.4-0.5,0.7-1,0.9-1.3c0.3-0.3,0.5-0.6,0.7-0.8c0.2-0.2,0.4-0.3,0.6-0.3
		c0.2,0,0.3,0,0.5,0.1l14.7,9.5c0.5,0.3,0.9,0.6,1.4,1c0.5,0.3,1,0.7,1.5,1l0,0c-0.3-0.5-0.6-1.2-0.9-1.9c-0.4-0.8-0.7-1.5-1-2.3
		l-8.2-18.9c-0.1-0.2-0.1-0.4-0.2-0.6c0-0.2,0-0.4,0-0.6c0.1-0.2,0.2-0.5,0.3-0.8c0.2-0.3,0.4-0.7,0.7-1.1c0.3-0.5,0.6-1,0.9-1.3
		c0.3-0.3,0.5-0.5,0.7-0.7c0.2-0.2,0.4-0.2,0.5-0.2c0.2,0,0.3,0,0.5,0.1L95.7,135.3L95.7,135.3z M115.9,112.9
		c0.1,0.1,0.2,0.3,0.2,0.4c0,0.2,0,0.4-0.1,0.6c-0.1,0.2-0.3,0.5-0.6,0.9c-0.3,0.3-0.6,0.7-1.1,1.2c-0.5,0.5-0.8,0.9-1.2,1.1
		c-0.3,0.3-0.6,0.5-0.8,0.6c-0.2,0.1-0.5,0.2-0.6,0.2c-0.2,0-0.3-0.1-0.4-0.2l-8.9-8.5l-1.7,1.8c-0.7,0.7-1.2,1.4-1.4,1.9
		c-0.2,0.5-0.3,1.1-0.3,1.7c0,0.6,0.2,1.2,0.4,1.9c0.2,0.7,0.6,1.4,1,2.2l3.4,6.7c0.1,0.2,0.1,0.4,0.1,0.6c0,0.2-0.1,0.4-0.2,0.7
		c-0.1,0.3-0.3,0.6-0.6,0.9c-0.3,0.4-0.7,0.8-1.2,1.3c-0.5,0.6-1,1-1.3,1.3c-0.4,0.3-0.6,0.5-0.9,0.6c-0.2,0.1-0.4,0.1-0.5,0.1
		c-0.1,0-0.3-0.1-0.3-0.2c-0.1-0.1-0.3-0.3-0.4-0.5c-0.1-0.2-0.3-0.6-0.5-1l-3-6.3c-0.4-0.8-0.7-1.6-0.9-2.3c-0.2-0.7-0.4-1.3-0.4-2
		c-0.1-0.6-0.1-1.3,0-1.8c0.1-0.6,0.2-1.1,0.5-1.7c-0.9,0.6-1.8,1-2.7,1.2c-0.9,0.3-1.8,0.4-2.6,0.3c-0.9-0.1-1.7-0.3-2.5-0.7
		c-0.8-0.4-1.6-1-2.4-1.7c-1.1-1-1.9-2.2-2.4-3.4c-0.5-1.2-0.7-2.5-0.6-3.8c0.1-1.3,0.5-2.7,1.2-4.1c0.7-1.4,2-3.1,3.9-5.1l5.6-5.9
		c0.4-0.4,0.8-0.6,1.3-0.7c0.5,0,1,0.2,1.6,0.7L115.9,112.9L115.9,112.9z M91.8,99.1l-2.4,2.5c-1,1-1.7,1.9-2,2.6
		c-0.3,0.7-0.5,1.3-0.5,1.9c0,0.6,0.1,1.2,0.4,1.8c0.3,0.5,0.7,1.1,1.2,1.6c0.5,0.5,1,0.8,1.6,1.1c0.6,0.2,1.2,0.3,1.8,0.3
		c0.6,0,1.3-0.2,2-0.6c0.7-0.4,1.5-1,2.4-2l2.5-2.6L91.8,99.1L91.8,99.1z M195.3,65.2c0.1,0.2,0.1,0.3,0,0.5c0,0.2-0.2,0.3-0.4,0.5
		c-0.2,0.2-0.5,0.3-0.8,0.5c-0.4,0.2-0.8,0.4-1.4,0.6c-0.6,0.2-1.1,0.4-1.5,0.5c-0.4,0.1-0.7,0.2-1,0.2c-0.3,0-0.5,0-0.6-0.1
		c-0.1-0.1-0.3-0.2-0.3-0.4l-9.9-25l0,0l1,28.5c0,0.2,0,0.4-0.1,0.6c-0.1,0.2-0.2,0.4-0.5,0.6c-0.2,0.2-0.5,0.4-0.9,0.5
		c-0.4,0.2-0.8,0.4-1.4,0.6c-0.5,0.2-1,0.4-1.4,0.5c-0.4,0.1-0.7,0.2-1,0.2c-0.3,0-0.5,0-0.7-0.1c-0.2-0.1-0.3-0.2-0.5-0.3L155.6,52
		l0,0l9.9,25c0.1,0.2,0.1,0.3,0,0.5c0,0.2-0.2,0.3-0.4,0.5c-0.2,0.2-0.5,0.4-0.9,0.6c-0.4,0.2-0.8,0.4-1.4,0.6
		c-0.6,0.2-1.1,0.4-1.5,0.5c-0.4,0.1-0.7,0.2-1,0.2c-0.3,0-0.5,0-0.6-0.1c-0.1-0.1-0.2-0.2-0.3-0.4L148.7,52
		c-0.3-0.8-0.4-1.5-0.1-2.1c0.3-0.6,0.7-1,1.5-1.3l4.1-1.6c0.7-0.3,1.4-0.5,1.9-0.6c0.6-0.1,1.1-0.1,1.6,0.1
		c0.5,0.1,0.9,0.4,1.4,0.7c0.4,0.4,0.9,0.8,1.3,1.4l13.8,15.7l0.1,0l-0.3-21c-0.1-0.7-0.1-1.4,0-2c0.1-0.6,0.2-1,0.4-1.4
		c0.2-0.4,0.5-0.8,0.9-1.1c0.4-0.3,0.9-0.6,1.5-0.8l4.2-1.7c0.4-0.2,0.8-0.3,1.2-0.3c0.3,0,0.7,0,1,0.2c0.3,0.1,0.5,0.3,0.8,0.6
		c0.2,0.3,0.4,0.6,0.6,1L195.3,65.2L195.3,65.2z M221.1,57.6c0.1,0.5,0.2,0.9,0.2,1.2c0,0.3,0,0.6,0,0.8c0,0.2-0.1,0.4-0.2,0.5
		c-0.1,0.1-0.2,0.2-0.4,0.2l-16.1,3.7c-0.5,0.1-1,0.1-1.5-0.2c-0.4-0.2-0.8-0.7-0.9-1.4l-6.5-28.1c-0.2-0.7-0.1-1.3,0.2-1.7
		c0.3-0.4,0.7-0.7,1.3-0.8l16.1-3.7c0.1,0,0.3,0,0.4,0c0.1,0.1,0.3,0.2,0.4,0.4c0.1,0.2,0.3,0.4,0.4,0.8c0.1,0.3,0.2,0.7,0.3,1.2
		c0.1,0.5,0.2,0.9,0.2,1.2c0,0.3,0,0.6,0,0.8c0,0.2-0.1,0.4-0.2,0.5c-0.1,0.1-0.2,0.2-0.4,0.2L203,36l1.8,7.8l9.7-2.2
		c0.2,0,0.3,0,0.4,0c0.1,0.1,0.3,0.2,0.4,0.4c0.1,0.2,0.2,0.4,0.4,0.7c0.1,0.3,0.2,0.7,0.3,1.2c0.1,0.5,0.2,0.9,0.2,1.2
		c0,0.3,0,0.6,0,0.8c0,0.2-0.1,0.4-0.2,0.5c-0.1,0.1-0.2,0.2-0.4,0.2l-9.7,2.2l2.1,9.1l11.6-2.7c0.2,0,0.3,0,0.4,0
		c0.1,0.1,0.3,0.2,0.4,0.4c0.1,0.2,0.3,0.4,0.4,0.7C220.9,56.7,221,57.1,221.1,57.6L221.1,57.6z M258.4,64.9c0,0.2,0,0.3-0.1,0.4
		c-0.1,0.1-0.2,0.2-0.4,0.3c-0.2,0.1-0.5,0.2-0.9,0.2c-0.4,0.1-0.9,0.1-1.4,0.2c-0.6,0-1,0.1-1.4,0c-0.4,0-0.7-0.1-0.9-0.1
		c-0.2-0.1-0.4-0.1-0.5-0.3c-0.1-0.1-0.2-0.3-0.2-0.4l-0.6-7.7L230,59.2l0.6,7.7c0,0.2,0,0.3-0.1,0.4c-0.1,0.1-0.2,0.2-0.5,0.3
		c-0.2,0.1-0.5,0.2-0.9,0.3c-0.4,0.1-0.8,0.1-1.4,0.2c-0.6,0-1.1,0.1-1.4,0c-0.4,0-0.7-0.1-0.9-0.1c-0.2-0.1-0.4-0.1-0.5-0.3
		c-0.1-0.1-0.2-0.3-0.2-0.4l-0.9-11.8c-0.1-0.5,0-0.8,0.2-1.1c0.2-0.2,0.5-0.4,0.9-0.4l1.5-0.1c0.4-0.6,0.7-1.2,1-1.9
		c0.3-0.6,0.6-1.4,0.9-2.3c0.3-0.9,0.5-1.9,0.8-3.1c0.2-1.2,0.5-2.6,0.6-4.3c0.2-1.7,0.4-3.7,0.5-6c0.2-2.3,0.3-5,0.4-8.2
		c0-0.8,0.2-1.3,0.5-1.7c0.3-0.4,0.7-0.6,1.3-0.6l16.8-1.3c0.6,0,1.1,0.1,1.4,0.4c0.4,0.3,0.6,0.8,0.6,1.5l1.9,25.3l2.8-0.2
		c0.5,0,0.8,0.1,1,0.3c0.2,0.2,0.3,0.6,0.4,1L258.4,64.9L258.4,64.9z M245,30.4l-7.7,0.6c-0.1,2.6-0.2,4.9-0.4,6.9
		c-0.1,2-0.3,3.7-0.5,5.2c-0.2,1.5-0.4,2.8-0.6,3.9c-0.2,1.1-0.5,2-0.7,2.8c-0.3,0.8-0.5,1.5-0.8,2.1c-0.3,0.6-0.6,1.1-0.9,1.6
		l13.4-1L245,30.4L245,30.4z"/>
	<path class="st1" d="M289.3,60.1c0,0.2-0.1,0.3-0.2,0.4c-0.1,0.1-0.3,0.2-0.6,0.3c-0.3,0-0.6,0.1-1.1,0.1c-0.4,0-1-0.1-1.6-0.1
		c-0.6-0.1-1.2-0.2-1.6-0.3c-0.4-0.1-0.8-0.2-1-0.3c-0.2-0.1-0.4-0.2-0.5-0.4c-0.1-0.1-0.1-0.3-0.1-0.5l2.2-17.3
		c0.1-0.7,0.2-1.3,0.3-1.9c0.1-0.6,0.2-1.2,0.3-1.7l-0.1,0c-0.2,0.2-0.4,0.5-0.6,0.8s-0.5,0.6-0.7,0.9c-0.3,0.3-0.5,0.6-0.8,1
		c-0.3,0.3-0.6,0.7-0.8,1l-13.5,15.5c-0.2,0.2-0.3,0.3-0.5,0.4c-0.2,0.1-0.4,0.2-0.6,0.2c-0.2,0-0.5,0.1-0.8,0.1
		c-0.3,0-0.8-0.1-1.3-0.1c-0.7-0.1-1.2-0.2-1.6-0.3c-0.4-0.1-0.7-0.2-0.9-0.3c-0.2-0.1-0.4-0.2-0.4-0.4c-0.1-0.1-0.1-0.3-0.1-0.5
		l3.9-31c0-0.2,0.1-0.3,0.2-0.4s0.3-0.2,0.6-0.2c0.3,0,0.6-0.1,1.1-0.1c0.4,0,1,0.1,1.6,0.1c0.6,0.1,1.2,0.2,1.6,0.3
		c0.4,0.1,0.7,0.2,1,0.3c0.2,0.1,0.4,0.2,0.5,0.4c0.1,0.1,0.1,0.3,0.1,0.5l-2.2,17.4c-0.1,0.5-0.2,1.1-0.2,1.7
		c-0.1,0.6-0.2,1.2-0.3,1.8l0.1,0c0.4-0.5,0.8-1,1.3-1.7c0.5-0.7,1.1-1.3,1.6-1.9l13.6-15.5c0.1-0.1,0.3-0.3,0.4-0.4
		s0.3-0.2,0.6-0.3c0.2,0,0.5-0.1,0.9-0.1c0.3,0,0.8,0,1.3,0.1c0.6,0.1,1.2,0.2,1.5,0.3c0.4,0.1,0.7,0.2,0.9,0.3
		c0.2,0.1,0.4,0.2,0.5,0.4s0.1,0.3,0.1,0.5L289.3,60.1L289.3,60.1z M322.7,77.9c0,0.2-0.1,0.3-0.2,0.4c-0.1,0.1-0.3,0.1-0.5,0.2
		c-0.2,0-0.5,0-0.9-0.1s-0.8-0.2-1.4-0.3c-0.6-0.2-1-0.3-1.4-0.4c-0.3-0.1-0.6-0.3-0.8-0.4c-0.2-0.1-0.3-0.3-0.4-0.4
		c-0.1-0.1-0.1-0.3,0-0.5l2.1-7.5l-21-6c-0.6-0.2-1-0.5-1.2-0.9c-0.2-0.4-0.3-1-0.1-1.7l8.2-28.9c0-0.2,0.1-0.3,0.3-0.4
		c0.1-0.1,0.3-0.1,0.6-0.2c0.3,0,0.6,0,1,0.1c0.4,0.1,1,0.2,1.6,0.4c0.6,0.2,1.2,0.3,1.5,0.5c0.4,0.2,0.7,0.3,0.9,0.5
		c0.2,0.2,0.4,0.3,0.4,0.5c0.1,0.2,0.1,0.3,0,0.5l-7.3,25.6l11.8,3.3l7.3-25.6c0-0.2,0.1-0.3,0.3-0.4c0.1-0.1,0.3-0.1,0.6-0.2
		c0.3,0,0.6,0,1,0.1c0.4,0.1,1,0.2,1.6,0.4c0.6,0.2,1.2,0.3,1.5,0.5c0.4,0.2,0.7,0.3,0.9,0.5c0.2,0.2,0.4,0.3,0.4,0.5
		c0.1,0.2,0.1,0.3,0,0.5L322.5,64l2.8,0.8c0.4,0.1,0.7,0.3,0.8,0.5c0.1,0.2,0.1,0.6-0.1,1.1L322.7,77.9L322.7,77.9z M353.5,84
		c-0.1,0.1-0.2,0.3-0.3,0.3c-0.2,0.1-0.4,0.1-0.6,0c-0.3,0-0.6-0.1-1-0.3s-0.9-0.4-1.5-0.7c-0.6-0.3-1-0.6-1.4-0.8
		c-0.4-0.2-0.6-0.5-0.8-0.6c-0.2-0.2-0.3-0.4-0.3-0.5c0-0.2,0-0.3,0.1-0.5l7.9-15.5c0.3-0.6,0.6-1.2,0.9-1.7
		c0.3-0.6,0.6-1.1,0.8-1.5l0,0c-0.2,0.1-0.5,0.3-0.8,0.5c-0.3,0.2-0.6,0.4-1,0.6c-0.4,0.2-0.7,0.4-1.1,0.6c-0.4,0.2-0.8,0.4-1.1,0.6
		l-18,10c-0.2,0.1-0.4,0.2-0.6,0.2c-0.2,0.1-0.4,0.1-0.7,0c-0.2,0-0.5-0.1-0.8-0.2c-0.3-0.1-0.7-0.3-1.2-0.6
		c-0.6-0.3-1.1-0.6-1.4-0.8c-0.3-0.2-0.6-0.4-0.8-0.6c-0.2-0.2-0.3-0.4-0.3-0.5c0-0.2,0-0.3,0.1-0.5l14.2-27.8
		c0.1-0.1,0.2-0.3,0.3-0.3c0.2-0.1,0.4-0.1,0.6,0c0.3,0,0.6,0.1,1,0.3c0.4,0.2,0.9,0.4,1.5,0.7c0.6,0.3,1.1,0.6,1.4,0.8
		c0.4,0.2,0.6,0.5,0.8,0.6c0.2,0.2,0.3,0.4,0.3,0.5c0,0.2,0,0.3-0.1,0.5l-8,15.6c-0.2,0.5-0.5,1-0.8,1.5c-0.3,0.5-0.6,1.1-0.9,1.6
		l0,0c0.5-0.3,1.1-0.7,1.8-1.1c0.7-0.4,1.4-0.8,2.2-1.2l18-10c0.2-0.1,0.4-0.2,0.5-0.2c0.2-0.1,0.4-0.1,0.6,0c0.2,0,0.5,0.1,0.8,0.2
		c0.3,0.1,0.7,0.3,1.2,0.5c0.6,0.3,1,0.5,1.4,0.8c0.3,0.2,0.6,0.4,0.8,0.6c0.2,0.2,0.3,0.4,0.3,0.5c0,0.2,0,0.3-0.1,0.5L353.5,84
		L353.5,84z M380.7,102.8c-0.1,0.1-0.2,0.2-0.4,0.3c-0.2,0-0.4,0-0.6,0c-0.3-0.1-0.6-0.2-0.9-0.4c-0.4-0.2-0.8-0.5-1.3-0.9
		c-0.5-0.4-1-0.7-1.3-1c-0.3-0.3-0.6-0.5-0.7-0.8c-0.1-0.2-0.2-0.4-0.2-0.6c0-0.2,0-0.3,0.1-0.5L383,88l-10.1-7.2l-7.7,10.9
		c-0.1,0.1-0.2,0.2-0.4,0.3c-0.2,0.1-0.4,0-0.6,0c-0.3-0.1-0.6-0.2-0.9-0.4c-0.4-0.2-0.8-0.5-1.4-0.9c-0.5-0.4-1-0.7-1.3-1
		c-0.3-0.3-0.6-0.5-0.7-0.8c-0.2-0.2-0.2-0.4-0.3-0.6c0-0.2,0-0.3,0.1-0.5l18.1-25.4c0.1-0.1,0.2-0.2,0.4-0.3c0.2,0,0.4,0,0.6,0
		c0.3,0.1,0.6,0.2,1,0.4c0.4,0.2,0.8,0.5,1.4,0.9c0.5,0.4,1,0.7,1.3,1c0.3,0.3,0.6,0.5,0.7,0.8c0.2,0.2,0.2,0.4,0.2,0.6
		c0,0.2,0,0.3-0.1,0.5l-7,9.9l10.1,7.2l7-9.9c0.1-0.1,0.2-0.2,0.4-0.3c0.2,0,0.4,0,0.6,0c0.3,0.1,0.6,0.2,0.9,0.4
		c0.4,0.2,0.8,0.5,1.4,0.9c0.5,0.4,0.9,0.7,1.3,1c0.3,0.3,0.6,0.5,0.7,0.8c0.2,0.2,0.2,0.4,0.3,0.6c0,0.2,0,0.3-0.1,0.5L380.7,102.8
		L380.7,102.8z M405,121.5c-0.3,0.3-0.6,0.5-0.8,0.7c-0.2,0.2-0.5,0.3-0.6,0.4c-0.2,0.1-0.4,0.2-0.5,0.2c-0.2,0-0.4,0.1-0.7,0.1
		c-0.3,0-0.7-0.1-1.3-0.3c-0.6-0.2-1.3-0.5-2-0.8c-0.7-0.4-1.5-0.8-2.3-1.4c-0.8-0.6-1.6-1.3-2.4-2.1c-1.6-1.6-2.7-3.3-3.5-5.1
		c-0.8-1.8-1.1-3.6-0.9-5.5c0.1-1.9,0.7-3.8,1.7-5.7c1-1.9,2.5-3.8,4.5-5.7c2-1.9,4.1-3.4,6.2-4.3c2.1-1,4.1-1.5,6.1-1.5
		c2-0.1,3.9,0.3,5.8,1.2c1.8,0.8,3.6,2.1,5.1,3.7c0.6,0.7,1.2,1.4,1.7,2.1c0.5,0.7,0.9,1.4,1.2,2.1c0.3,0.7,0.6,1.4,0.7,2
		c0.2,0.6,0.2,1.1,0.2,1.5c0,0.3,0,0.6-0.1,0.7c-0.1,0.2-0.1,0.4-0.3,0.5c-0.1,0.2-0.3,0.4-0.5,0.7s-0.5,0.5-0.8,0.8
		c-0.4,0.3-0.7,0.6-1,0.9c-0.3,0.2-0.5,0.4-0.7,0.5c-0.2,0.1-0.4,0.1-0.6,0.1c-0.2,0-0.3-0.1-0.4-0.2c-0.2-0.2-0.3-0.5-0.3-1
		c-0.1-0.5-0.2-1.1-0.3-1.8s-0.4-1.5-0.8-2.3c-0.4-0.8-1-1.7-1.8-2.5c-0.9-0.9-1.9-1.6-3-2c-1.1-0.4-2.2-0.5-3.5-0.3
		c-1.2,0.2-2.5,0.6-3.8,1.3c-1.3,0.7-2.6,1.7-3.8,2.9c-1.4,1.3-2.5,2.6-3.2,3.9c-0.7,1.3-1.2,2.5-1.4,3.7c-0.2,1.2,0,2.3,0.4,3.3
		c0.4,1.1,1,2.1,1.9,3c0.8,0.9,1.6,1.5,2.4,1.9c0.8,0.4,1.5,0.8,2.2,1c0.7,0.2,1.2,0.4,1.7,0.5c0.5,0.1,0.8,0.2,0.9,0.4
		c0.1,0.1,0.2,0.2,0.2,0.4c0,0.1,0,0.3-0.1,0.5c-0.1,0.2-0.3,0.4-0.5,0.7C405.7,120.7,405.4,121.1,405,121.5L405,121.5z
		 M419.7,147.8c-0.1,0.1-0.3,0.2-0.5,0.1c-0.2,0-0.4-0.1-0.6-0.3c-0.2-0.2-0.5-0.4-0.8-0.8c-0.3-0.3-0.6-0.8-1-1.4
		c-0.4-0.6-0.8-1.1-1-1.5c-0.2-0.4-0.4-0.7-0.5-1c-0.1-0.3-0.1-0.5,0-0.7c0.1-0.2,0.2-0.4,0.3-0.6l4.5-6.4c0.7-0.9,1.2-1.8,1.5-2.5
		c0.4-0.8,0.6-1.5,0.7-2.1c0.1-0.7,0-1.3-0.2-1.9c-0.2-0.6-0.5-1.3-1-1.9l-0.9-1.2l-10.8,7.7c-0.1,0.1-0.3,0.2-0.5,0.1
		c-0.2,0-0.4-0.1-0.6-0.2c-0.2-0.2-0.5-0.4-0.8-0.7c-0.3-0.3-0.6-0.8-1-1.3c-0.4-0.5-0.7-1-0.9-1.4c-0.2-0.4-0.4-0.7-0.4-1
		c-0.1-0.3-0.1-0.5,0-0.6c0-0.2,0.1-0.3,0.3-0.4l25.4-18.1c0.1-0.1,0.3-0.2,0.5-0.1c0.2,0,0.4,0.1,0.6,0.3c0.2,0.2,0.5,0.4,0.8,0.7
		c0.3,0.3,0.6,0.8,1,1.3c0.4,0.5,0.7,1,0.9,1.4c0.2,0.4,0.4,0.7,0.4,0.9c0.1,0.3,0.1,0.5,0,0.6c0,0.2-0.1,0.3-0.3,0.4l-10.1,7.2
		l0.9,1.2c0.4,0.6,0.9,1.1,1.4,1.5c0.5,0.4,1.1,0.6,1.7,0.7c0.6,0.1,1.3,0.1,2.1,0c0.8-0.1,1.7-0.3,2.8-0.6l6.6-2
		c0.2-0.1,0.5-0.1,0.7-0.1c0.2,0,0.4,0.1,0.6,0.2c0.2,0.2,0.5,0.4,0.8,0.7c0.3,0.3,0.6,0.8,1.1,1.4c0.4,0.5,0.7,1,0.9,1.4
		c0.2,0.4,0.4,0.7,0.4,0.9c0.1,0.3,0.1,0.4,0,0.6c-0.1,0.1-0.2,0.3-0.3,0.4c-0.2,0.1-0.4,0.3-0.7,0.4c-0.3,0.1-0.7,0.3-1.3,0.4
		l-6.1,1.6c-1.1,0.3-2.1,0.5-3,0.6c-0.9,0.1-1.6,0.1-2.3,0.1c-0.7,0-1.3-0.2-1.9-0.4c-0.6-0.2-1.1-0.5-1.7-0.9l0,0
		c0.2,0.7,0.2,1.4,0.3,2.1c0,0.7-0.1,1.4-0.2,2.1c-0.2,0.7-0.5,1.5-0.9,2.3c-0.4,0.8-1,1.8-1.7,2.8l-4,6.2c-0.4,0.6-0.7,1-0.9,1.2
		C420,147.6,419.8,147.7,419.7,147.8L419.7,147.8z M434.9,175.9c-0.1,0.1-0.3,0.1-0.5,0.1c-0.2,0-0.3-0.2-0.5-0.3
		c-0.2-0.2-0.4-0.5-0.6-0.8c-0.2-0.4-0.5-0.8-0.8-1.4c-0.3-0.6-0.5-1.1-0.7-1.5c-0.2-0.4-0.3-0.7-0.3-1c0-0.3,0-0.5,0-0.6
		c0.1-0.2,0.2-0.3,0.3-0.3l15.5-7.9c0.6-0.3,1.2-0.6,1.7-0.9c0.6-0.3,1.1-0.5,1.5-0.7l0,0c-0.3,0-0.6,0-1-0.1
		c-0.4,0-0.8-0.1-1.2-0.1c-0.4,0-0.8-0.1-1.3-0.1c-0.4,0-0.9-0.1-1.3-0.2l-20.5-2.4c-0.2,0-0.4-0.1-0.6-0.2
		c-0.2-0.1-0.4-0.2-0.5-0.4c-0.2-0.2-0.3-0.4-0.5-0.7c-0.2-0.3-0.4-0.7-0.6-1.1c-0.3-0.6-0.5-1.1-0.7-1.5c-0.1-0.4-0.2-0.7-0.3-0.9
		c0-0.2,0-0.4,0.1-0.6c0.1-0.1,0.2-0.3,0.4-0.3l27.8-14.2c0.1-0.1,0.3-0.1,0.5-0.1c0.2,0,0.3,0.2,0.5,0.3c0.2,0.2,0.4,0.5,0.6,0.8
		c0.2,0.4,0.5,0.8,0.8,1.4c0.3,0.6,0.5,1.1,0.7,1.5c0.2,0.4,0.2,0.7,0.3,1c0,0.3,0,0.5,0,0.6c-0.1,0.2-0.2,0.3-0.3,0.3l-15.6,8
		c-0.5,0.2-1,0.5-1.6,0.8c-0.6,0.3-1.1,0.5-1.6,0.7l0,0c0.6,0,1.3,0.1,2.1,0.1c0.8,0.1,1.7,0.2,2.5,0.3l20.5,2.4
		c0.2,0,0.4,0.1,0.6,0.1c0.2,0.1,0.4,0.2,0.5,0.3c0.2,0.2,0.4,0.4,0.5,0.7c0.2,0.3,0.4,0.7,0.6,1.1c0.3,0.6,0.5,1,0.7,1.4
		c0.1,0.4,0.2,0.7,0.3,0.9c0,0.2,0,0.4-0.1,0.6c-0.1,0.1-0.2,0.3-0.4,0.3L434.9,175.9L434.9,175.9z M446.6,204.6
		c-0.5,0.5-0.9,0.8-1.2,1c-0.3,0.2-0.6,0.2-0.8,0.1c-0.2-0.1-0.5-0.4-0.7-0.9c-0.2-0.5-0.5-1.2-0.8-2.1c-0.3-0.8-0.4-1.4-0.6-1.8
		c-0.1-0.4-0.2-0.8-0.2-1.1c0-0.3,0-0.5,0.1-0.6c0.1-0.2,0.2-0.3,0.4-0.5l9.3-9.7l-13.3-2c-0.2,0-0.4-0.1-0.6-0.2
		c-0.2-0.1-0.3-0.2-0.5-0.4c-0.2-0.2-0.3-0.6-0.5-1c-0.2-0.4-0.4-1-0.6-1.7c-0.3-0.8-0.5-1.5-0.6-2c-0.1-0.5-0.1-0.8,0-1
		c0.1-0.2,0.4-0.3,0.7-0.4c0.4,0,0.9,0,1.6,0.1l16.2,2.9l10.5-11.3c0.5-0.5,0.9-0.8,1.2-1.1c0.3-0.2,0.6-0.3,0.8-0.1
		c0.2,0.1,0.5,0.4,0.7,0.9c0.2,0.5,0.5,1.2,0.8,2.1c0.3,0.8,0.4,1.4,0.6,1.8c0.1,0.5,0.2,0.8,0.2,1.1c0,0.3,0,0.5-0.1,0.6
		c-0.1,0.1-0.2,0.3-0.4,0.5l-8.5,9l12.2,1.8c0.2,0,0.4,0.1,0.6,0.1c0.2,0.1,0.3,0.2,0.5,0.4c0.2,0.2,0.3,0.5,0.5,0.9
		c0.2,0.4,0.4,1,0.6,1.7c0.3,0.8,0.5,1.4,0.6,1.9c0.1,0.5,0.1,0.8,0,1.1c-0.1,0.2-0.4,0.4-0.7,0.4c-0.4,0-0.9,0-1.6-0.1l-15.1-2.6
		L446.6,204.6L446.6,204.6z M453.3,280.7c-0.4,0-0.8-0.1-1.1-0.1c-0.3,0-0.6-0.1-0.8-0.2c-0.2-0.1-0.4-0.1-0.5-0.2
		c-0.1-0.1-0.3-0.2-0.5-0.4c-0.2-0.2-0.4-0.6-0.7-1.1c-0.3-0.6-0.5-1.2-0.7-2c-0.2-0.8-0.4-1.7-0.5-2.7c-0.1-1-0.1-2.1,0-3.2
		c0.2-2.2,0.7-4.3,1.5-6c0.8-1.8,2-3.2,3.5-4.4c1.5-1.2,3.3-2,5.4-2.5c2.1-0.5,4.5-0.7,7.3-0.5c2.8,0.2,5.3,0.8,7.4,1.7
		c2.1,0.9,3.9,2.1,5.2,3.5c1.4,1.4,2.4,3.1,3,5.1c0.6,1.9,0.8,4,0.7,6.3c-0.1,0.9-0.2,1.8-0.4,2.6c-0.2,0.8-0.5,1.6-0.8,2.3
		c-0.3,0.7-0.6,1.3-1,1.9c-0.4,0.5-0.7,0.9-0.9,1.1c-0.3,0.2-0.5,0.3-0.6,0.4c-0.2,0.1-0.4,0.1-0.6,0.2c-0.2,0-0.5,0.1-0.9,0.1
		c-0.3,0-0.7,0-1.2-0.1c-0.5,0-0.9-0.1-1.3-0.2c-0.4-0.1-0.6-0.1-0.8-0.2c-0.2-0.1-0.4-0.2-0.5-0.3c-0.1-0.1-0.1-0.3-0.1-0.4
		c0-0.3,0.2-0.6,0.5-0.9c0.3-0.4,0.7-0.8,1.1-1.4s0.8-1.3,1.2-2.1c0.4-0.8,0.6-1.8,0.7-3c0.1-1.3-0.1-2.5-0.5-3.6
		c-0.5-1.1-1.1-2-2.1-2.8c-0.9-0.8-2.1-1.4-3.5-1.9c-1.4-0.5-2.9-0.8-4.7-0.9c-1.9-0.1-3.6-0.1-5.1,0.2c-1.4,0.3-2.7,0.8-3.6,1.4
		c-1,0.7-1.7,1.5-2.2,2.5c-0.5,1-0.8,2.2-0.9,3.5c-0.1,1.2,0,2.2,0.2,3.1c0.2,0.9,0.5,1.6,0.8,2.3c0.3,0.7,0.6,1.2,0.8,1.6
		c0.2,0.4,0.4,0.7,0.3,1c0,0.2-0.1,0.3-0.1,0.4c-0.1,0.1-0.2,0.2-0.4,0.2c-0.2,0-0.5,0.1-0.9,0.1
		C454.4,280.7,453.9,280.7,453.3,280.7L453.3,280.7z M446.5,304.7c-0.5-0.1-0.9-0.2-1.2-0.3c-0.3-0.1-0.6-0.2-0.8-0.3
		c-0.2-0.1-0.3-0.3-0.4-0.4c-0.1-0.1-0.1-0.3-0.1-0.4L447,287c0.1-0.5,0.3-1,0.7-1.3c0.4-0.3,1-0.4,1.7-0.3l28.3,5.1
		c0.7,0.1,1.2,0.4,1.5,0.9c0.3,0.4,0.3,0.9,0.2,1.5l-2.9,16.2c0,0.1-0.1,0.3-0.2,0.4c-0.1,0.1-0.3,0.2-0.5,0.2c-0.2,0-0.5,0.1-0.8,0
		c-0.3,0-0.8-0.1-1.3-0.2c-0.5-0.1-0.9-0.2-1.2-0.3c-0.3-0.1-0.6-0.2-0.8-0.3c-0.2-0.1-0.3-0.3-0.4-0.4c-0.1-0.1-0.1-0.3-0.1-0.4
		l2.1-11.6l-7.9-1.4l-1.7,9.8c0,0.2-0.1,0.3-0.2,0.4c-0.1,0.1-0.3,0.2-0.5,0.2c-0.2,0.1-0.5,0.1-0.8,0c-0.3,0-0.7-0.1-1.2-0.2
		c-0.5-0.1-0.9-0.2-1.2-0.3c-0.3-0.1-0.6-0.2-0.7-0.3c-0.2-0.1-0.3-0.2-0.4-0.4c-0.1-0.1-0.1-0.3-0.1-0.4l1.7-9.8l-9.2-1.6
		l-2.1,11.7c0,0.2-0.1,0.3-0.2,0.4c-0.1,0.1-0.3,0.2-0.5,0.2c-0.2,0.1-0.5,0.1-0.8,0C447.4,304.9,447,304.8,446.5,304.7L446.5,304.7
		z M439.6,332c-0.4-0.1-0.7-0.3-1-0.4c-0.3-0.1-0.5-0.2-0.7-0.4c-0.2-0.1-0.3-0.2-0.5-0.4c-0.1-0.1-0.2-0.3-0.4-0.6
		c-0.1-0.2-0.2-0.7-0.4-1.3c-0.1-0.6-0.2-1.3-0.2-2.1c0-0.8,0.1-1.7,0.2-2.7c0.1-1,0.4-2.1,0.8-3.1c0.7-2.1,1.7-4,2.9-5.5
		c1.2-1.5,2.7-2.6,4.4-3.4c1.7-0.8,3.7-1.1,5.9-1.1c2.2,0,4.6,0.5,7.2,1.4c2.7,0.9,4.9,2.1,6.7,3.5c1.8,1.4,3.2,3,4.2,4.7
		c1,1.7,1.5,3.6,1.6,5.7c0.1,2-0.2,4.1-0.9,6.2c-0.3,0.9-0.6,1.7-1.1,2.4c-0.4,0.8-0.9,1.4-1.3,2c-0.5,0.6-0.9,1.1-1.4,1.6
		c-0.5,0.4-0.9,0.7-1.2,0.9c-0.3,0.1-0.5,0.2-0.7,0.3c-0.2,0-0.4,0-0.6,0c-0.2,0-0.5-0.1-0.8-0.2c-0.3-0.1-0.7-0.2-1.1-0.3
		c-0.5-0.2-0.9-0.3-1.2-0.5c-0.3-0.1-0.6-0.3-0.8-0.4c-0.2-0.2-0.3-0.3-0.4-0.4c-0.1-0.1-0.1-0.3,0-0.4c0.1-0.2,0.3-0.5,0.7-0.8
		c0.4-0.3,0.9-0.6,1.4-1.1c0.5-0.5,1.1-1.1,1.7-1.8c0.6-0.7,1-1.6,1.4-2.8c0.4-1.2,0.5-2.4,0.4-3.6c-0.2-1.1-0.6-2.2-1.3-3.2
		c-0.7-1-1.7-1.9-2.9-2.7c-1.2-0.8-2.7-1.5-4.3-2.1c-1.8-0.6-3.5-1-5-1c-1.5-0.1-2.8,0.1-3.9,0.5c-1.1,0.4-2,1-2.8,1.9
		c-0.8,0.8-1.4,1.9-1.8,3.1c-0.4,1.1-0.6,2.1-0.6,3.1c0,0.9,0,1.7,0.2,2.4c0.1,0.7,0.2,1.3,0.4,1.7c0.1,0.5,0.2,0.8,0.1,1
		c-0.1,0.2-0.1,0.3-0.2,0.3c-0.1,0.1-0.3,0.1-0.5,0.1c-0.2,0-0.5,0-0.9-0.1C440.7,332.4,440.2,332.2,439.6,332L439.6,332z
		 M449.7,368.1c-0.4-0.2-0.8-0.4-1.1-0.6c-0.3-0.2-0.5-0.4-0.7-0.6c-0.2-0.2-0.2-0.3-0.3-0.5c0-0.2,0-0.3,0.1-0.4l3.8-7.3
		l-23.7-12.1c-0.1-0.1-0.3-0.2-0.3-0.4c-0.1-0.2-0.1-0.4,0-0.6c0-0.3,0.1-0.6,0.3-1c0.2-0.4,0.4-0.9,0.7-1.5s0.6-1,0.8-1.4
		c0.2-0.4,0.5-0.6,0.7-0.8c0.2-0.2,0.4-0.3,0.5-0.3c0.2,0,0.3,0,0.5,0.1l23.7,12.1l3.8-7.3c0.1-0.1,0.2-0.3,0.3-0.3
		c0.1-0.1,0.3-0.1,0.6-0.1c0.2,0,0.5,0.1,0.8,0.2c0.3,0.1,0.7,0.3,1.2,0.5c0.4,0.2,0.8,0.4,1.1,0.6c0.3,0.2,0.5,0.4,0.7,0.6
		c0.2,0.2,0.2,0.3,0.3,0.5c0,0.2,0,0.3-0.1,0.5l-10.6,20.7c-0.1,0.1-0.2,0.2-0.3,0.3c-0.1,0.1-0.3,0.1-0.6,0.1
		c-0.2,0-0.5-0.1-0.8-0.2C450.5,368.5,450.1,368.3,449.7,368.1L449.7,368.1z M411.5,375.2c-0.4-0.3-0.7-0.5-1-0.8
		c-0.2-0.2-0.4-0.4-0.5-0.6c-0.1-0.2-0.2-0.4-0.2-0.5c0-0.2,0-0.3,0.1-0.4l9.6-13.5c0.3-0.5,0.7-0.7,1.2-0.9c0.5-0.1,1,0,1.7,0.5
		l23.5,16.7c0.6,0.4,0.9,0.9,1,1.4s-0.1,1-0.4,1.4l-9.6,13.4c-0.1,0.1-0.2,0.2-0.3,0.3c-0.1,0-0.3,0-0.5,0c-0.2-0.1-0.5-0.2-0.8-0.3
		c-0.3-0.2-0.7-0.4-1.1-0.7c-0.4-0.3-0.7-0.5-1-0.8c-0.2-0.2-0.4-0.4-0.5-0.6c-0.1-0.2-0.2-0.4-0.2-0.5c0-0.2,0-0.3,0.1-0.4l6.8-9.6
		l-6.6-4.7l-5.8,8.1c-0.1,0.1-0.2,0.2-0.4,0.3c-0.2,0.1-0.3,0.1-0.5,0c-0.2,0-0.5-0.1-0.8-0.3c-0.3-0.2-0.6-0.4-1-0.6
		c-0.4-0.3-0.7-0.5-1-0.8c-0.2-0.2-0.4-0.4-0.5-0.6c-0.1-0.2-0.2-0.4-0.2-0.5c0-0.1,0-0.3,0.1-0.4l5.8-8.1l-7.6-5.4l-6.9,9.7
		c-0.1,0.1-0.2,0.2-0.4,0.3c-0.2,0.1-0.3,0.1-0.6,0c-0.2,0-0.5-0.2-0.8-0.3C412.3,375.7,411.9,375.5,411.5,375.2L411.5,375.2z"/>
	<path class="st1" d="M408.2,410.4c-1.4-1.2-2.5-2.5-3.2-3.9c-0.7-1.4-1.1-2.8-1.1-4.3c0-1.5,0.3-3,1-4.5c0.7-1.6,1.7-3.2,3.1-4.8
		l1.8-2.1l-8-6.9c-0.1-0.1-0.2-0.3-0.2-0.4c0-0.2,0-0.4,0.1-0.6c0.1-0.2,0.3-0.5,0.5-0.9c0.2-0.4,0.6-0.8,1-1.3
		c0.4-0.5,0.8-0.9,1.1-1.2c0.3-0.3,0.6-0.5,0.8-0.6c0.2-0.1,0.4-0.2,0.6-0.2c0.2,0,0.3,0.1,0.5,0.2l22.5,19.4c0.6,0.5,0.9,1.1,1,1.7
		c0,0.6-0.2,1.1-0.6,1.6l-5.1,5.9c-0.5,0.6-1,1.1-1.5,1.6c-0.5,0.5-1.2,1-2,1.7c-0.8,0.6-1.7,1.1-2.8,1.6c-1.1,0.4-2.1,0.6-3.2,0.7
		c-1.1,0-2.1-0.2-3.2-0.6C410.2,412,409.2,411.3,408.2,410.4L408.2,410.4z M412.4,404.8c0.9,0.8,1.7,1.2,2.6,1.4
		c0.8,0.2,1.6,0.2,2.2-0.1c0.7-0.2,1.2-0.5,1.7-1c0.5-0.4,1-0.9,1.4-1.5l1.9-2.2l-8.5-7.4l-2,2.3c-0.7,0.8-1.2,1.6-1.4,2.3
		c-0.3,0.7-0.3,1.5-0.2,2.1c0.1,0.7,0.3,1.4,0.7,2C411.2,403.6,411.8,404.3,412.4,404.8L412.4,404.8z"/>
	<path class="st2" d="M312.2,123.6c0,0-87.6-10.2-141.6,41.4c-54,51.6-65.4,123.6-58.8,155.4c6.6,31.8,51,64.2,104.4,52.8
		c53.4-11.4,136.8-51,154.8-96s20.4-115.2-1.2-131.4C348.2,129.6,312.2,123.6,312.2,123.6L312.2,123.6z"/>
	<path class="st3" d="M234.5,108c-59.7,47-106.6,116.5-99.8,178.8C149,417.3,360.2,338.1,378.4,218c14.2-94-83.8-92.3-137.9-63.2
		c-23.4,12.6-21.6,11.4-21.6,11.4c43.2-49.7,126.1-81,174.8-31.3c55.2,56.3,21,144.1-42.7,200.1c-51.9,45.6-181.5,90.8-235.3,27.4
		C38.6,271.4,126,156.5,234.5,108L234.5,108z"/>
	<polygon class="st3" points="208.1,321.9 257.9,321.9 281.3,172.2 231.5,172.2 208.1,321.9 	"/>
	<polygon class="st3" points="315.6,272 323.4,222.2 173.7,222.2 165.9,272 315.6,272 	"/>
	<path class="st1" d="M176.5,428c0,2.2-0.3,4.2-1,5.9c-0.7,1.7-1.7,3.1-3,4.3c-1.3,1.2-2.9,2-4.8,2.7c-1.9,0.6-4.2,0.9-6.8,0.9h-3.3
		v12.5c0,0.2-0.1,0.4-0.2,0.5c-0.1,0.2-0.4,0.3-0.7,0.4c-0.3,0.1-0.7,0.2-1.2,0.2c-0.5,0.1-1.1,0.1-1.9,0.1c-0.8,0-1.4,0-1.9-0.1
		c-0.5-0.1-0.9-0.1-1.2-0.2c-0.3-0.1-0.5-0.2-0.6-0.4c-0.1-0.2-0.2-0.4-0.2-0.5V419c0-1,0.2-1.7,0.7-2.1c0.5-0.5,1.1-0.7,2-0.7h9.2
		c0.9,0,1.8,0,2.7,0.1c0.8,0.1,1.8,0.2,3,0.5c1.2,0.2,2.4,0.7,3.6,1.3c1.2,0.6,2.2,1.4,3.1,2.4c0.8,1,1.5,2.1,1.9,3.4
		C176.3,425,176.5,426.4,176.5,428L176.5,428z M168.2,428.6c0-1.4-0.2-2.5-0.7-3.4c-0.5-0.9-1.1-1.6-1.8-2c-0.7-0.4-1.5-0.7-2.2-0.8
		c-0.8-0.1-1.6-0.2-2.4-0.2h-3.4v13.3h3.6c1.3,0,2.3-0.2,3.2-0.5c0.9-0.3,1.6-0.8,2.1-1.4c0.5-0.6,1-1.4,1.3-2.2
		C168.1,430.6,168.2,429.6,168.2,428.6L168.2,428.6z M217.9,435.3c0,3.2-0.4,6.2-1.2,8.7c-0.8,2.6-2,4.7-3.6,6.5
		c-1.6,1.8-3.6,3.2-5.9,4.1c-2.4,0.9-5.1,1.4-8.2,1.4c-3,0-5.7-0.4-8-1.2c-2.3-0.8-4.2-2-5.7-3.6c-1.5-1.6-2.6-3.7-3.4-6.2
		c-0.8-2.5-1.1-5.5-1.1-9c0-3.2,0.4-6,1.2-8.6s2-4.7,3.6-6.5c1.6-1.8,3.6-3.1,5.9-4.1c2.4-1,5.1-1.4,8.2-1.4c3,0,5.6,0.4,7.9,1.2
		c2.3,0.8,4.2,2,5.7,3.6c1.5,1.6,2.7,3.7,3.5,6.2C217.5,428.9,217.9,431.9,217.9,435.3L217.9,435.3z M209.6,435.7
		c0-2.1-0.2-3.9-0.5-5.6c-0.3-1.7-0.9-3.1-1.6-4.3c-0.8-1.2-1.8-2.1-3.1-2.8c-1.3-0.7-2.9-1-4.8-1c-2,0-3.6,0.4-4.9,1.1
		c-1.3,0.7-2.4,1.7-3.2,3c-0.8,1.2-1.4,2.7-1.7,4.3c-0.3,1.7-0.5,3.4-0.5,5.2c0,2.1,0.2,4.1,0.5,5.8c0.3,1.7,0.9,3.2,1.6,4.4
		c0.8,1.2,1.8,2.1,3.1,2.8c1.3,0.6,2.9,1,4.9,1c2,0,3.6-0.4,4.9-1.1c1.3-0.7,2.4-1.7,3.2-3s1.4-2.7,1.7-4.4
		C209.4,439.3,209.6,437.5,209.6,435.7L209.6,435.7z M251.8,449.4c0,0.5,0,0.9,0,1.3c0,0.4-0.1,0.7-0.1,0.9
		c-0.1,0.3-0.1,0.5-0.2,0.7c-0.1,0.2-0.3,0.4-0.5,0.6c-0.2,0.2-0.7,0.5-1.3,0.9c-0.6,0.4-1.4,0.7-2.3,1c-0.9,0.3-2,0.6-3.1,0.8
		c-1.2,0.2-2.5,0.3-3.8,0.3c-2.7,0-5.1-0.4-7.3-1.2c-2.2-0.8-4-2.1-5.5-3.7c-1.5-1.6-2.7-3.7-3.5-6.2c-0.8-2.5-1.2-5.3-1.2-8.6
		c0-3.3,0.4-6.3,1.3-8.9c0.9-2.6,2.1-4.8,3.7-6.5c1.6-1.8,3.5-3.1,5.7-4c2.2-0.9,4.7-1.4,7.4-1.4c1.1,0,2.1,0.1,3.1,0.3
		c1,0.2,1.9,0.4,2.8,0.7c0.9,0.3,1.6,0.6,2.3,1c0.7,0.4,1.2,0.7,1.4,1c0.3,0.3,0.5,0.5,0.6,0.7c0.1,0.2,0.2,0.4,0.2,0.7
		c0.1,0.3,0.1,0.6,0.1,1c0,0.4,0,0.8,0,1.4c0,0.6,0,1.1-0.1,1.5c0,0.4-0.1,0.8-0.2,1c-0.1,0.3-0.2,0.5-0.4,0.6
		c-0.1,0.1-0.3,0.2-0.5,0.2c-0.3,0-0.7-0.2-1.1-0.5c-0.5-0.4-1.1-0.7-1.8-1.2c-0.7-0.4-1.6-0.8-2.6-1.2c-1-0.4-2.2-0.5-3.6-0.5
		c-1.6,0-2.9,0.3-4.2,1c-1.2,0.6-2.3,1.5-3.1,2.7c-0.9,1.2-1.5,2.6-2,4.3c-0.4,1.7-0.7,3.6-0.7,5.7c0,2.3,0.2,4.3,0.7,6
		c0.5,1.7,1.1,3.1,2,4.2c0.9,1.1,1.9,1.9,3.2,2.4c1.2,0.5,2.6,0.8,4.2,0.8c1.4,0,2.6-0.2,3.7-0.5c1-0.3,1.9-0.7,2.6-1.1
		c0.7-0.4,1.3-0.8,1.8-1.1c0.5-0.3,0.8-0.5,1.1-0.5c0.2,0,0.4,0,0.5,0.1c0.1,0.1,0.2,0.2,0.3,0.5c0.1,0.2,0.1,0.6,0.2,1
		C251.7,448.1,251.8,448.7,251.8,449.4L251.8,449.4z M284.1,449.4c0,0.5,0,0.9,0,1.3c0,0.4-0.1,0.7-0.1,0.9
		c-0.1,0.3-0.1,0.5-0.2,0.7c-0.1,0.2-0.3,0.4-0.5,0.6c-0.2,0.2-0.7,0.5-1.3,0.9c-0.6,0.4-1.4,0.7-2.3,1c-0.9,0.3-2,0.6-3.1,0.8
		c-1.2,0.2-2.5,0.3-3.8,0.3c-2.7,0-5.1-0.4-7.3-1.2c-2.2-0.8-4-2.1-5.5-3.7c-1.5-1.6-2.7-3.7-3.5-6.2c-0.8-2.5-1.2-5.3-1.2-8.6
		c0-3.3,0.4-6.3,1.3-8.9c0.9-2.6,2.1-4.8,3.7-6.5c1.6-1.8,3.5-3.1,5.7-4c2.2-0.9,4.7-1.4,7.4-1.4c1.1,0,2.1,0.1,3.1,0.3
		c1,0.2,1.9,0.4,2.8,0.7c0.9,0.3,1.6,0.6,2.3,1c0.7,0.4,1.2,0.7,1.4,1c0.3,0.3,0.5,0.5,0.6,0.7c0.1,0.2,0.2,0.4,0.2,0.7
		c0.1,0.3,0.1,0.6,0.1,1c0,0.4,0,0.8,0,1.4c0,0.6,0,1.1-0.1,1.5c0,0.4-0.1,0.8-0.2,1c-0.1,0.3-0.2,0.5-0.4,0.6
		c-0.1,0.1-0.3,0.2-0.5,0.2c-0.3,0-0.7-0.2-1.1-0.5c-0.5-0.4-1.1-0.7-1.8-1.2c-0.7-0.4-1.6-0.8-2.6-1.2c-1-0.4-2.2-0.5-3.6-0.5
		c-1.6,0-2.9,0.3-4.2,1c-1.2,0.6-2.3,1.5-3.1,2.7c-0.9,1.2-1.5,2.6-2,4.3c-0.4,1.7-0.7,3.6-0.7,5.7c0,2.3,0.2,4.3,0.7,6
		c0.5,1.7,1.1,3.1,2,4.2c0.9,1.1,1.9,1.9,3.2,2.4c1.2,0.5,2.6,0.8,4.2,0.8c1.4,0,2.6-0.2,3.7-0.5c1-0.3,1.9-0.7,2.6-1.1
		c0.7-0.4,1.3-0.8,1.8-1.1c0.5-0.3,0.8-0.5,1.1-0.5c0.2,0,0.4,0,0.5,0.1c0.1,0.1,0.2,0.2,0.3,0.5c0.1,0.2,0.1,0.6,0.2,1
		C284.1,448.1,284.1,448.7,284.1,449.4L284.1,449.4z M321.7,454.3c0,0.2-0.1,0.4-0.2,0.5c-0.1,0.2-0.4,0.3-0.7,0.4
		c-0.3,0.1-0.7,0.2-1.2,0.2c-0.5,0.1-1.2,0.1-1.9,0.1c-0.8,0-1.4,0-1.9-0.1c-0.5-0.1-0.9-0.1-1.2-0.2c-0.3-0.1-0.5-0.2-0.6-0.4
		c-0.1-0.2-0.2-0.3-0.2-0.5v-20.7c0-0.8,0-1.6,0-2.3c0-0.8,0.1-1.4,0.1-2h-0.1c-0.2,0.3-0.4,0.6-0.6,1c-0.2,0.4-0.5,0.8-0.7,1.2
		c-0.3,0.4-0.5,0.8-0.8,1.3c-0.3,0.4-0.6,0.9-0.8,1.3l-13.6,20.3c-0.2,0.2-0.3,0.4-0.5,0.6c-0.2,0.2-0.4,0.3-0.7,0.4
		c-0.3,0.1-0.6,0.2-1,0.2c-0.4,0-0.9,0-1.5,0c-0.8,0-1.4,0-1.9-0.1c-0.5-0.1-0.9-0.1-1.1-0.2c-0.3-0.1-0.5-0.2-0.6-0.4
		c-0.1-0.2-0.2-0.4-0.2-0.6v-37.1c0-0.2,0.1-0.4,0.2-0.5c0.1-0.2,0.4-0.3,0.7-0.4c0.3-0.1,0.7-0.2,1.2-0.2c0.5-0.1,1.1-0.1,1.9-0.1
		c0.8,0,1.4,0,1.9,0.1c0.5,0.1,0.9,0.1,1.2,0.2c0.3,0.1,0.5,0.2,0.6,0.4c0.1,0.2,0.2,0.3,0.2,0.5v20.8c0,0.6,0,1.3,0,2.1
		c0,0.7-0.1,1.4-0.1,2.1h0.1c0.4-0.6,0.8-1.3,1.3-2.2c0.5-0.8,1.1-1.7,1.6-2.5l13.6-20.3c0.1-0.2,0.3-0.4,0.5-0.5
		c0.2-0.2,0.4-0.3,0.7-0.4c0.3-0.1,0.6-0.2,1-0.2c0.4,0,0.9-0.1,1.6-0.1c0.8,0,1.4,0,1.9,0.1s0.8,0.1,1.1,0.2
		c0.3,0.1,0.5,0.2,0.6,0.4c0.1,0.2,0.2,0.3,0.2,0.6V454.3L321.7,454.3z M357.3,454.3c0,0.2-0.1,0.4-0.2,0.5
		c-0.1,0.2-0.3,0.3-0.6,0.4c-0.3,0.1-0.7,0.2-1.2,0.2c-0.5,0.1-1.2,0.1-1.9,0.1c-0.8,0-1.4,0-1.9-0.1c-0.5-0.1-0.9-0.1-1.2-0.2
		c-0.3-0.1-0.5-0.2-0.7-0.4c-0.1-0.2-0.2-0.3-0.2-0.5v-14.7h-2.9c-1.2,0-2.1,0.1-2.8,0.4c-0.6,0.2-1.2,0.6-1.7,1.1
		c-0.5,0.5-0.9,1.1-1.3,1.9c-0.4,0.8-0.8,1.7-1.1,2.7l-3,8.5c-0.1,0.2-0.2,0.4-0.4,0.6c-0.2,0.2-0.4,0.3-0.7,0.4
		c-0.3,0.1-0.8,0.2-1.3,0.2c-0.5,0-1.2,0.1-2.1,0.1c-0.9,0-1.7,0-2.2-0.1c-0.5-0.1-0.9-0.1-1.2-0.3c-0.3-0.1-0.5-0.2-0.5-0.4
		c-0.1-0.1-0.1-0.3-0.1-0.5c0-0.2,0-0.5,0.1-0.7c0.1-0.3,0.2-0.7,0.4-1.3l2.9-7.7c0.4-1,0.8-1.9,1.2-2.6c0.4-0.7,0.8-1.4,1.3-2
		c0.5-0.6,1-1.1,1.6-1.5c0.6-0.4,1.2-0.7,1.8-1c-1.3-0.3-2.4-0.8-3.3-1.3c-1-0.6-1.8-1.2-2.4-2c-0.7-0.8-1.1-1.7-1.5-2.8
		c-0.3-1-0.5-2.2-0.5-3.5c0-1.8,0.3-3.4,0.9-4.8c0.6-1.4,1.5-2.7,2.7-3.7c1.2-1,2.7-1.8,4.5-2.3c1.8-0.6,4.3-0.8,7.6-0.8h9.6
		c0.7,0,1.2,0.2,1.7,0.6c0.5,0.4,0.7,1,0.7,1.9V454.3L357.3,454.3z M349.4,422.3h-4.1c-1.7,0-3,0.1-3.9,0.4
		c-0.8,0.3-1.5,0.6-2.1,1.1c-0.5,0.5-0.9,1.1-1.2,1.8c-0.2,0.7-0.4,1.5-0.4,2.3c0,0.8,0.1,1.6,0.4,2.3c0.3,0.7,0.7,1.3,1.2,1.8
		c0.5,0.5,1.3,0.9,2.1,1.2c0.9,0.3,2.1,0.4,3.7,0.4h4.2V422.3L349.4,422.3z"/>
</g>
</svg>
