<?xml version="1.0" encoding="utf-8"?>
<!-- Generator: Adobe Illustrator 21.0.2, SVG Export Plug-In . SVG Version: 6.00 Build 0)  -->
<svg version="1.1" id="Слой_1" xmlns="http://www.w3.org/2000/svg" xmlns:xlink="http://www.w3.org/1999/xlink" x="0px" y="0px"
	 viewBox="0 0 396.8 365.7" style="enable-background:new 0 0 396.8 365.7;" xml:space="preserve">
<style type="text/css">
	.st0{fill-rule:evenodd;clip-rule:evenodd;fill:#4599D8;}
	.st1{fill-rule:evenodd;clip-rule:evenodd;fill:#FFFFFF;}
	.st2{fill-rule:evenodd;clip-rule:evenodd;fill:#D24A43;}
	.st3{fill:#FFFFFF;}
	.st4{fill-rule:evenodd;clip-rule:evenodd;fill:#57ABE5;}
	
		.st5{fill-rule:evenodd;clip-rule:evenodd;fill:#FFFFFF;stroke:#000000;stroke-width:0.2038;stroke-linecap:round;stroke-miterlimit:22.9256;}
	.st6{fill:none;stroke:#000000;stroke-width:0.3566;stroke-linecap:round;stroke-linejoin:round;stroke-miterlimit:22.9256;}
	.st7{fill:none;stroke:#000000;stroke-width:0.2038;stroke-linecap:round;stroke-miterlimit:22.9256;}
	
		.st8{fill-rule:evenodd;clip-rule:evenodd;fill:#F3C644;stroke:#000000;stroke-width:0.2038;stroke-linecap:round;stroke-linejoin:round;stroke-miterlimit:22.9256;}
	.st9{fill-rule:evenodd;clip-rule:evenodd;fill:#F3C644;}
	.st10{fill:none;stroke:#000000;stroke-width:0.2038;stroke-linecap:round;stroke-linejoin:round;stroke-miterlimit:22.9256;}
	.st11{fill-rule:evenodd;clip-rule:evenodd;fill:#42567A;}
	.st12{fill-rule:evenodd;clip-rule:evenodd;fill:#8FA8C7;}
</style>
<g>
	<path class="st0" d="M94.9,64.4C188.7-12.6,306.1-20.8,363.1,41c56.9,61.7,41.4,168.3-43.6,251.3c-85,82.9-232.2,98.3-286.4,32.2
		C-30.2,247.3,1.1,141.3,94.9,64.4L94.9,64.4z M177.9,33.5C84.9,64.1-21.9,177.7,20.4,278C68.2,391.5,233,352.5,303,282.5
		c64.2-64.2,82.4-116.9,79.2-165.3c-8-121.8-161.4-100.7-224.8-24.4c46.9-28.5,151.9-45,169,34.2c20.3,93.9-130.6,226.4-220.7,168.4
		C9.6,233.8,111.2,79.5,177.9,33.5L177.9,33.5z"/>
	<path class="st1" d="M202,55.7c0,0-48.7,4.8-78.6,31.5c-30,26.7-92.9,62.2-78.6,129c14.2,66.7-13.1,64,25.2,87.5
		c38.3,23.5,74.9,42.1,108.8,32.3c33.9-9.8,73.8-36.1,93.5-54.7c19.7-18.6,48.1-41.6,61.3-66.7c13.1-25.2,21.3-63.4,17.5-89.2
		c-3.8-25.7-7.7-47.6-30.6-54.1C297.4,64.7,202,55.7,202,55.7L202,55.7z"/>
	<path class="st2" d="M177.9,33.5C84.9,64.1-21.9,177.7,20.4,278C68.2,391.5,233,352.5,303,282.5c64.2-64.2,82.4-116.9,79.2-165.3
		c-8-121.8-161.4-100.7-224.8-24.4c46.9-28.5,151.9-45,169,34.2c20.3,93.9-130.6,226.4-220.7,168.4C9.6,233.8,111.2,79.5,177.9,33.5
		L177.9,33.5z"/>
	<path class="st3" d="M86.5,121.5l-9.1,10.2l-13.1-11.6l1.5-1.7l11.5,10.3l6-6.8l-11.5-10.3l1.5-1.7L86.5,121.5L86.5,121.5z
		 M58.4,119.9l13.7,10.9l-1.2,1.5l-1.3-1c0.2,0.8,0.3,1.5,0.2,2.1c-0.1,0.7-0.4,1.3-0.9,2c-0.7,0.8-1.5,1.4-2.4,1.7
		c-0.9,0.3-2,0.3-3,0c-1.1-0.3-2.1-0.8-3-1.6c-1-0.8-1.8-1.7-2.3-2.7c-0.5-1-0.7-2-0.6-3.1c0.1-1,0.5-1.9,1.1-2.7
		c0.4-0.6,1-1,1.6-1.2c0.6-0.3,1.2-0.4,1.8-0.4l-4.8-3.9L58.4,119.9L58.4,119.9z M65.9,128.3c-1.3-1-2.4-1.5-3.4-1.5
		c-1,0-1.8,0.4-2.4,1.1c-0.6,0.7-0.8,1.6-0.6,2.7c0.2,1,1,2.1,2.3,3.1c1.3,1,2.4,1.5,3.4,1.5c1,0,1.8-0.4,2.4-1.1
		c0.6-0.7,0.7-1.6,0.5-2.7C67.9,130.4,67.1,129.3,65.9,128.3L65.9,128.3z M59.5,136.7c1.9,1.3,3,2.9,3.1,4.6
		c0.1,1.4-0.2,2.8-1.1,4.1c-1,1.4-2.3,2.3-3.8,2.5c-1.6,0.3-3.2-0.2-4.8-1.3c-1.3-0.9-2.2-1.9-2.7-2.8c-0.5-0.9-0.7-1.9-0.6-3
		c0.1-1.1,0.5-2,1.1-2.9c1-1.5,2.3-2.3,3.9-2.6C56.1,135,57.8,135.4,59.5,136.7L59.5,136.7z M58.3,138.5c-1.3-0.9-2.5-1.3-3.6-1.2
		c-1.1,0.1-1.9,0.6-2.5,1.5c-0.6,0.9-0.8,1.8-0.5,2.9c0.3,1,1.1,2,2.4,3c1.3,0.9,2.5,1.3,3.5,1.2c1.1-0.1,1.9-0.6,2.5-1.5
		c0.6-0.9,0.8-1.8,0.5-2.9C60.4,140.4,59.6,139.4,58.3,138.5L58.3,138.5z M57.3,160l-1.1,1.8l-5.2-3.1c0.2,0.6,0.3,1.3,0.2,1.8
		c-0.1,0.6-0.2,1.1-0.6,1.7c-0.8,1.3-1.9,2-3.4,2.1c-1.5,0.1-3.1-0.3-4.7-1.3c-1.7-1-2.8-2.2-3.4-3.7c-0.6-1.4-0.5-2.8,0.2-4
		c0.2-0.4,0.5-0.8,0.9-1.1c0.4-0.3,1-0.6,1.9-0.9l-5.1-3.1l1.1-1.8l5.1,3.1c-0.2-0.6-0.2-1.2-0.2-1.8c0.1-0.6,0.3-1.1,0.6-1.6
		c0.7-1.1,1.8-1.8,3.3-2.1c1.5-0.3,3.2,0.2,5.1,1.3c1.6,0.9,2.7,2.1,3.3,3.5c0.6,1.4,0.5,2.8-0.2,4.1c-0.3,0.5-0.7,1-1.2,1.3
		c-0.5,0.3-1,0.5-1.7,0.6L57.3,160L57.3,160z M46.6,156.1c-1.6-1-2.9-1.4-3.7-1.3c-0.8,0.1-1.4,0.5-1.8,1.2
		c-0.4,0.7-0.5,1.6-0.1,2.5c0.4,0.9,1.3,1.8,2.8,2.7c1.4,0.8,2.6,1.2,3.5,1.1c1-0.1,1.7-0.5,2.1-1.3c0.5-0.8,0.5-1.6,0-2.5
		C48.9,157.8,48,157,46.6,156.1L46.6,156.1z M50.9,149.4c-1.5-0.9-2.8-1.3-3.8-1.2c-1,0.1-1.7,0.5-2.2,1.3c-0.5,0.8-0.5,1.6-0.1,2.4
		c0.4,0.8,1.3,1.6,2.7,2.4c1.4,0.9,2.6,1.3,3.6,1.3c1,0,1.7-0.4,2.2-1.2c0.4-0.8,0.5-1.6,0-2.5C53,150.9,52.2,150.1,50.9,149.4
		L50.9,149.4z M36.1,171.7l-1.2,1.9c-1-0.9-1.6-1.9-1.9-3.1c-0.2-1.2,0-2.4,0.6-3.7c0.8-1.7,2-2.7,3.5-3.2c1.5-0.5,3.2-0.3,5,0.6
		c1.9,0.9,3.2,2.1,3.7,3.6c0.6,1.5,0.5,3-0.3,4.6c-0.7,1.5-1.9,2.5-3.4,3c-1.5,0.5-3.2,0.2-5.1-0.7c-0.1-0.1-0.3-0.1-0.5-0.3
		l4.1-8.5c-1.3-0.5-2.4-0.6-3.4-0.3c-1,0.3-1.7,0.9-2.2,1.9c-0.3,0.7-0.4,1.4-0.3,2.1C35.1,170.4,35.5,171,36.1,171.7L36.1,171.7z
		 M42.3,166.9l-3.1,6.3c1,0.4,1.8,0.5,2.5,0.3c1-0.3,1.8-0.9,2.3-1.8c0.4-0.9,0.5-1.8,0.2-2.7C43.9,168.2,43.3,167.5,42.3,166.9
		L42.3,166.9z M31.9,183.8l-1,1.9c-1.3-0.7-2.1-1.7-2.6-2.8c-0.4-1.2-0.4-2.4,0.1-3.7c0.6-1.6,1.6-2.7,3-3.3
		c1.4-0.6,3.1-0.5,5.1,0.2c1.3,0.5,2.3,1.1,3.1,1.9c0.8,0.8,1.3,1.7,1.4,2.7c0.2,1,0,2.1-0.3,3.1c-0.5,1.3-1.2,2.2-2.2,2.8
		c-1,0.6-2.1,0.8-3.4,0.5l0.4-2.1c0.9,0.1,1.6,0,2.2-0.3c0.6-0.3,1-0.8,1.2-1.5c0.4-1,0.3-2-0.2-2.9c-0.5-0.9-1.5-1.6-3.1-2.2
		c-1.6-0.6-2.9-0.7-3.8-0.4c-0.9,0.3-1.6,1-2,2c-0.3,0.8-0.3,1.5,0,2.2C30.3,182.7,30.9,183.3,31.9,183.8L31.9,183.8z M28,195.2
		l-0.9,1.9c-1.3-0.7-2.2-1.6-2.7-2.7c-0.5-1.2-0.5-2.4-0.1-3.7c0.5-1.6,1.5-2.8,2.9-3.5c1.4-0.7,3.1-0.7,5.1,0
		c1.3,0.4,2.4,1,3.2,1.7c0.8,0.7,1.4,1.6,1.6,2.7c0.2,1,0.2,2.1-0.2,3.1c-0.4,1.3-1.1,2.3-2,2.9c-0.9,0.6-2,0.9-3.3,0.7l0.3-2.1
		c0.9,0.1,1.6-0.1,2.2-0.4c0.6-0.4,0.9-0.9,1.2-1.6c0.3-1,0.2-2-0.3-2.9c-0.5-0.9-1.6-1.6-3.2-2.1c-1.6-0.5-2.9-0.6-3.8-0.2
		c-0.9,0.4-1.6,1.1-1.9,2.1c-0.3,0.8-0.2,1.6,0.1,2.2C26.4,194.2,27.1,194.8,28,195.2L28,195.2z M35.1,200.1l-0.4,2.1l-9.5-1.9
		l8.3,7.7l-0.4,2.3l-12.4-2.4l0.4-2.1l9.4,1.8l-8.3-7.7l0.4-2.3L35.1,200.1L35.1,200.1z M26.4,211.2c2.3,0.3,4,1.2,4.9,2.6
		c0.8,1.2,1.1,2.6,0.9,4.1c-0.2,1.7-1,3.1-2.3,4c-1.3,0.9-2.9,1.3-4.9,1c-1.6-0.2-2.8-0.6-3.7-1.2c-0.9-0.6-1.5-1.4-1.9-2.4
		c-0.4-1-0.5-2-0.4-3.1c0.2-1.8,1-3.1,2.3-4C22.6,211.2,24.3,210.9,26.4,211.2L26.4,211.2z M26.1,213.4c-1.6-0.2-2.9,0-3.7,0.6
		c-0.9,0.6-1.4,1.4-1.6,2.5c-0.1,1.1,0.1,2,0.9,2.8c0.7,0.8,1.9,1.3,3.5,1.5c1.5,0.2,2.8,0,3.7-0.6c0.9-0.6,1.4-1.4,1.5-2.5
		c0.1-1.1-0.1-2-0.8-2.8C28.8,214.1,27.7,213.6,26.1,213.4L26.1,213.4z M31.1,224.6l0,2.1l-5.3,0l0,6l5.3,0l0,2.1l-12.7,0l0-2.1
		l5.6,0l0-6l-5.6,0l0-2.1L31.1,224.6L31.1,224.6z M20.7,246.2c-0.7-0.7-1.3-1.5-1.6-2.2c-0.3-0.7-0.5-1.5-0.6-2.3
		c-0.1-1.4,0.2-2.5,0.8-3.3c0.6-0.8,1.5-1.2,2.5-1.3c0.6,0,1.2,0.1,1.7,0.3c0.5,0.2,1,0.6,1.3,1c0.3,0.4,0.6,0.9,0.8,1.5
		c0.1,0.4,0.3,1,0.5,1.9c0.3,1.7,0.7,3,1,3.8c0.3,0,0.5,0,0.6,0c0.9-0.1,1.5-0.3,1.8-0.7c0.4-0.6,0.6-1.4,0.6-2.5
		c-0.1-1-0.3-1.7-0.7-2.2c-0.4-0.5-1-0.8-2-0.9l0.1-2.1c0.9,0.1,1.7,0.4,2.2,0.8c0.6,0.4,1,1,1.4,1.8c0.4,0.8,0.6,1.8,0.6,2.8
		c0.1,1.1,0,2-0.2,2.7c-0.2,0.7-0.5,1.2-0.9,1.6c-0.4,0.3-0.8,0.6-1.4,0.8c-0.4,0.1-1,0.2-2,0.2l-2.8,0.2c-2,0.1-3.2,0.3-3.8,0.4
		c-0.5,0.1-1,0.3-1.5,0.6l-0.2-2.2C19.6,246.4,20.1,246.3,20.7,246.2L20.7,246.2z M25.5,245.7c-0.4-0.8-0.7-1.9-1-3.5
		c-0.2-0.9-0.4-1.5-0.6-1.8c-0.2-0.4-0.4-0.6-0.7-0.8c-0.3-0.2-0.7-0.3-1-0.2c-0.6,0-1,0.3-1.4,0.7c-0.3,0.5-0.5,1.1-0.4,1.9
		c0.1,0.8,0.3,1.5,0.7,2.2c0.4,0.6,0.9,1.1,1.6,1.3c0.5,0.2,1.2,0.3,2.2,0.2L25.5,245.7L25.5,245.7z M32.5,250l2.2,9.8l-12.4,2.7
		l-0.5-2.1l10.6-2.3l-1.2-5.6l-6.2,1.4c-1.4,0.3-2.4,0.5-2.9,0.5c-0.5,0-0.9-0.2-1.4-0.5c-0.4-0.3-0.7-0.9-0.9-1.7
		c-0.1-0.5-0.2-1.1-0.3-1.7l1.7-0.4l0.2,0.9c0.1,0.4,0.2,0.7,0.3,0.9c0.1,0.2,0.3,0.3,0.5,0.3c0.2,0,0.8-0.1,1.9-0.3L32.5,250
		L32.5,250z M34.7,260.9l0.8,2l-4.6,1.8l1,2.5c0.6,1.7,0.8,3,0.5,4.2c-0.3,1.1-1,1.9-2.1,2.4c-1,0.4-2,0.3-3-0.1
		c-1-0.5-1.8-1.5-2.4-3.2l-1.9-5L34.7,260.9L34.7,260.9z M25.3,266.8l0.8,2.1c0.5,1.3,1,2.1,1.5,2.5c0.5,0.4,1.1,0.5,1.8,0.2
		c0.5-0.2,0.9-0.6,1.1-1.1c0.2-0.6,0.1-1.5-0.4-2.9l-0.9-2.4L25.3,266.8L25.3,266.8z M38.9,271.9l0.9,1.9l-4.8,2.3l2.6,5.4l4.8-2.3
		l0.9,1.9l-11.4,5.5l-0.9-1.9l5.1-2.4l-2.6-5.4l-5.1,2.4l-0.9-1.9L38.9,271.9L38.9,271.9z M39.6,295.2c-1-0.3-1.8-0.6-2.5-1.1
		c-0.7-0.4-1.2-1-1.7-1.7c-0.8-1.1-1.1-2.2-1-3.2c0.1-1,0.6-1.8,1.5-2.4c0.5-0.4,1.1-0.6,1.6-0.6c0.6-0.1,1.1,0,1.6,0.2
		c0.5,0.2,1,0.5,1.5,0.9c0.3,0.3,0.8,0.7,1.4,1.4c1.2,1.3,2.1,2.2,2.8,2.7c0.2-0.2,0.4-0.3,0.5-0.3c0.7-0.5,1.1-1,1.2-1.6
		c0.1-0.7-0.2-1.5-0.8-2.4c-0.6-0.8-1.2-1.3-1.7-1.5c-0.6-0.2-1.3-0.1-2.2,0.2l-1-1.9c0.8-0.4,1.6-0.5,2.3-0.5
		c0.7,0,1.4,0.3,2.1,0.8c0.7,0.5,1.4,1.2,2,2.1c0.6,0.9,1,1.7,1.2,2.4c0.2,0.7,0.2,1.3,0.1,1.8c-0.1,0.5-0.4,0.9-0.8,1.4
		c-0.3,0.3-0.8,0.7-1.6,1.2l-2.3,1.6c-1.6,1.1-2.6,1.9-3,2.3c-0.4,0.4-0.7,0.8-1,1.3l-1.3-1.8C38.8,296,39.2,295.6,39.6,295.2
		L39.6,295.2z M43.4,292.3c-0.7-0.5-1.6-1.3-2.7-2.4c-0.6-0.7-1.1-1.1-1.4-1.3c-0.3-0.2-0.7-0.3-1.1-0.3c-0.4,0-0.7,0.1-1,0.3
		c-0.5,0.3-0.7,0.8-0.8,1.3c-0.1,0.6,0.1,1.2,0.6,1.9c0.5,0.7,1,1.2,1.7,1.5c0.7,0.3,1.3,0.4,2,0.3c0.5-0.1,1.2-0.4,2-0.9
		L43.4,292.3L43.4,292.3z M57.6,299.1l-9.2,8.8l-1.5-1.6l3.6-3.4l-0.9-0.9c-0.5-0.5-1-0.9-1.4-1c-0.4-0.1-1.2-0.1-2.5,0.1l-3.3,0.5
		l-1.8-1.9l4.1-0.7c1.2-0.2,2.2-0.1,2.7,0.3c-0.7-1-1-2-0.9-2.9c0.1-0.9,0.5-1.7,1.2-2.4c0.8-0.8,1.7-1.1,2.7-1
		c1,0.1,2.1,0.7,3.1,1.7L57.6,299.1L57.6,299.1z M54.8,298.7l-2.1-2.2c-0.9-0.9-1.6-1.4-2.1-1.4c-0.5,0-1,0.2-1.4,0.6
		c-0.5,0.5-0.8,1.1-0.6,1.7c0.1,0.6,0.7,1.5,1.6,2.5l1.6,1.7L54.8,298.7L54.8,298.7z M69,321.9c-1,0.1-1.9,0.1-2.7-0.1
		c-0.8-0.2-1.5-0.5-2.2-1c-1.2-0.8-1.9-1.6-2.1-2.6c-0.3-1-0.1-1.9,0.5-2.8c0.3-0.5,0.8-0.9,1.3-1.2c0.5-0.3,1.1-0.4,1.6-0.4
		c0.6,0,1.1,0.1,1.7,0.3c0.4,0.1,1,0.4,1.8,0.8c1.6,0.8,2.8,1.3,3.6,1.5c0.2-0.2,0.3-0.4,0.3-0.5c0.5-0.7,0.7-1.4,0.5-1.9
		c-0.2-0.7-0.7-1.4-1.6-2c-0.8-0.6-1.6-0.8-2.2-0.8c-0.6,0-1.2,0.4-1.9,1l-1.6-1.4c0.7-0.6,1.3-1.1,2-1.3c0.7-0.2,1.4-0.2,2.3,0
		c0.9,0.2,1.7,0.6,2.6,1.2c0.9,0.6,1.6,1.2,2,1.8c0.4,0.6,0.7,1.1,0.7,1.6c0.1,0.5,0,1-0.3,1.6c-0.1,0.3-0.5,0.9-1,1.7l-1.6,2.4
		c-1.1,1.7-1.8,2.7-2,3.2c-0.2,0.5-0.4,1-0.4,1.6l-1.9-1.2C68.5,322.9,68.7,322.4,69,321.9L69,321.9z M71.5,317.8
		c-0.8-0.2-2-0.6-3.4-1.3c-0.8-0.4-1.4-0.6-1.8-0.7c-0.4-0.1-0.8,0-1.1,0.1c-0.3,0.1-0.6,0.4-0.8,0.7c-0.3,0.5-0.4,1-0.2,1.5
		c0.2,0.6,0.6,1.1,1.3,1.5c0.7,0.5,1.4,0.7,2.1,0.8c0.7,0.1,1.4-0.1,2-0.4c0.5-0.3,0.9-0.8,1.5-1.6L71.5,317.8L71.5,317.8z
		 M82.2,325.2l1.8,1.2c-0.8,1.2-1.8,2-3.1,2.3c-1.2,0.3-2.4,0.2-3.7-0.4c-1.6-0.7-2.6-1.9-3-3.3c-0.5-1.5-0.2-3.2,0.7-5.1
		c0.6-1.2,1.3-2.2,2.2-2.9c0.8-0.7,1.8-1.1,2.9-1.2c1.1-0.1,2.1,0.1,3.1,0.6c1.2,0.6,2.1,1.4,2.6,2.4c0.5,1,0.6,2.1,0.2,3.4l-2-0.6
		c0.2-0.9,0.1-1.6-0.1-2.2c-0.3-0.6-0.7-1.1-1.4-1.4c-1-0.5-1.9-0.5-2.9-0.1c-0.9,0.4-1.8,1.4-2.5,2.9c-0.7,1.5-1,2.8-0.7,3.8
		c0.3,1,0.9,1.7,1.8,2.1c0.8,0.4,1.5,0.4,2.2,0.2C80.9,326.6,81.6,326.1,82.2,325.2L82.2,325.2z M93.2,329.8l1.8,1.1
		c-0.8,1.3-1.7,2.1-2.9,2.5c-1.2,0.4-2.4,0.4-3.7-0.2c-1.6-0.6-2.7-1.7-3.2-3.1c-0.6-1.4-0.4-3.1,0.3-5.1c0.5-1.3,1.2-2.3,2-3.1
		c0.8-0.8,1.7-1.2,2.8-1.4c1-0.1,2.1,0,3.1,0.4c1.3,0.5,2.2,1.2,2.7,2.2c0.6,1,0.7,2.1,0.5,3.4l-2-0.5c0.1-0.9,0-1.6-0.3-2.2
		c-0.3-0.6-0.8-1-1.5-1.3c-1-0.4-2-0.4-2.9,0.1c-0.9,0.5-1.7,1.5-2.3,3c-0.6,1.6-0.8,2.8-0.5,3.8c0.3,1,1,1.6,1.9,2
		c0.8,0.3,1.5,0.3,2.2,0.1C92,331.3,92.6,330.7,93.2,329.8L93.2,329.8z M96.1,329.1c0.6-2.3,1.7-3.8,3.2-4.5
		c1.3-0.6,2.7-0.8,4.2-0.4c1.7,0.4,2.9,1.3,3.7,2.7c0.8,1.4,0.9,3,0.4,5c-0.4,1.6-1,2.8-1.7,3.5c-0.7,0.8-1.6,1.3-2.6,1.6
		c-1,0.3-2.1,0.3-3.2,0c-1.7-0.4-3-1.4-3.7-2.7C95.7,332.9,95.6,331.2,96.1,329.1L96.1,329.1z M98.3,329.7c-0.4,1.6-0.4,2.8,0.1,3.8
		c0.5,1,1.2,1.6,2.3,1.8c1,0.3,2,0.1,2.9-0.5c0.9-0.6,1.5-1.7,2-3.3c0.4-1.5,0.3-2.7-0.1-3.7c-0.5-1-1.2-1.6-2.3-1.8
		c-1-0.3-2-0.1-2.9,0.5C99.3,327.1,98.7,328.1,98.3,329.7L98.3,329.7z M111.1,326.4l2.1,0.4l-2.1,10.7l5.8,1.1l2.1-10.7l2.1,0.4
		l-2.1,10.7l1.4,0.3l-1,5.2l-1.7-0.3l0.7-3.5l-9.7-1.9L111.1,326.4L111.1,326.4z M123.4,328.4l2.1,0.2l-0.8,9.6l6.7-9.2l2.3,0.2
		l-1,12.6l-2.1-0.2l0.8-9.6l-6.7,9.1l-2.3-0.2L123.4,328.4L123.4,328.4z M144.4,340.6c-0.8,0.7-1.6,1.1-2.3,1.4
		c-0.7,0.3-1.5,0.4-2.4,0.4c-1.4,0-2.5-0.4-3.2-1.1c-0.7-0.7-1.1-1.6-1.1-2.6c0-0.6,0.2-1.2,0.5-1.7c0.3-0.5,0.7-0.9,1.1-1.2
		c0.5-0.3,1-0.5,1.6-0.7c0.4-0.1,1.1-0.2,1.9-0.3c1.7-0.2,3-0.4,3.9-0.6c0-0.3,0-0.5,0-0.6c0-0.9-0.2-1.5-0.6-1.9
		c-0.5-0.5-1.3-0.8-2.4-0.8c-1,0-1.8,0.1-2.3,0.5c-0.5,0.3-0.9,1-1.1,1.9l-2.1-0.3c0.2-0.9,0.5-1.6,1-2.2c0.5-0.5,1.1-1,1.9-1.2
		c0.8-0.3,1.8-0.4,2.9-0.4c1.1,0,2,0.2,2.6,0.4c0.7,0.3,1.2,0.6,1.5,1c0.3,0.4,0.5,0.9,0.6,1.5c0.1,0.4,0.1,1,0.1,2l-0.1,2.8
		c0,2,0,3.2,0,3.8c0.1,0.5,0.2,1,0.5,1.5l-2.2-0.1C144.6,341.7,144.5,341.2,144.4,340.6L144.4,340.6z M144.4,335.8
		c-0.8,0.3-2,0.5-3.5,0.7c-0.9,0.1-1.5,0.2-1.9,0.4c-0.4,0.2-0.7,0.4-0.9,0.7c-0.2,0.3-0.3,0.6-0.3,1c0,0.6,0.2,1,0.6,1.4
		c0.4,0.4,1.1,0.6,1.9,0.6c0.8,0,1.6-0.1,2.2-0.5c0.7-0.3,1.1-0.8,1.5-1.4c0.2-0.5,0.4-1.2,0.4-2.1L144.4,335.8L144.4,335.8z
		 M148.7,329.1l2.1-0.2l0.9,10.9l5.9-0.5l-0.9-10.9l2.1-0.2l0.9,10.9l1.4-0.1l0.4,5.3l-1.8,0.1l-0.3-3.6l-9.9,0.8L148.7,329.1
		L148.7,329.1z M161.7,327.9l2.1-0.3l1.3,9.6l4.6-10.4l2.3-0.3l1.7,12.6l-2.1,0.3l-1.3-9.5l-4.6,10.3l-2.3,0.3L161.7,327.9
		L161.7,327.9z M183.8,324l2.9,12.3l-2.1,0.5l-1.1-4.8l-1.2,0.3c-0.7,0.2-1.3,0.4-1.6,0.7c-0.3,0.3-0.7,1-1.2,2.2l-1.2,3.1l-2.6,0.6
		l1.5-3.8c0.5-1.2,1-1.9,1.7-2.2c-1.2,0.1-2.2-0.1-3-0.7c-0.7-0.6-1.2-1.3-1.4-2.2c-0.3-1.1-0.1-2,0.5-2.9c0.6-0.8,1.6-1.4,3.1-1.8
		L183.8,324L183.8,324z M182.2,326.2l-3,0.7c-1.2,0.3-2,0.7-2.3,1.1c-0.3,0.5-0.3,1-0.2,1.5c0.2,0.7,0.6,1.2,1.2,1.4
		c0.6,0.2,1.6,0.2,2.9-0.1l2.3-0.5L182.2,326.2L182.2,326.2z M203.2,326.9l2.1-0.3c0.2,1.5-0.1,2.7-0.8,3.7c-0.7,1-1.7,1.8-3,2.1
		c-1.7,0.5-3.2,0.3-4.5-0.5c-1.3-0.8-2.3-2.2-2.9-4.2c-0.4-1.3-0.5-2.5-0.3-3.6c0.2-1.1,0.6-2,1.4-2.8c0.7-0.7,1.6-1.3,2.7-1.6
		c1.3-0.4,2.5-0.4,3.5,0.1c1,0.4,1.8,1.2,2.4,2.4l-1.9,0.9c-0.4-0.8-0.9-1.3-1.5-1.6c-0.6-0.3-1.2-0.3-1.9-0.1
		c-1,0.3-1.8,0.9-2.2,1.8c-0.4,0.9-0.4,2.2,0,3.8c0.5,1.6,1.1,2.7,2,3.3c0.8,0.6,1.8,0.7,2.8,0.4c0.8-0.2,1.4-0.7,1.8-1.3
		C203.2,328.9,203.4,328,203.2,326.9L203.2,326.9z M203.6,318.5l9.3-3.6l4.6,11.8l-2,0.8l-3.9-10.2l-5.3,2.1l3.9,10.2l-2,0.8
		L203.6,318.5L203.6,318.5z M226.6,318.3l2.1-0.6c0.2,1.3,0,2.5-0.5,3.5c-0.6,1-1.5,1.9-2.9,2.5c-1.7,0.8-3.3,0.8-4.7,0.3
		c-1.5-0.6-2.6-1.8-3.5-3.7c-0.9-1.9-1.1-3.7-0.5-5.2c0.5-1.5,1.6-2.6,3.2-3.4c1.5-0.7,3-0.7,4.5-0.1c1.4,0.6,2.6,1.9,3.5,3.8
		c0.1,0.1,0.1,0.3,0.2,0.5l-8.6,3.9c0.6,1.2,1.4,2,2.4,2.4c0.9,0.4,1.9,0.4,2.9-0.1c0.7-0.3,1.2-0.8,1.6-1.4
		C226.6,320.1,226.7,319.3,226.6,318.3L226.6,318.3z M218.8,318.1l6.4-2.9c-0.5-0.9-1.1-1.5-1.7-1.9c-1-0.5-1.9-0.5-2.9,0
		c-0.9,0.4-1.5,1-1.9,1.9C218.4,316.1,218.4,317,218.8,318.1L218.8,318.1z M227,309l1.9-1l5.1,9.6l5.3-2.8l-5.1-9.6l1.9-1l5.1,9.6
		l1.2-0.7l2.5,4.7l-1.6,0.8l-1.7-3.2l-8.7,4.6L227,309L227,309z M239.3,302.6l1.9-1l4.5,8.5l0.7-11.3l2-1.1l5.9,11.2l-1.9,1
		l-4.5-8.5l-0.8,11.3l-2,1.1L239.3,302.6L239.3,302.6z M263.4,301.2c-0.3,1-0.7,1.8-1.2,2.4c-0.5,0.6-1.1,1.2-1.8,1.6
		c-1.2,0.7-2.3,1-3.3,0.8c-1-0.2-1.8-0.7-2.3-1.6c-0.3-0.5-0.5-1.1-0.5-1.7c0-0.6,0.1-1.1,0.3-1.6c0.2-0.5,0.5-1,0.9-1.4
		c0.3-0.3,0.8-0.7,1.5-1.3c1.4-1.1,2.3-2,2.9-2.6c-0.1-0.3-0.2-0.4-0.3-0.5c-0.5-0.7-1-1.2-1.5-1.2c-0.7-0.1-1.5,0.1-2.5,0.7
		c-0.9,0.5-1.4,1.1-1.6,1.6c-0.2,0.6-0.2,1.3,0.1,2.2l-1.9,0.9c-0.3-0.9-0.4-1.7-0.3-2.4c0.1-0.7,0.4-1.4,1-2.1
		c0.5-0.7,1.3-1.3,2.2-1.9c0.9-0.6,1.7-0.9,2.5-1.1c0.7-0.1,1.3-0.1,1.8,0c0.5,0.2,0.9,0.5,1.3,0.9c0.3,0.3,0.6,0.8,1.1,1.6l1.5,2.4
		c1,1.7,1.7,2.7,2.1,3.1c0.4,0.4,0.8,0.7,1.2,1l-1.9,1.2C264.1,302.1,263.7,301.7,263.4,301.2L263.4,301.2z M260.7,297.2
		c-0.5,0.7-1.4,1.5-2.6,2.5c-0.7,0.6-1.1,1-1.4,1.3c-0.2,0.3-0.3,0.7-0.4,1c0,0.4,0.1,0.7,0.3,1c0.3,0.5,0.7,0.8,1.3,0.9
		c0.6,0.1,1.2-0.1,1.9-0.5c0.7-0.4,1.2-1,1.6-1.6c0.4-0.6,0.5-1.3,0.4-2c-0.1-0.5-0.3-1.2-0.8-2L260.7,297.2L260.7,297.2z
		 M262.3,288.7l8.2-5.8l7.3,10.4l-1.8,1.2l-6.3-8.9l-4.7,3.3l3.6,5.2c0.8,1.2,1.4,2,1.6,2.5c0.2,0.4,0.2,0.9,0.1,1.5
		c-0.2,0.5-0.6,1-1.2,1.5c-0.4,0.3-0.9,0.6-1.5,0.9l-1-1.5l0.8-0.5c0.4-0.3,0.6-0.5,0.7-0.7c0.1-0.2,0.1-0.4,0.1-0.6
		c-0.1-0.2-0.4-0.7-1-1.6L262.3,288.7L262.3,288.7z M272.3,281.4l1.7-1.3l6,7.5l-1.4-11.3l1.8-1.4l7.9,9.9l-1.7,1.3l-6-7.5l1.3,11.2
		l-1.8,1.4L272.3,281.4L272.3,281.4z M294.1,274l1.8-1.2c0.8,1.2,1.1,2.5,1,3.7c-0.2,1.2-0.7,2.3-1.8,3.3c-1.3,1.2-2.7,1.7-4.2,1.5
		c-1.5-0.1-3-1-4.4-2.5c-0.9-1-1.5-2.1-1.9-3.1c-0.3-1.1-0.4-2.1,0-3.1c0.3-1,0.9-1.9,1.7-2.6c1-0.9,2.1-1.4,3.2-1.5
		c1.1-0.1,2.2,0.3,3.2,1.1l-1.3,1.6c-0.7-0.5-1.4-0.7-2.1-0.7c-0.7,0-1.3,0.3-1.8,0.8c-0.8,0.7-1.2,1.6-1.2,2.6c0,1,0.6,2.2,1.7,3.4
		c1.1,1.3,2.2,2,3.2,2.1c1,0.1,1.9-0.2,2.7-0.9c0.6-0.6,1-1.2,1-2C295,275.7,294.7,274.9,294.1,274L294.1,274z M290.8,266.2l7.6-6.9
		l1.2,1.3l-3,2.7l7.3,8.1l-1.6,1.4l-7.3-8.1l-3,2.7L290.8,266.2L290.8,266.2z M302.7,263.4c-1.7-1.6-2.4-3.3-2.3-5
		c0.1-1.4,0.7-2.7,1.8-3.8c1.2-1.2,2.6-1.9,4.2-1.8c1.6,0,3.1,0.7,4.5,2.1c1.2,1.1,1.9,2.2,2.2,3.2c0.3,1,0.3,2,0.1,3
		c-0.3,1-0.8,1.9-1.6,2.7c-1.2,1.3-2.7,1.9-4.2,1.9C305.8,265.6,304.3,264.9,302.7,263.4L302.7,263.4z M304.3,261.8
		c1.2,1.1,2.3,1.7,3.3,1.8c1.1,0.1,2-0.3,2.7-1.1c0.7-0.8,1.1-1.7,1-2.8c-0.1-1.1-0.7-2.2-1.9-3.4c-1.1-1.1-2.2-1.7-3.3-1.7
		c-1.1-0.1-2,0.3-2.7,1c-0.8,0.8-1.1,1.7-1,2.8C302.5,259.6,303.1,260.7,304.3,261.8L304.3,261.8z M307.6,248.8l3.3-3.7
		c0.8-0.9,1.5-1.5,2-1.8c0.5-0.3,1.2-0.4,1.8-0.4c0.7,0,1.3,0.3,1.9,0.8c0.5,0.4,0.8,0.8,0.9,1.3c0.2,0.5,0.2,1,0.1,1.6
		c0.5-0.3,1.1-0.4,1.8-0.4c0.7,0.1,1.3,0.3,1.8,0.8c0.9,0.8,1.2,1.8,1.2,2.7c-0.1,1-0.6,2-1.6,3.1l-3.8,4.3L307.6,248.8L307.6,248.8
		z M313.1,250.7l1.5-1.7c0.6-0.7,1-1.2,1.1-1.5c0.2-0.3,0.2-0.7,0.2-1.1c0-0.4-0.2-0.7-0.5-1c-0.5-0.4-1-0.6-1.5-0.4
		c-0.5,0.2-1.1,0.7-1.9,1.6l-1.5,1.8L313.1,250.7L313.1,250.7z M317.3,254.4l1.9-2.1c0.8-0.9,1.2-1.6,1.3-2.2c0.1-0.5-0.1-1-0.6-1.5
		c-0.3-0.3-0.7-0.4-1.1-0.4c-0.4,0-0.8,0.1-1.2,0.3c-0.3,0.3-0.8,0.7-1.4,1.4l-1.7,2L317.3,254.4L317.3,254.4z"/>
	<path class="st3" d="M331.2,232.6l1.5-1.5c1,1.1,1.5,2.2,1.6,3.5c0.1,1.3-0.3,2.4-1.2,3.5c-1.1,1.4-2.4,2.1-3.9,2.3
		c-1.5,0.1-3.1-0.4-4.8-1.7c-1.1-0.8-1.9-1.8-2.4-2.7c-0.5-1-0.7-2-0.5-3c0.2-1,0.6-2,1.2-2.9c0.8-1.1,1.8-1.8,2.9-2
		c1.1-0.3,2.2-0.1,3.4,0.5l-1,1.8c-0.8-0.4-1.5-0.5-2.2-0.3c-0.6,0.1-1.2,0.5-1.6,1.1c-0.7,0.9-0.9,1.8-0.7,2.8c0.2,1,1,2,2.3,3.1
		c1.3,1,2.5,1.5,3.5,1.5c1,0,1.8-0.5,2.5-1.3c0.5-0.7,0.7-1.4,0.7-2.1C332.4,234.1,332,233.4,331.2,232.6L331.2,232.6z M338.6,222.7
		l1.5-1.7c0.9,1,1.3,2.1,1.4,3.3c0.1,1.2-0.3,2.4-1.2,3.6c-1,1.5-2.3,2.4-3.9,2.7c-1.5,0.2-3.2-0.2-4.9-1.4
		c-1.8-1.2-2.8-2.6-3.2-4.2c-0.3-1.6,0-3.1,1-4.5c1-1.4,2.2-2.2,3.8-2.4c1.6-0.2,3.2,0.2,4.9,1.4c0.1,0.1,0.3,0.2,0.5,0.3l-5.3,7.8
		c1.2,0.7,2.3,1,3.3,0.8c1-0.2,1.8-0.7,2.4-1.5c0.4-0.6,0.7-1.3,0.6-2C339.4,224.2,339.1,223.5,338.6,222.7L338.6,222.7z
		 M331.7,226.6l4-5.8c-0.9-0.5-1.7-0.8-2.4-0.7c-1.1,0.1-1.9,0.6-2.5,1.5c-0.6,0.8-0.8,1.7-0.6,2.6
		C330.3,225.1,330.9,225.9,331.7,226.6L331.7,226.6z M344.7,211.4l1.3-1.6c1.1,0.9,1.8,2,2,3.3c0.2,1.2,0,2.4-0.8,3.6
		c-0.9,1.5-2.1,2.4-3.6,2.7c-1.5,0.3-3.2-0.1-5-1.2c-1.2-0.7-2.1-1.5-2.7-2.4c-0.6-0.9-0.9-1.9-0.9-3c0-1.1,0.3-2,0.9-3
		c0.7-1.2,1.6-2,2.6-2.3c1-0.4,2.2-0.4,3.4,0.1l-0.8,1.9c-0.8-0.3-1.6-0.3-2.2-0.1c-0.6,0.2-1.1,0.6-1.5,1.2
		c-0.6,0.9-0.7,1.9-0.4,2.9c0.3,1,1.2,1.9,2.6,2.8c1.5,0.9,2.7,1.2,3.7,1.1c1-0.2,1.8-0.7,2.3-1.6c0.4-0.7,0.6-1.5,0.4-2.2
		C346.1,212.8,345.6,212.1,344.7,211.4L344.7,211.4z M338.7,205.4l4.8-9.1l1.6,0.8l-1.9,3.6l9.6,5.1l-1,1.9l-9.6-5.1l-1.9,3.6
		L338.7,205.4L338.7,205.4z M359.9,202.3l-16-7.2l0.8-1.8l1.5,0.7c-0.4-0.7-0.6-1.4-0.7-2c-0.1-0.7,0.1-1.4,0.4-2.1
		c0.4-1,1.1-1.7,1.9-2.3c0.8-0.5,1.8-0.8,2.9-0.7c1.1,0,2.2,0.3,3.3,0.8c1.2,0.5,2.1,1.2,2.9,2.1c0.8,0.8,1.2,1.8,1.3,2.8
		c0.1,1,0,2-0.4,2.9c-0.3,0.7-0.7,1.2-1.2,1.6c-0.5,0.4-1,0.7-1.6,0.8l5.6,2.5L359.9,202.3L359.9,202.3z M350.5,195.9
		c1.5,0.7,2.7,0.9,3.7,0.6c1-0.3,1.7-0.8,2-1.7c0.4-0.9,0.4-1.8-0.1-2.7c-0.5-1-1.5-1.8-3-2.5c-1.5-0.7-2.7-0.9-3.7-0.6
		c-1,0.3-1.7,0.8-2.1,1.7c-0.4,0.8-0.3,1.7,0.2,2.7C348.1,194.4,349.1,195.2,350.5,195.9L350.5,195.9z M349.3,183.3l0.8-2l9,3.4
		l-6.9-9l0.8-2.2l11.9,4.5l-0.8,2l-9-3.4l6.9,9l-0.8,2.2L349.3,183.3L349.3,183.3z M353.5,171.3l0.6-2.1l5,1.5l1.7-5.7l-5-1.5
		l0.6-2.1l12.1,3.7l-0.6,2.1l-5.4-1.6l-1.7,5.7l5.4,1.6l-0.6,2.1L353.5,171.3L353.5,171.3z M366.9,153l0.8-2
		c1.4,0.6,2.3,1.4,2.9,2.5c0.6,1.1,0.7,2.3,0.4,3.7c-0.4,1.7-1.3,2.9-2.6,3.7c-1.3,0.8-3,0.9-5.1,0.4c-1.3-0.3-2.4-0.8-3.3-1.5
		c-0.9-0.7-1.5-1.5-1.8-2.5c-0.3-1-0.3-2.1-0.1-3.1c0.3-1.3,0.9-2.4,1.8-3c0.9-0.7,2-1,3.3-1l-0.2,2.1c-0.9,0-1.6,0.2-2.1,0.6
		c-0.5,0.4-0.9,0.9-1,1.6c-0.2,1.1-0.1,2,0.5,2.8c0.6,0.8,1.7,1.4,3.3,1.8c1.7,0.4,2.9,0.4,3.8-0.1c0.9-0.5,1.5-1.2,1.7-2.2
		c0.2-0.8,0.1-1.6-0.3-2.2C368.6,153.9,367.9,153.3,366.9,153L366.9,153z M359.5,148.1l0.3-2.1l5.4,0.9c0.1-0.7,0.1-1.2-0.2-1.5
		c-0.2-0.3-0.9-0.8-2.1-1.6c-0.9-0.6-1.5-1-1.8-1.3c-0.3-0.3-0.4-0.6-0.5-1c-0.1-0.4,0-0.9,0.1-1.7l0.1-0.4l1.7,0.3l-0.1,0.6
		c-0.1,0.6-0.1,0.9,0.1,1.1c0.1,0.2,0.6,0.5,1.4,1c0.8,0.5,1.3,0.8,1.6,1.2c0.3,0.3,0.5,0.8,0.7,1.4c0.4-0.9,1.4-1.6,3-2.3l4.3-1.7
		l-0.4,2.3l-4.2,1.7c-0.9,0.3-1.4,0.7-1.7,1c-0.3,0.3-0.5,0.7-0.6,1.2l5.8,0.9l-0.3,2.1L359.5,148.1L359.5,148.1z M367.2,139.6
		c-2.3-0.2-4-1-5-2.4c-0.8-1.2-1.2-2.5-1.1-4.1c0.1-1.7,0.8-3.1,2.1-4.1c1.2-1,2.8-1.4,4.8-1.3c1.6,0.1,2.9,0.5,3.8,1
		c0.9,0.6,1.6,1.3,2,2.3c0.4,1,0.6,2,0.5,3.1c-0.1,1.8-0.8,3.2-2,4.1C371,139.4,369.4,139.8,367.2,139.6L367.2,139.6z M367.4,137.4
		c1.6,0.1,2.9-0.1,3.7-0.8c0.9-0.6,1.3-1.5,1.4-2.6c0.1-1.1-0.2-2-1-2.8c-0.7-0.8-1.9-1.2-3.6-1.4c-1.6-0.1-2.8,0.1-3.6,0.8
		c-0.9,0.6-1.3,1.5-1.4,2.6c-0.1,1.1,0.2,2,1,2.8C364.6,136.8,365.8,137.3,367.4,137.4L367.4,137.4z M361.7,125.9l0-7.3l1.8,0l0,5.2
		l10.9,0l0,2.1L361.7,125.9L361.7,125.9z M368.1,118.7c-2.3,0.2-4.1-0.3-5.4-1.5c-1-1-1.6-2.3-1.8-3.8c-0.2-1.7,0.3-3.2,1.3-4.4
		c1-1.2,2.5-1.9,4.5-2.1c1.6-0.1,2.9,0,3.9,0.4c1,0.4,1.8,1,2.4,1.9c0.6,0.9,0.9,1.9,1,3c0.2,1.8-0.3,3.2-1.3,4.4
		C371.8,117.8,370.2,118.5,368.1,118.7L368.1,118.7z M367.9,116.5c1.6-0.1,2.8-0.6,3.5-1.4c0.7-0.8,1.1-1.7,1-2.8
		c-0.1-1.1-0.6-1.9-1.4-2.5c-0.9-0.6-2.1-0.9-3.8-0.7c-1.6,0.1-2.7,0.6-3.4,1.4c-0.7,0.8-1.1,1.7-1,2.8c0.1,1.1,0.6,1.9,1.4,2.6
		C365,116.4,366.2,116.7,367.9,116.5L367.9,116.5z M358.8,99.5l-2.6-8.5l10.4-3.2l-0.4-1.3l5.1-1.6l0.5,1.7l-3.4,1l2.9,9.6l3.4-1
		l0.5,1.7l-5.1,1.6l-0.3-1.1C367.4,97.5,363.7,97.9,358.8,99.5L358.8,99.5z M359.9,97.2c4-1,7.1-1.3,9.3-0.8l-2-6.5l-8.7,2.7
		L359.9,97.2L359.9,97.2z M359.4,77.5l-0.6-2.2c1.3-0.2,2.5,0,3.5,0.6c1,0.6,1.8,1.5,2.4,2.9c0.7,1.7,0.8,3.3,0.2,4.7
		c-0.6,1.4-1.9,2.6-3.7,3.4c-1.9,0.9-3.7,1-5.2,0.5c-1.5-0.5-2.6-1.6-3.3-3.2c-0.7-1.5-0.7-3-0.1-4.5c0.6-1.4,1.9-2.6,3.8-3.4
		c0.1-0.1,0.3-0.1,0.5-0.2l3.8,8.6c1.2-0.6,2.1-1.4,2.5-2.4c0.4-0.9,0.4-1.9,0-2.9c-0.3-0.7-0.8-1.3-1.4-1.6
		C361.2,77.6,360.4,77.4,359.4,77.5L359.4,77.5z M359.1,85.3l-2.8-6.5c-0.9,0.5-1.6,1.1-1.9,1.7c-0.5,1-0.5,1.9-0.1,2.9
		c0.4,0.9,1,1.5,1.9,1.9C357.1,85.7,358,85.7,359.1,85.3L359.1,85.3z M350.4,79.6l-6.2-7.8l9.9-7.9l1.3,1.7l-8.5,6.8l3.5,4.5
		l4.9-3.9c1.2-0.9,1.9-1.5,2.4-1.7c0.4-0.2,0.9-0.3,1.4-0.1c0.5,0.1,1.1,0.5,1.6,1.1c0.3,0.4,0.6,0.9,1,1.4l-1.4,1.1l-0.6-0.7
		c-0.3-0.3-0.5-0.6-0.7-0.7c-0.2-0.1-0.4-0.1-0.6,0c-0.2,0.1-0.7,0.5-1.6,1.1L350.4,79.6L350.4,79.6z M344.8,56.9
		c1,0.1,1.9,0.2,2.7,0.5c0.7,0.3,1.4,0.7,2,1.3c1,1,1.6,1.9,1.6,3c0.1,1-0.2,1.9-1,2.7c-0.4,0.4-0.9,0.8-1.5,0.9
		c-0.6,0.2-1.1,0.2-1.7,0.1c-0.5-0.1-1.1-0.3-1.6-0.6c-0.4-0.2-0.9-0.6-1.6-1.1c-1.4-1-2.5-1.8-3.3-2.1c-0.2,0.2-0.3,0.3-0.4,0.4
		c-0.6,0.6-0.9,1.2-0.8,1.8c0.1,0.7,0.5,1.5,1.3,2.2c0.7,0.7,1.4,1.1,2,1.2c0.6,0.1,1.3-0.1,2.1-0.6l1.3,1.7
		c-0.8,0.5-1.5,0.8-2.2,0.9c-0.7,0.1-1.5,0-2.3-0.4c-0.8-0.4-1.6-0.9-2.4-1.7c-0.8-0.7-1.3-1.4-1.7-2.1c-0.3-0.7-0.5-1.2-0.4-1.7
		c0-0.5,0.2-1,0.5-1.5c0.2-0.3,0.6-0.8,1.3-1.5l2-2.1c1.4-1.4,2.2-2.4,2.5-2.8c0.3-0.4,0.5-0.9,0.7-1.5l1.6,1.5
		C345.4,55.9,345.2,56.4,344.8,56.9L344.8,56.9z M341.6,60.4c0.8,0.3,1.8,0.9,3.1,1.8c0.7,0.5,1.3,0.8,1.7,1
		c0.4,0.1,0.7,0.2,1.1,0.1c0.4-0.1,0.7-0.3,0.9-0.5c0.4-0.4,0.6-0.9,0.5-1.5c-0.1-0.6-0.4-1.2-1-1.7c-0.6-0.6-1.3-0.9-2-1.1
		c-0.7-0.2-1.4-0.2-2,0.1c-0.5,0.2-1.1,0.6-1.7,1.3L341.6,60.4L341.6,60.4z"/>
	<path class="st4" d="M209.4,113.9v30.7c0,3.8-2.5,6.5-6,6.5h-7.8c-2.5,0-3.8,2-4.1,3.5c-0.2-1.6-1.5-3.5-4.1-3.5h-7.8
		c-3.5,0-6-2.7-6-6.5v-30.7H209.4L209.4,113.9z"/>
	<polygon class="st2" points="209.4,121.2 173.7,121.2 173.7,113.9 209.4,113.9 209.4,121.2 	"/>
	<polygon class="st5" points="185.6,123.5 179.6,123.5 179.6,121.2 185.6,121.2 185.6,123.5 	"/>
	<polygon class="st5" points="191.5,123.5 185.6,123.5 185.6,121.2 191.5,121.2 191.5,123.5 	"/>
	<polygon class="st5" points="197.5,123.5 191.5,123.5 191.5,121.2 197.5,121.2 197.5,123.5 	"/>
	<polygon class="st5" points="203.4,123.5 197.5,123.5 197.5,121.2 203.4,121.2 203.4,123.5 	"/>
	<polygon class="st5" points="209.4,123.5 203.4,123.5 203.4,121.2 209.4,121.2 209.4,123.5 	"/>
	<polygon class="st5" points="179.6,123.5 173.7,123.5 173.7,121.2 179.6,121.2 179.6,123.5 	"/>
	<polygon class="st5" points="188.6,121.2 182.6,121.2 182.6,119 188.6,119 188.6,121.2 	"/>
	<polygon class="st5" points="194.5,121.2 188.6,121.2 188.6,119 194.5,119 194.5,121.2 	"/>
	<polygon class="st5" points="200.5,121.2 194.5,121.2 194.5,119 200.5,119 200.5,121.2 	"/>
	<polygon class="st5" points="206.4,121.2 200.5,121.2 200.5,119 206.4,119 206.4,121.2 	"/>
	<polygon class="st5" points="209.4,121.2 206.4,121.2 206.4,119 209.4,119 209.4,121.2 	"/>
	<polygon class="st5" points="176.7,121.2 173.7,121.2 173.7,119 176.7,119 176.7,121.2 	"/>
	<polygon class="st5" points="178.2,119 175.2,119 175.2,116.8 178.2,116.8 178.2,119 	"/>
	<polygon class="st5" points="182.6,121.2 176.7,121.2 176.7,119 182.6,119 182.6,121.2 	"/>
	<polygon class="st5" points="184.1,119 181.1,119 181.1,116.8 184.1,116.8 184.1,119 	"/>
	<polygon class="st5" points="190,119 187.1,119 187.1,116.8 190,116.8 190,119 	"/>
	<polygon class="st5" points="196,119 193,119 193,116.8 196,116.8 196,119 	"/>
	<polygon class="st5" points="201.9,119 199,119 199,116.8 201.9,116.8 201.9,119 	"/>
	<polygon class="st5" points="207.9,119 204.9,119 204.9,116.8 207.9,116.8 207.9,119 	"/>
	<path class="st6" d="M209.4,113.9v30.7c0,3.8-2.5,6.5-6,6.5h-7.8c-2.5,0-3.8,2-4.1,3.5c-0.2-1.6-1.5-3.5-4.1-3.5h-7.8
		c-3.5,0-6-2.7-6-6.5v-30.7H209.4L209.4,113.9z"/>
	<path class="st5" d="M178.2,126.7c0.7-0.8,1.9-1,2.7-0.3c0.8,0.7,1,1.9,0.3,2.7c-0.7,0.8-1.9,1-2.7,0.3
		C177.7,128.7,177.5,127.5,178.2,126.7L178.2,126.7z M177.8,130.4c1.4,1.1,3.4,0.8,4.4-0.5c1.1-1.4,0.8-3.4-0.5-4.4
		c-1.4-1.1-3.4-0.8-4.4,0.5C176.2,127.3,176.4,129.3,177.8,130.4L177.8,130.4z"/>
	<path class="st5" d="M196,149.3c-0.2-0.2-0.4-0.4-0.5-0.8c0.7,0.1,1.6,0.4,3.1,0.3c2-0.2,2.4-0.8,3.4-1.5c0.7-0.5,1.5-0.5,2.1-0.3
		c-0.4-0.6-0.6-1.3-0.2-2.1c0.5-1.2,1-1.7,0.6-3.6c-0.2-1.5-0.8-2.2-1-2.9c0.4,0,0.7,0.1,0.9,0.3c-0.1-0.4-1.2-1.9-2.1-2.5
		c0.2,0.6-0.1,2.5,0.1,3.1c0.3-0.4,0.5-0.7,0.7-0.8c0.1,0.3,0.8,2.6,0.1,3.6c-0.7,1.1-2,1.3-3.4,0.3c-1.1-0.8-13.8-10.1-16.3-12
		c0.5-0.9,0.2-1.9-0.6-2.5c-0.9-0.7-2.2-0.5-2.9,0.3c-0.7,0.9-0.5,2.2,0.3,2.9c0.8,0.6,1.9,0.6,2.6,0c2.5,1.9,14.6,12,15.6,12.9
		c1.3,1.2,1.5,2.5,0.6,3.4c-0.9,0.9-3.2,0.8-3.6,0.7c0-0.2,0.3-0.5,0.6-0.8c-0.6-0.1-2.4,0.8-3,0.7
		C193.9,148.6,195.6,149.2,196,149.3L196,149.3z M182.7,130.2c-0.4,0.6-1.2,0.7-1.8,0.2c-0.6-0.4-0.7-1.2-0.2-1.8
		c0.4-0.6,1.2-0.7,1.8-0.2C183,128.9,183.2,129.7,182.7,130.2L182.7,130.2z"/>
	<path class="st5" d="M179.7,129.8c-0.4,0-0.8-0.1-1.1-0.4c-0.8-0.7-1-1.9-0.3-2.7c0.7-0.8,1.9-1,2.7-0.3c0.8,0.7,1,1.9,0.3,2.7
		c-0.2,0.3-0.5,0.5-0.8,0.6c0.1,0.3,0.2,0.6,0.5,0.8c0.1,0.1,0.2,0.2,0.3,0.2c0.4-0.2,0.7-0.5,0.9-0.8c1.1-1.4,0.8-3.4-0.5-4.4
		c-1.4-1.1-3.4-0.8-4.4,0.5c-1.1,1.4-0.8,3.4,0.5,4.4c0.8,0.6,1.7,0.8,2.5,0.6C180,130.7,179.7,130.2,179.7,129.8L179.7,129.8z"/>
	<path class="st5" d="M186.6,133.4c-1.6,1.8-4.7,3.9-4.7,3.9l-0.7-1l3.9-4.3l3.9-4.3l1,0.6C190,128.3,188.2,131.6,186.6,133.4
		L186.6,133.4z"/>
	<polygon class="st1" points="188.2,128.6 189.4,129.3 188.2,128.6 	"/>
	<line class="st7" x1="188.2" y1="128.6" x2="189.4" y2="129.3"/>
	<polygon class="st1" points="187.9,129 189.2,129.7 187.9,129 	"/>
	<line class="st7" x1="187.9" y1="129" x2="189.2" y2="129.7"/>
	<polygon class="st1" points="187.6,129.3 189,130.1 187.6,129.3 	"/>
	<line class="st7" x1="187.6" y1="129.3" x2="189" y2="130.1"/>
	<polygon class="st1" points="182.1,135.5 182.9,136.6 182.1,135.5 	"/>
	<line class="st7" x1="182.1" y1="135.5" x2="182.9" y2="136.6"/>
	<polygon class="st1" points="182.4,135.1 183.2,136.4 182.4,135.1 	"/>
	<line class="st7" x1="182.4" y1="135.1" x2="183.2" y2="136.4"/>
	<polygon class="st1" points="182.7,134.8 183.6,136.1 182.7,134.8 	"/>
	<line class="st7" x1="182.7" y1="134.8" x2="183.6" y2="136.1"/>
	<path class="st8" d="M179.6,147l0.5-0.4l-0.3-0.5l-0.5,0.4c-0.3-0.2-0.7-0.2-1,0.1c-0.4,0.3-0.4,0.8-0.1,1.2
		c0.3,0.4,0.8,0.4,1.2,0.1C179.7,147.7,179.7,147.3,179.6,147L179.6,147z"/>
	<path class="st9" d="M205.1,131.3c-0.1-0.4-0.3-0.7-0.6-1c0.3-0.1,0.6-0.2,0.8-0.4c1.2-0.9,1.4-2.6,0.5-3.8
		c-0.9-1.2-2.6-1.4-3.8-0.5c-0.2,0.2-0.5,0.4-0.6,0.7c-0.2-0.3-0.5-0.6-0.8-0.8c-1.3-0.8-2.9-0.4-3.7,0.9c-0.8,1.3-0.4,2.9,0.9,3.7
		c0.5,0.3,1,0.4,1.5,0.4l-0.5,0.4L198,131l0,0.4l-0.3,0.2c-0.2-0.1-0.4-0.1-0.6,0c-0.1,0.1-0.2,0.3-0.1,0.5L179.4,146l0.8,1
		l17.7-13.9c0.2,0.1,0.4,0.1,0.6,0c0.1-0.1,0.2-0.3,0.1-0.5l0.3-0.2l0.4,0.1l0.3-0.7l0.5-0.4c-0.1,0.5-0.1,1.1,0,1.6
		c0.5,1.4,2,2.2,3.4,1.7C204.9,134.3,205.6,132.7,205.1,131.3L205.1,131.3z M203.2,133.9c-0.5,0.2-1,0.1-1.4-0.1
		c-0.5-0.2-0.8-0.6-0.9-1.1c-0.2-0.5-0.1-1,0.1-1.4c0-0.1,0.1-0.1,0.1-0.2l-0.4-0.6l0.6-0.5c0.3,0.2,0.7,0.2,1-0.1
		c0.4-0.3,0.5-0.9,0.2-1.3c-0.3-0.4-0.9-0.5-1.3-0.2c-0.3,0.2-0.4,0.6-0.3,1l-0.6,0.5l-0.4-0.6c-0.1,0-0.2,0.1-0.2,0.1
		c-0.5,0.1-1,0-1.4-0.2c-0.4-0.3-0.7-0.7-0.8-1.2c-0.1-0.5,0-1,0.2-1.4c0.3-0.4,0.7-0.7,1.2-0.8c0.5-0.1,1,0,1.4,0.2
		c0.4,0.3,0.7,0.7,0.8,1.2c0,0.1,0,0.2,0.1,0.4l0.8,0c0-0.5,0.2-1.1,0.7-1.4c0.8-0.6,2-0.5,2.6,0.3c0.6,0.8,0.5,2-0.3,2.6
		c-0.5,0.4-1,0.5-1.6,0.3l-0.2,0.8c0.1,0,0.2,0.1,0.3,0.1c0.5,0.2,0.8,0.6,0.9,1.1c0.2,0.5,0.1,1-0.1,1.4
		C204,133.5,203.6,133.8,203.2,133.9L203.2,133.9z"/>
	<path class="st10" d="M205.1,131.3c-0.1-0.4-0.3-0.7-0.6-1c0.3-0.1,0.6-0.2,0.8-0.4c1.2-0.9,1.4-2.6,0.5-3.8
		c-0.9-1.2-2.6-1.4-3.8-0.5c-0.2,0.2-0.5,0.4-0.6,0.7c-0.2-0.3-0.5-0.6-0.8-0.8c-1.3-0.8-2.9-0.4-3.7,0.9c-0.8,1.3-0.4,2.9,0.9,3.7
		c0.5,0.3,1,0.4,1.5,0.4l-0.5,0.4L198,131l0,0.4l-0.3,0.2c-0.2-0.1-0.4-0.1-0.6,0c-0.1,0.1-0.2,0.3-0.1,0.5L179.4,146l0.8,1
		l17.7-13.9c0.2,0.1,0.4,0.1,0.6,0c0.1-0.1,0.2-0.3,0.1-0.5l0.3-0.2l0.4,0.1l0.3-0.7l0.5-0.4c-0.1,0.5-0.1,1.1,0,1.6
		c0.5,1.4,2,2.2,3.4,1.7C204.9,134.3,205.6,132.7,205.1,131.3L205.1,131.3z M203.2,133.9c-0.5,0.2-1,0.1-1.4-0.1
		c-0.5-0.2-0.8-0.6-0.9-1.1c-0.2-0.5-0.1-1,0.1-1.4c0-0.1,0.1-0.1,0.1-0.2l-0.4-0.6l0.6-0.5c0.3,0.2,0.7,0.2,1-0.1
		c0.4-0.3,0.5-0.9,0.2-1.3c-0.3-0.4-0.9-0.5-1.3-0.2c-0.3,0.2-0.4,0.6-0.3,1l-0.6,0.5l-0.4-0.6c-0.1,0-0.2,0.1-0.2,0.1
		c-0.5,0.1-1,0-1.4-0.2c-0.4-0.3-0.7-0.7-0.8-1.2c-0.1-0.5,0-1,0.2-1.4c0.3-0.4,0.7-0.7,1.2-0.8c0.5-0.1,1,0,1.4,0.2
		c0.4,0.3,0.7,0.7,0.8,1.2c0,0.1,0.1,0.2,0.1,0.4l0.8,0c0-0.5,0.2-1.1,0.7-1.4c0.8-0.6,2-0.5,2.6,0.3c0.6,0.8,0.5,2-0.3,2.6
		c-0.5,0.4-1,0.5-1.6,0.3l-0.2,0.8c0.1,0,0.2,0.1,0.3,0.1c0.5,0.2,0.8,0.6,0.9,1.1c0.2,0.5,0.1,1-0.1,1.4
		C204,133.5,203.6,133.8,203.2,133.9L203.2,133.9z"/>
	<polygon class="st8" points="179.9,144.6 180.4,145.3 181.7,144.2 181.2,143.5 179.9,144.6 	"/>
	<polygon class="st8" points="182.2,142.5 181.7,142.4 181.7,141.8 180.7,140.5 179.9,141.1 180.9,142.3 180.2,142.8 179.2,141.6 
		178.5,142.2 179.4,143.4 178.7,144 177.8,142.8 177,143.3 178,144.6 178.6,144.8 178.6,145.3 178.8,145.4 182.3,142.7 182.2,142.5 
			"/>
	<path class="st11" d="M160.8,174.4c0.2,0,0.2-0.1,0.2,0.6c0,0.1,0.1,0.3,0.2,0.4c-0.4,0.7-0.8,1.2-1.2,1.7
		c-0.2,0.3-0.4,0.5-0.5,0.7c-0.2,0.4-0.6,0.5-1.2,0.8c-0.3,0.1-0.6,0.2-1,0.4c-0.5,0.2-0.9,0.1-1.4-0.1c-0.7-0.3-1.4-1-1.7-1.4
		c-0.4-0.4-0.6-0.7-1-0.8c-0.4-0.1-0.7-0.1-1.3-0.1c-0.6,0-0.7-0.4-0.8-0.8c0-0.1-0.1-0.3-0.1-0.4c-0.2-0.6-0.6-0.5-1.1-0.2
		c-0.3,0.1-0.7,0.3-1.3,0.3c-0.7,0-1.4,0.1-2.1,0.5c-0.7,0.3-1.4,0.8-2.3,1.5c-0.8,0.6-1.4,0.9-1.9,0.9c-0.5,0-1-0.2-1.5-0.4
		c-0.7-0.3-0.8-1.6-0.9-2.5c0-0.2-0.1-0.4-0.1-0.6c-0.1-0.6-0.8-1-1.6-1.4c-0.5-0.3-1.1-0.7-1.5-1c-0.7-0.7-0.8-1.9-0.8-3.2l0-0.6
		c-0.1-1.1,0.2-1.2,0.6-1.3c0.1,0,0.2-0.1,0.3-0.1c0.4-0.2,0.8-0.4,1.1-0.6c0.3-0.3,0.5-0.6,0.5-0.9c0-0.3-0.3-0.7-0.6-1.1
		c-0.3-0.4-0.7-0.8-1-1c-0.3-0.3-0.6-0.8-0.9-1.3c-0.3-0.5-0.6-1-0.9-1.4c0,0,0.1,0,0.1,0c0.4-0.3,1.2-0.7,2-1
		c0.6-0.2,1-0.4,1.2-0.6c0.5-0.4,0.4-3.9,0.3-6.1c0-0.8,0-1.4,0-1.7c0-0.9-0.7-1.8-1.5-2.7c-0.2-0.3-0.4-0.5-0.6-0.8
		c-0.3-0.4,0.3-1.1,0.9-1.7c0.4-0.4,0.7-0.7,0.8-1.1c0.1-0.4,0.4-2.8,0.6-5c1.9-1.4,0.2-1.3,3.8-1.4c0.5,0.2,3.4,3.6,5.4,5.1
		c3.8,3,5.1,2.9,7.4,9.5c2.2,6.2,2.6,5.7,2.4,10.3C157.5,167,158.1,173.8,160.8,174.4L160.8,174.4z"/>
	<path class="st11" d="M135.2,135.8c0.6,0.8,2.2,3,2.8,4.1L138,141c-0.3,0.9-0.4,2.1-0.3,2.8c-0.1,0.5-0.1,0.9-0.2,1
		c-0.1,0.2-0.3,0.5-0.7,0.8c-0.7,0.8-1.6,1.7-1,2.6c0.2,0.3,0.4,0.5,0.6,0.8c0.6,0.8,1.3,1.6,1.3,2.3c0,0.3,0,0.9,0,1.7
		c0,2.1,0.1,5.4-0.1,5.6c-0.1,0.1-0.5,0.3-1.1,0.5c-0.8,0.3-1.7,0.7-2.2,1.1c-0.3,0.3-0.4,0.6-0.2,0.9c0.3,0.3,0.6,0.8,0.9,1.3
		c0.4,0.6,0.7,1.1,1,1.5c0.3,0.3,0.6,0.6,0.9,1c0.3,0.3,0.5,0.6,0.5,0.7c0,0.1-0.1,0.2-0.3,0.4c-0.2,0.2-0.6,0.4-0.9,0.5
		c-0.1,0-0.2,0.1-0.3,0.1c-0.8,0.2-1.2,0.4-1.1,2l0,0.6c0.1,1.4,0.2,2.7,1,3.6c0.4,0.4,1.1,0.8,1.6,1.2c0.6,0.4,1.2,0.7,1.3,1
		c0,0.1,0.1,0.3,0.1,0.5c0.1,1,0.3,2.5,1.3,3c0.5,0.3,1.1,0.5,1.8,0.5c0.7,0,1.4-0.3,2.3-1c0.8-0.7,1.5-1.1,2.1-1.4
		c0.6-0.3,1.1-0.4,1.8-0.4l0.1,0l-0.2,3.7c0,0.5-0.1,0.9-0.2,1.3c-0.1,0.3-0.2,0.6-0.3,0.7c0,0-0.2,0.1-0.3,0.1
		c-0.1,0-0.2,0.1-0.3,0.1c-0.6,0.2-1.1,0.6-0.7,1.6c0.2,0.6,0.4,1.1,0.4,1.6c0,0.4,0,0.7-0.1,0.9c-0.1,0.1-0.6,0.4-1.2,0.6
		c-0.7,0.3-1.5,0.7-1.7,1c-0.1,0.2-0.4,0.7-0.6,1.1c-0.2,0.6-0.5,1.2-0.6,1.7c-0.1,0.1-0.1,0.4-0.3,0.6l0,0.1
		c-0.2,0.5-0.5,1-0.7,1.5l-0.3,0.4c-0.6,0.4,0.3,0.3-1.3-0.2c-7.4-1.9-6.7,1.1-12.9,0.6c-8.4-0.7-3.1-5.3-9.3-7.7
		c2-3.7-2.3-2.1-3.6-3c-1.5-1-2.5-3.9-2-5.5c1.3-0.5,1.4-0.5,2.6,0.1c1.6-8.5-0.9-5.1,1.1-10.4c0.1-0.1,1.9-9.3,1.2-9.9
		c-2.3-0.9-3.1,2-3.5,3.9c-0.6,2.9-2.4,3-5,3c-1.8,0.7-1.4,2.1-2.9,3.4c-4.2,3.8-2.5,4.3-8.1,4.2c-2.3,0-2.5-0.3-3.9-2.1
		c1.3-1.6,2-2.5,3.3-3.9c1.1-1.2,0.5-0.6,1.7-1.6l2.8-2.7c3.4-3,2.2-3.9,6.5-5.3c0.3-4.9,3.3-4.4,4.5-5.2c0.9-0.6,1.1-1.9,1.8-2.8
		c1.8-2.4,1.5-0.8,6.1-7.8c1.6-2.5,5-2.5,6.3-2.9c1-2.7-0.9-5.7,4.4-5.1c1.5,2-0.7,1.1,1.6,2.2C134.6,135.1,133.5,133.6,135.2,135.8
		L135.2,135.8z"/>
	<path class="st11" d="M243.8,216.8c0.4,0.7,3.4,0.6,5.7,0.4c1-0.1,1.8-0.1,2.3-0.1c0.9,0,1.9,1,2.7,1.7c0.4,0.4,0.8,0.7,1.1,0.8
		c0.1,0,0.1,0,0.2,0c0.4,0.1,0.8-0.2,1.1-0.5c0.3-0.3,0.5-0.8,0.7-1.2c0.1-0.2,0.1-0.4,0.2-0.6c0.1-0.5-0.2-1.1-0.5-1.8
		c-0.3-0.7-0.7-1.5-0.6-2.2c0-0.5,0.5-1.3,1.1-2.1c1-1.5,2.4-3.1,2.8-3.6c0.3-0.3,0.9-0.5,1.4-0.7c0.7-0.3,1.4-0.5,2-1.1
		c0.5-0.5,0.9-1.4,1.2-2.3c0.3-1,0.5-2.2,0.5-3.2c0-0.9-0.1-1.7-0.3-2.4c-0.2-0.7-0.6-1.3-1.2-1.7c-0.3-0.2-0.4-0.6-0.5-1
		c-0.1-0.8,0.2-1.8,0.3-1.9c0.1-0.2,0.7-0.9,1.5-1.5c0.5-0.3,1-0.6,1.6-0.8c0.4,0,0.9,0,1.5,0.1c0.3,0.1,0.6,0.2,0.8,0.4
		c0,0,0,0.1,0,0.1c0,2.1,0.1,1.9,0.6,4c0.4,1.7-0.5,2.2-0.1,4.3c0.4,2.6,3.1,2.9,5,4.5c0.1,0.1,0.1,0.1,0.2,0.2c0.4,1.3,1,5.3,1,6.5
		c-0.2,9.8,3.7,5.2,5.5,8c0.1,0.2,0.1,0.3,0,0.5c-1,1.8-0.9-0.6-2.6,1.3c-2.2,2.5,2.2,3.8-0.3,8.5c-0.5,0.8-1.1,1.6-1.3,2.4
		c-0.5,2,0.7,0.5-0.5,2.5c-2.7,4.4-1.1,0.9-1,4.7c0,0.1,0,0.3-0.1,0.4c-1,1-3.4,1.9-4.9,2.9c-3.2,2.2-2.6,1.3-5.6,1.5
		c-0.2,0-0.3,0.1-0.4,0.3c-0.1,0.2,0,0.4,0.1,0.5l0.5,0.6c0.1,0.1,0.1,0.3,0.1,0.5c-1,2.9-1.7,3-4.5,4.5c-0.1,0.1-0.3,0.1-0.4,0
		c-2.7-0.9-6.6-3.5-8.7-3.7c-3.5-0.4-4,2.4-9.6-0.3c-0.2-0.1-0.3-0.3-0.3-0.5l0.1-2.7c0-0.1,0-0.3-0.1-0.4l-0.7-0.7
		c-0.1-0.1-0.3-0.2-0.4-0.1c-2,0.3-1.6,0-3.2-0.7c-0.2-0.1-0.3-0.2-0.3-0.4c-0.1-1.8,0.4-2.1-1.1-3.2c-1.6-1.2-1.6-0.6-1.5-2.5
		c0-0.1,0.1-0.3,0.2-0.4c0.1-0.1,0.2-0.1,0.4-0.1c0.2,0,0.2,0,0.2-0.1c0-0.3,0.2-0.5,0.4-0.5c1-0.1,0.2,0.1,0.5-0.7
		c0-0.1,0-0.1,0-0.2l0-0.1c0-0.2-0.1-0.3-0.2-0.4c0-0.3-0.1-0.7-0.2-1l0,0c-0.1-0.3-0.3-0.7-0.6-1.2c-0.5-0.7-1-1.6-1.3-2
		c-0.2-0.3-0.3-0.8-0.4-1.5c-0.1-0.8,0-1.6,0.1-2.3c0.1-0.7,0.5-0.6,1-0.5c0.3,0.1,0.7,0.1,1.1,0.1c1.1-0.2,1.1-0.9,1-1.7
		c0-0.2,0-0.4,0-0.6c0-0.5-0.1-1.2-0.3-1.9c-0.2-0.7-0.4-1.3-0.7-1.7c-0.3-0.5-0.1-1,0.1-1.4c0.1-0.1,0.1-0.2,0.1-0.4
		c0.1-0.3,0.9-1.2,1.7-2c0.3-0.3,0.5-0.6,0.7-0.8c0.3-0.4,0.6-1,0.7-1.6c0.2-0.9,0.3-1.9,0.4-2.4c0-0.3,0.1-0.5,0.3-0.6
		c0.2-0.1,0.5-0.2,0.8-0.3c0.4-0.1,1.3,0,2.1,0.4c0.6,0.3,1.2,0.7,1.6,1.3c0.5,0.8-0.4,1.6-1.1,2.3c-0.4,0.3-0.7,0.6-0.8,0.9
		c-0.2,0.6,0.4,1.5,0.9,2.3C243.5,216.4,243.7,216.6,243.8,216.8L243.8,216.8z"/>
	<path class="st11" d="M198.5,219.2c0.2,0.1,0.4,0.2,0.6,0.3c0.1,0.1,0.1,0.1,0.2,0.1c0,0.1-0.1,0.1-0.1,0.2
		c-0.3,0.4-0.7,0.9-0.6,1.7l0,0.1c0.1,0.5,0.4,0.8,0.9,0.9c0.4,0.1,0.8,0.1,1.2,0.1c0.2,0,0.4,0,0.6,0c0.3,0,0.6-0.2,1-0.4
		c0.5-0.2,1.1-0.5,1.5-0.5c-0.1,0.2-0.2,0.4-0.3,0.6c-0.2,0.3-0.4,0.7-0.5,1c0,0.2-0.1,0.5-0.2,0.8c-0.2,0.6-0.3,1.2-0.3,1.7
		c0,0.6,0.3,0.8,0.8,0.8c0.1,0,0.3,0,0.5-0.1c0.3,0,0.6-0.1,1-0.1c0.6,0,1.4,0,2-0.1c0.7-0.1,1.3-0.3,1.6-0.7
		c0.3-0.4,1.3-0.5,1.3-0.5l0.1,0l0.1,0c0,0,0.5-0.2,1.1-0.4c0,0,0.1,0,0.1,0c0.6-0.2,1.4-0.4,1.8-0.4c0,0,0.1,0,0.1,0
		c0.1,0,0.1,0.1,0.2,0.2c0,0.1,0,0.3,0,0.5c0,0.4-0.2,0.8-0.3,1.1c-0.2,0.5-0.1,1.1,0.2,1.7c0.3,0.5,0.8,1,1.4,1.3
		c0.9,0.4,1.8,0,2.3-0.2l0,0.4c-0.1,1.2-0.2,3.2,0.2,3.9c0.5,0.9,1.9,2.1,2.2,2.3l0,0.1c0,0,0,0.1,0,0.1l0,0c0,0.2-0.1,0.3-0.3,0.4
		l-1.6,0.6c-0.1,0.1-0.3,0.2-0.3,0.3c-0.5,1.8,0.4,1.6-1.4,2.9c-0.9,0.6-2.1,1-2.8,1.8c-2,2.4,0,4.8-0.2,6.5c0,0,0,0.1,0,0.1
		c-0.5,1.8-2.3,3.4-4.4,3.8c-0.3,0-0.5-0.1-0.6-0.4l-0.4-1.9c0-0.2-0.2-0.3-0.4-0.4c-1.2-0.2-2.2-0.4-3.4-0.9
		c-0.2-0.1-0.4-0.3-0.3-0.6l1-3.6c0.1-0.2,0-0.4-0.2-0.6c-0.9-0.6-1.7-1.1-2.5-2c-0.1-0.1-0.1-0.3-0.1-0.5c1.4-3.5,0.8-2.1-5.2-3
		c-5.8-0.8-3.3,1.4-8.2,1.1c-0.1,0-0.3-0.1-0.4-0.2c-0.1-0.1-0.1-0.2-0.1-0.4l0.2-1.7c0-0.2,0-0.3-0.1-0.4c-0.1-0.1-0.3-0.2-0.4-0.1
		c-1.1,0.1-0.5,0.5-1.2,0c-0.1-0.3-0.2-0.6-0.2-0.9l0-0.7c0-0.1,0-0.2-0.1-0.3l-0.5-0.6c-0.5-1.2-1.1-1.8-1.2-2
		c-0.1-0.3-0.3-1-0.3-1.4c0-0.1,0-0.2-0.1-0.3c0.6-0.2,2-0.8,2.3-1.5c0.3-0.7,0.2-1.3,0-2.1c-0.1-0.3-0.1-0.7-0.1-1
		c0-0.4,1.1-1,2.2-1.6c0.9-0.5,1.7-0.9,2-1.3c0.2-0.4,0.2-1,0.2-1.7c0-0.9-0.1-1.9,0.4-2.9c0.5-1,1.7-0.9,2.6-0.9c0.4,0,0.7,0,1-0.1
		c0.4,0.2,1.2,0.6,1.7,0.9c0.3,0.2,0.7,0.3,1.1,0.3c0.6,0.1,1.2,0.1,1.4,0.1C198.1,219,198.3,219.1,198.5,219.2L198.5,219.2z"/>
	<path class="st11" d="M189.6,223.2L189.6,223.2L189.6,223.2z"/>
	<path class="st11" d="M223.8,191.3c0.1,0,0.4,0.9,0.5,1.6l0.1,0.4c0.1,0.4,0.5,1,0.9,1.5c0.6,0.7,1.4,1.5,2,2.1
		c0.5,0.5,1.6,0.8,2.7,1c1.5,0.3,3.2,0.3,3.9,0.1c1-0.2,0.9-0.8,0.8-1.4c0-0.2-0.1-0.5,0-0.7c0.1-0.4,0.2-1.1,0.3-1.9
		c0-0.4,0-0.8,0-1.2c1.1,0.3,4.3,1.2,5.6,1.3c0.9,0.1,4.7,0,8.1-0.1c2.8-0.1,5.4-0.3,5.6-0.5c0.2-0.2,0.4-0.5,0.5-1.2
		c0.1-0.6,0.2-1.5,0.2-3c0.1-2.3,1.6-4.3,2-4.7c0.3,0,0.5-0.1,0.8-0.1c0.5-0.1,1.1-0.2,1.8,0.1c0.4,0.2,0.6,0.4,0.8,0.7
		c0.4,0.5,0.7,0.9,1.9,1l0.4,0c1.2,0.1,1.7,0.1,1.7,0.4l0,0.1c0,0.2,0,0.3,0,0.5h0c0,0.7,0.2,1.3,1,1.3c0.4,0,1.9-0.1,3.4-0.2
		c0.6,0.6,0.8,1,1.3,1.9c0.1,0.1,0.1,0.3,0,0.5c-0.1,0.1-0.2,0.2-0.3,0.2c-0.6-0.4-1.5-0.9-2.7-0.7c-0.1,0-0.2,0-0.3,0.1
		c-1.2,0-2,0.3-1.2,0.5c-0.2,0.1-0.4,0.2-0.6,0.4c-1,0.7-1.7,1.7-1.8,1.9c-0.1,0.2-0.4,1.2-0.3,2.2c0.1,0.6,0.3,1.1,0.7,1.5
		c0.5,0.3,0.8,0.8,0.9,1.3c0.2,0.6,0.2,1.3,0.2,2.2c0,0.9-0.2,2-0.5,3c-0.3,0.9-0.6,1.6-1,2.1c-0.4,0.4-1.1,0.7-1.7,0.9
		c-0.7,0.2-1.3,0.5-1.7,0.9c-0.5,0.5-1.9,2.2-2.9,3.7c-0.6,1-1.1,1.9-1.2,2.5c0,0.8,0.3,1.7,0.7,2.5c0.3,0.6,0.5,1.1,0.4,1.4
		c0,0.1-0.1,0.3-0.1,0.4c-0.1,0.3-0.4,0.7-0.6,1c-0.2,0.2-0.4,0.4-0.5,0.3l0,0c-0.2-0.1-0.5-0.4-0.9-0.7c-0.8-0.8-2-1.8-3.1-1.8
		c-0.5,0-1.3,0-2.3,0.1c-2.1,0.1-4.9,0.3-5.1-0.1c-0.1-0.2-0.3-0.5-0.5-0.8c-0.4-0.6-0.9-1.4-0.8-1.7c0-0.1,0.3-0.3,0.6-0.6
		c0.9-0.8,2.1-1.8,1.2-3.1c-0.5-0.7-1.1-1.2-1.9-1.5c-1-0.4-2-0.6-2.5-0.5c-0.4,0.1-0.8,0.2-1.1,0.4c-0.3,0.2-0.5,0.6-0.5,1.1
		c0,0.5-0.1,1.4-0.4,2.3c-0.1,0.5-0.3,1-0.6,1.3c-0.2,0.2-0.4,0.5-0.7,0.7c-0.8,0.8-1.7,1.8-1.8,2.3c0,0.1-0.1,0.2-0.1,0.3
		c-0.2,0.5-0.6,1.2-0.1,2c0.2,0.4,0.4,0.9,0.6,1.5c0.2,0.6,0.3,1.3,0.3,1.7c0,0.2,0,0.4,0,0.6c0,0.5,0.1,1-0.4,1
		c-0.3,0-0.6,0-0.9-0.1c-0.8-0.1-1.5-0.3-1.7,1c-0.1,0.8-0.2,1.7-0.1,2.5c0.1,0.8,0.2,1.4,0.5,1.8c0.3,0.4,0.9,1.2,1.3,1.9
		c0.3,0.5,0.5,0.9,0.6,1l0,0c0.1,0.3,0.2,0.6,0.2,0.9c0,0-0.1,0.1-0.1,0.1c-0.1,0.2-0.2,0.3-0.3,0.5l0,0l-0.6,1c0,0,0,0.1-0.1,0.1
		c-1.6,6.1-4.9,2.1-6.8,1.2c-0.1,0-0.1,0-0.2,0c-3,0-4.9,1-7.7-0.4c0,0-0.1,0-0.1,0l-0.1-0.1l0-0.1l-0.1,0c0,0-1.6-1.2-2.1-2.2
		c-0.3-0.6-0.2-2.5-0.1-3.6c0-0.5,0.1-0.8,0-1c-0.1-0.3-0.3-0.3-0.6-0.3c-0.1,0-0.2,0.1-0.3,0.1c-0.4,0.2-1.1,0.5-1.8,0.2
		c-0.5-0.2-0.9-0.6-1.1-1c-0.2-0.4-0.3-0.8-0.2-1.1c0.1-0.3,0.3-0.8,0.4-1.3c0-0.3,0-0.6,0-0.8c-0.1-0.3-0.2-0.5-0.5-0.6
		c-0.1,0-0.2-0.1-0.3-0.1c-0.5-0.1-1.1,0.1-1.7,0.3c-0.1-0.4-0.1-1.2,0-1.5c0.1-0.3,0.6-0.9,1-1.4c0.5-0.6,0.9-1.2,1-1.5
		c0.1-0.2,0.1-0.6,0.1-1c0-0.7,0.1-1.6,0.3-2.2c0.3-0.7,2.3-0.8,3.2-0.8l0.3,0c0.4,0,0.9-0.3,1.3-0.7c0.6-0.6,1-1.4,1-1.6
		c0-0.2-0.1-0.4-0.3-0.7c-0.2-0.4-0.5-1-0.4-1.2c0-0.2,1.5-0.1,2.6-0.1c0.5,0,0.9,0,1.1,0c0.4-0.1,0.7-0.8,0.7-1.8
		c0.1-1.5,0.1-3.6,0.1-4.2c0-0.8-1.1-2-1.9-2.8c-0.3-0.3-0.5-0.5-0.6-0.7c-0.2-0.3-0.4-1.3-0.5-2c-0.1-0.4-0.1-0.8-0.2-1
		c-0.1-0.4-0.8-1.4-1.2-2.1c-0.2-0.3-0.4-0.6-0.5-0.7c-0.1-0.2,0.3-0.8,0.6-1.4c0.1-0.2,0.3-0.4,0.3-0.6c0.1-0.2,0.2-0.5,0.3-0.8
		c0.2-0.6,0.4-1.4,0.7-1.4c0.2-0.1,0.8-0.1,1.4-0.2C222.6,191.3,223.6,191.2,223.8,191.3L223.8,191.3z"/>
	<path class="st11" d="M219.3,193.8L219.3,193.8L219.3,193.8z"/>
	<path class="st11" d="M254.8,192.4L254.8,192.4L254.8,192.4z"/>
	<path class="st11" d="M127.9,251.1c0.2,0.4,1,1.1,1.7,1.7c0.6,0.4,1.2,0.8,1.5,0.7c0.3-0.1,0.7,0,1,0c0.4,0.1,0.8,0.2,1.1,0.3
		c0.1,0,0.2,0.1,0.3,0.2c0.9,0.5,2.4,1.3,3.9,0.9c0.8-0.2,1.5-0.5,1.9-0.8c0.5-0.4,0.8-0.9,0.8-1.5c0-0.2,0-0.3,0-0.5
		c0.1-1.2,0.3-3.2-0.5-3.8c-0.2-0.2-0.4-0.3-0.7-0.5c-0.7-0.5-1.6-1.2-1.5-1.9c0.1-0.9,3.3-2.6,4.6-3.2l0.3-0.2l0.4-0.2l0.5-0.3l0,0
		c0.8-0.4,1.8-0.9,2.2-0.5c0.4,0.3,0.7,0.6,0.9,1c0.2,0.4,0.4,0.7,0.5,1.1c0,0.2,0.1,0.5,0.1,0.8c0.1,0.8,0.1,1.7,0.7,2.1
		c0.2,0.2,0.4,0.5,0.6,0.8c0.2,0.5,0.3,1,0.3,1.4c0,0.2,0,0.5,0,0.9c-0.1,1.2-0.2,3.1,0.2,3.4c0.1,0.1,0.3,0.7,0.6,1.4
		c0.5,1.2,1,2.6,1.6,2.6c0.1,0,0.2,0,0.3,0c0.6,0.1,1.4,0.2,2-0.3l0.2-0.1c0.5-0.4,1-0.8,2.1-0.6c0.8,0.2,1.2,0.2,1.6,0.2h0
		c0.4-0.1,0.6-0.3,0.8-0.8c0.2-0.3,0.2-0.8,0.3-1.2c0.1-0.6,0.2-1.3,0.5-1.5c0.2-0.1,0.6,0,0.9,0.1c0.3,0.1,0.7,0.3,0.9,0.4
		c0,0,0.1,0.1,0.1,0.1c0.1,0.1,0.2,0.1,0.2,0.1l0,0c0.2,0.3,1,1.2,3,0.6c0.9-0.2,2.3-0.6,4-0.6c1.1,0,2.4,0,3.7,0.3
		c0,0.2,0,0.3,0.1,0.5l0.2,0.1c0.1,0.1,0.2,0.3,0.1,0.5c-0.8,2.3-2,1.3-4.1,2.8c-0.2,0.1-0.3,0.4-0.2,0.6l0.5,1.5
		c0.1,0.2,0,0.4-0.2,0.6c-1,0.7-1.8,0.8-2.4,2.1c-1.2,2.4,0.2,0.9-2.1,2.9c-1.3,1.1-2.7,4.1-4.1,5.5c0,0,0,0-0.1,0.1l-4.6,3.3
		l-0.1,0c-2.4,1.3-3.1,0.1-6.2,0.1c-1.6,0-2.3,0.3-3.5,0.4c-0.2,0-0.3,0.1-0.4,0.2c-0.1,0.1-0.1,0.3,0,0.4c0.5,1.3-0.5,0.4,0.1,2.3
		c0.3,0.8,1.3,2.2,1.5,2.7c0.6,1.9-0.2,1.8-0.1,3.5c0.1,1.1,0.6,1.7,0.5,2.8c0,0.2-0.2,0.4-0.4,0.5c-3,0.8-2.9-0.8-4.7-0.5
		c-1.6,0.3-3.3,1.4-5.3,0.3c-3-1.6-0.9-4.5-6.3-5.9c-3.6-0.9-1.5-0.3-3.6-2.8c-0.9-1.1-1.9-1.9-2.8-3.1c-3.8-5-3.4-5.6-2.7-7.5
		c0.1-0.2,0-0.3-0.1-0.4c-0.1-0.1-0.2-0.2-0.4-0.2c-5.3-0.4-2.1,2-8.6-1.6l-0.6-0.3c0.4-0.7,0.9-1.9,0.9-2.4c0-0.4,0-1.3,0-2.2
		c0-0.8,0.1-1.6,0.2-1.8c0.1-0.1,0.5-0.3,1-0.6c1.2-0.7,3-1.8,3.4-2.8c0.3-0.7,1.2-2,2.1-2.9c0.6-0.6,1.2-1.1,1.4-1l0,0l0.3,0.2
		c0.8,0.4,1.9,0.9,3.1,0.7c0.5-0.1,1.1-0.3,1.8-0.6C126.7,251.4,127.8,251,127.9,251.1L127.9,251.1z"/>
	<path class="st11" d="M160.8,253.3L160.8,253.3L160.8,253.3z"/>
	<path class="st11" d="M160.8,253.3L160.8,253.3L160.8,253.3z"/>
	<path class="st11" d="M139.5,254.1L139.5,254.1L139.5,254.1z"/>
	<path class="st11" d="M101.3,242.4c0.8-0.6,1.3-0.9,1.7-1.1c0.9-0.1,4.2-0.4,4.7,0.4c0.3,0.5,0.7,1.1,1,1.7
		c0.3,0.7,0.6,1.4,0.8,1.8c0.1,0.3,0.1,0.7,0.1,1.1c0,0.9,0,1.8,0.8,2c0.5,0.1,0.8,0.1,1.1,0.1c0.3-0.1,0.6-0.3,0.9-0.7
		c0.3-0.4,0.3-0.9,0.2-1.3c0-0.4,0-0.7,0.2-0.8c0.3-0.1,0.6,0,1,0.1c0.7,0.2,1.5,0.6,1.7,0.7c0.1,0.1,0.4,0.2,0.8,0.4l0,0
		c0.1,0,0.2,0.1,0.4,0.1c0.4,0.1,0.7,0.2,1,0.2c0.3,0,0.7,0.2,1,0.4c0.2,0.2,0.4,0.3,0.4,0.5c0,0.5,0.6,2.1,0.9,2.9
		c-0.5,0.2-1,0.6-1.5,1.2c-0.9,1-1.9,2.3-2.2,3.1c-0.4,0.8-2,1.8-3.2,2.4c-0.6,0.3-1.1,0.6-1.2,0.8c-0.2,0.3-0.3,1.2-0.4,2.2
		c0,0.9,0,1.9,0,2.2c0,0.4-0.5,1.4-0.9,2.1c-5.2-2.7-5.5-1.2-7.7-1.2c-0.2,0-0.3-0.1-0.4-0.2c-1-1.7,1.2-1.4-1.8-3.3
		c-2.6-1.6-11.3,0.4-11.6-5.9c0-0.2,0-0.3,0.2-0.4c2.4-2.2,2.2,1.6,3.2-5.8c0.4-2.8,1.7-2.8,3.6-4.8c0.1-0.1,0.3-0.2,0.5-0.1
		C98.1,243.8,99.9,243.4,101.3,242.4L101.3,242.4z"/>
	<path class="st11" d="M118,215.6L118,215.6c-0.1,1.1-0.1,2.4,0.1,3.1c0.4,0.9,1,2,1.5,2.7c0.2,0.3,0.3,0.5,0.4,0.6l0.1,0.1l0.1,0.2
		c0.1,0.2,0.3,0.4,0.4,0.6c0.4,0.5,0.8,1.1,0.9,1.4c0.1,0.3,0.2,1,0.2,1.6c0,0.6,0,1.1,0,1.2c0,0.1-0.5,0.4-1,0.9
		c-1,0.8-2.3,1.9-2.5,2.5c-0.1,0.2-0.2,0.4-0.2,0.5c-0.3,0.7-0.7,1.3,0.1,2.3c0.1,0.1,0.2,0.3,0.3,0.4c0.3,0.5,0.5,1,0.6,1.4
		c0.1,0.4,0.1,0.6,0,0.7c0,0,0,0,0,0c-0.1,0.1-0.3,0.1-0.4,0.2c-0.7,0.2-1.6,0.5-1.7,2.2c-0.1,1.6-0.6,6.5-0.8,8
		c-0.2-0.1-0.3-0.1-0.3-0.2c-0.2-0.1-1-0.5-1.8-0.8c-0.5-0.1-1-0.2-1.4-0.1c-0.8,0.2-0.7,0.8-0.7,1.5c0,0.3,0,0.7-0.1,0.9
		c-0.2,0.3-0.3,0.4-0.5,0.4c-0.2,0-0.4,0-0.8-0.1c-0.3-0.1-0.3-0.7-0.3-1.3c0-0.5,0-0.9-0.1-1.3c-0.2-0.5-0.4-1.2-0.8-1.9
		c-0.3-0.6-0.7-1.3-1-1.8c-0.6-1-3.4-0.9-4.8-0.8c-0.1-0.2-0.2-0.3-0.4-0.3c-0.4-0.1-0.8-0.2-1.1-0.4c-0.1-0.1-0.2-0.2-0.2-0.4
		c-0.1-1.2,0.1-2.4,0.6-3.4c0.1-0.2,0-0.4-0.1-0.5c-0.9-0.9-1.4-1.3-2.1-2.5c-1.3-2-1.3-0.8-2.2-2.2c0-0.1-0.1-0.1-0.1-0.2
		c-0.1-1.1,0.7-1.5,0.9-3c0.7-5.1-1.1-7.8-1.6-10.7c0-0.2,0-0.3,0.1-0.4c0.1-0.1,0.2-0.2,0.4-0.2c4.3,0.3,3,3.3,8.2,6.5
		c0.2,0.1,0.5,0.1,0.7-0.1l1.9-2.6c1.5-2.1,2.9-7.8,9.2-5.1c0.1,0,0.1,0.1,0.2,0.1C118,215.3,117.9,215.2,118,215.6L118,215.6z"/>
	<path class="st11" d="M150,214.8c0.2,0.8,0.8,1.4,1.2,2c0.4,0.5,0.8,0.9,0.6,1.2c-0.4,0.8-0.7,2.7-0.8,3.3
		c-0.4,0.2-1.4,0.6-1.9,0.3c-0.3-0.1-0.5-0.5-0.7-0.8c-0.4-0.6-0.8-1.3-1.7-1.3c-0.3,0-0.6,0-1-0.1c-1.3-0.1-3-0.3-3.5,0.4
		c-0.2,0.3-0.6,0.9-1,1.4c-0.4,0.4-0.8,0.8-1.2,0.8c-0.3,0-0.9-0.1-1.5-0.2c-0.9-0.1-1.9-0.3-2.5-0.2c-0.1,0-0.3,0-0.4,0.1
		c-1.6-0.8-2.2-1.8-2.7-2.5l0-0.1c-0.4-0.6-1-0.5-1.6,0.1c-0.5,0.4-1,1.1-1.4,1.6c-0.6,0.8-2-0.7-2-0.7l-0.1-0.1l-0.1,0
		c0,0-3.4-0.1-4.3,0c-0.7,0.1-2.1,1.2-2.6,1.6l-0.1-0.1l-0.1-0.1c-0.1-0.2-0.2-0.4-0.4-0.7c-0.5-0.7-1.1-1.7-1.5-2.5
		c-0.2-0.5-0.2-1.4-0.1-2.4c1.6,0.6,4,0.2,5.3-1c0.2-0.2,0.2-0.5,0.1-0.7c-1.7-2.4-0.7-2.7-0.6-2.9c0.8-2.3,0.7-1.1-1.5-3.5
		c-0.2-0.2-0.2-0.4,0-0.6c2.4-3.6,5.8-4.5,9.4-2c3.3,2.3-0.1-0.3,5.2,2c1.3,0.6,0.8,0.2,2.1,0.5c1.7,0.4,4.6,3.5,6.3,4.6l0.1,0
		l1.9,0.9c0.2,0.1,0.3,0.4,0.3,0.6c-0.4,1.5-0.7,1.5,0.2,2.7c0.2,0.2,0.5,0.3,0.7,0.1c1.3-0.9,1-2.1,0.8-2.9
		C149.2,213.8,149.7,213.9,150,214.8L150,214.8z"/>
	<path class="st11" d="M143.1,191.5c0.9-0.1,4.3-0.3,4.8,0.2c0.2,0.2,0.3,0.3,0.5,0.4c0.4,0.4,0.8,0.7,1.1,1.3
		c0.1,0.2,0.1,0.5,0.2,0.9c0.1,0.8,0.3,1.7,1.2,2.2c0.2,0.1,0.4,0.2,0.6,0.3c0.7,0.3,1.2,0.5,1.5,1.6c0.1,0.7,0.1,1.2,0.1,1.7
		c0,0.7,0,1.3,0.3,1.9c0.2,0.5,0.5,0.9,0.6,1.3c0.1,0.4,0.2,0.7,0.2,1c0,0.6,0,2.6,0.3,3.6c0.1,0.2,0.1,0.4,0.1,0.6
		c0.2,0.8,0.3,1.5,1.2,1.7c0.4,0.1,1,0.2,1.5,0.5c0.6,0.3,1.2,0.6,1.9,1.1c1.4,1,2,2.3,2,2.3l0.3,0.6c-0.1,0.2-0.3,0.5-0.5,0.8
		c-0.7,1.3-2.1,3.7-3.6,4.6l-0.7,0.4c-1.6,1-2.2,1.4-2.9,1.2c-0.7-0.2-1.6-0.4-2.1-0.5c0.1-0.7,0.3-2.2,0.7-2.9
		c0.4-0.7-0.1-1.3-0.7-2c-0.4-0.5-0.9-1-1.1-1.7c-0.4-1.5-1.3-1.5-1.9-1.4c0-0.6-0.7-1,0.1-1.1c1-0.2,1.5-0.1,2.9-0.7
		c0.1-0.1,0.2-0.2,0.3-0.3c0.9-3.3-1.9-7.4-4.1-9.5c-2.1-2.1-2.5-0.9-3.1-4.1c-0.6-3-0.8-1.9-2.3-4.3c0-0.1-0.1-0.2-0.1-0.3v-0.1
		C142.6,192.4,142.9,191.9,143.1,191.5L143.1,191.5L143.1,191.5z"/>
	<path class="st11" d="M161.2,214L161.2,214L161.2,214z"/>
	<path class="st12" d="M164.7,175.8c4,3.4,1.9,3.6,2.4,7.2c0.9,5.5-1.3,3.4,4.1,9.8c1.2,1.5,0.6,1.9,0.8,3.9
		c1,10.2-0.9,6.6-1.3,11.4c0,0,0,0.1,0,0.1l0,0.1l-0.8,1c-0.3,0.2-1.7,1.2-1.5,2.6c0.1,0.4,0,0.9-0.2,1.3c-0.3,0.6-0.7,1.1-0.9,1.3
		l-0.1,0.1c-0.4,0.3-1.3,1.1-1.9,0.7c-0.5-0.3-1.4-0.6-2.2-0.8c-0.4-0.1-0.8-0.1-1-0.1l-0.3-0.6v0c0,0-0.7-1.4-2.2-2.5
		c-0.7-0.5-1.4-0.9-2.1-1.2c-0.6-0.3-1.2-0.4-1.7-0.5c-0.5-0.1-0.6-0.6-0.7-1.2c0-0.2-0.1-0.4-0.1-0.6c-0.3-0.9-0.3-2.8-0.3-3.4
		c0-0.4-0.1-0.8-0.3-1.2c-0.2-0.4-0.4-0.9-0.7-1.4c-0.2-0.4-0.2-0.9-0.2-1.5c0-0.5,0-1.1-0.1-1.9c-0.3-1.4-1-1.7-1.9-2.1
		c-0.2-0.1-0.4-0.2-0.6-0.3c-0.6-0.3-0.7-1-0.8-1.7c-0.1-0.4-0.1-0.7-0.2-1c-0.3-0.7-0.7-1.1-1.2-1.6c-0.1-0.1-0.3-0.3-0.5-0.4
		c-0.6-0.6-3.7-0.5-5-0.4l0.1-0.2c0.1-0.4,0.4-1,0.6-1.6c0.2-0.4,0.4-0.8,0.5-1.1c0.1-0.2,0.8-0.5,1.4-0.8c0.6-0.3,1.2-0.6,1.4-0.8
		c0.2-0.3,0.3-0.7,0.2-1.3c0-0.5-0.2-1.1-0.4-1.8c-0.2-0.5,0.1-0.7,0.3-0.8c0.1,0,0.2-0.1,0.3-0.1c0.2-0.1,0.3-0.1,0.5-0.2
		c0.2-0.2,0.4-0.5,0.6-1c0.1-0.5,0.2-1,0.3-1.5l0.2-3.8c0.3-0.1,0.6-0.2,0.8-0.3c0.1-0.1,0.2-0.1,0.2-0.1c0,0.1,0.1,0.2,0.1,0.3
		c0.2,0.6,0.4,1.3,1.5,1.3c0.5,0,0.8,0,1,0.1c0.2,0.1,0.5,0.3,0.7,0.6c0.4,0.5,1.1,1.2,2,1.6c0.6,0.3,1.3,0.4,1.9,0.1
		c0.4-0.2,0.7-0.3,1-0.4c0.8-0.3,1.2-0.4,1.6-1.1c0.1-0.1,0.2-0.3,0.4-0.6c0.5-0.5,1.1-1.2,1.5-2.3
		C162.6,174.6,163.1,174.4,164.7,175.8L164.7,175.8z"/>
	<path class="st11" d="M142.6,241c0.2,0.2,0.3,0.4,0.3,0.5l-0.3,0.2l-0.4,0.2l-0.3,0.2c-1.4,0.7-4.8,2.6-4.9,3.8
		c-0.1,1,1,1.8,1.8,2.4c0.2,0.2,0.5,0.3,0.6,0.5c0.5,0.5,0.4,2.2,0.2,3.3v0l0,0.5c0,0.4-0.2,0.8-0.6,1h0c-0.4,0.3-0.9,0.5-1.7,0.7
		c-1.3,0.3-2.6-0.4-3.4-0.8c-0.1-0.1-0.2-0.1-0.4-0.2c-0.4-0.2-0.8-0.3-1.3-0.4c-0.5-0.1-0.9-0.1-1.3,0c-0.2,0-0.6-0.2-1-0.6
		c-0.7-0.5-1.4-1.2-1.6-1.5c-0.4-0.6-1.8-0.1-3.2,0.4c-0.7,0.2-1.3,0.5-1.7,0.5c-0.9,0.2-1.9-0.3-2.7-0.6l-0.2-0.1
		c-0.2-0.5-0.9-2.5-0.9-2.9c0-0.4-0.3-0.7-0.7-1c-0.4-0.3-0.9-0.5-1.3-0.5c-0.2,0-0.6-0.1-0.9-0.2l-0.1,0c0.1-1.2,0.7-6.5,0.8-8.2
		c0.1-1.2,0.7-1.4,1.2-1.6c0.2-0.1,0.4-0.1,0.6-0.2l0.1-0.1c0.3-0.3,0.4-0.8,0.3-1.4c-0.1-0.5-0.4-1.1-0.7-1.6
		c-0.1-0.2-0.2-0.3-0.3-0.5c-0.5-0.6-0.3-1.1,0-1.6c0.1-0.2,0.2-0.4,0.3-0.6c0.1-0.4,1.4-1.4,2.3-2.2c0.6-0.5,1.1-0.9,1.2-1.1
		c0.1-0.2,0.1-0.8,0.1-1.5c0-0.7-0.1-1.4-0.2-1.8c-0.1-0.4-0.6-1.1-1-1.6l0-0.1c0.5-0.4,1.8-1.4,2.4-1.5c0.7-0.1,3.4-0.1,4,0
		c0.4,0.4,2,1.8,2.9,0.5c0.4-0.6,0.9-1.2,1.3-1.5c0.3-0.2,0.5-0.4,0.6-0.2l0,0.1c0.5,0.8,1.1,1.8,2.8,2.7l0,0l0,0.4
		c0.1,1.3,0.3,4.5,1.4,5.4c0.7,0.5,1,2,1.3,3.1c0.1,0.5,0.2,0.9,0.3,1.1c0.1,0.2,0.1,0.4,0.2,0.6c0.1,0.5,0.2,0.8,1.1,1.5l0.4,0.3
		c0.7,0.5,1.1,0.8,0.8,1.4c-0.2,0.3-0.3,0.5-0.4,0.8c-0.4,0.6-0.7,1.1-0.6,1.9c0.1,0.5,0.1,0.8,0.3,1c0.2,0.2,0.4,0.3,0.9,0.5
		c0.3,0.1,0.7,0.2,1,0.3C142.1,240.7,142.4,240.8,142.6,241L142.6,241z"/>
	<path class="st11" d="M155.1,229.8c-0.4,0.3-0.5,0.7-0.2,1.1c0.2,0.3,0.8,0.5,1.4,0.8c0.9,0.4,2.1,1,2.4,1.6
		c0.3,0.5,0.5,0.9,0.6,1.4c0.1,0.5,0.2,1,0.3,1.9c0.2,1.4,0.1,3.9,0.1,4.9l0,0.5c0,0.1,0,0.2,0,0.4c-0.1,0.7-0.3,1.9,0.3,2.4
		c0.1,0.1,0.2,0.2,0.4,0.4c0.6,0.6,1.6,1.6,1.6,2.3c0,0.5,0,1.1-0.1,1.7c-0.1,0.5-0.1,0.9-0.3,1.1c-0.2,0.3-0.5,0.7-0.7,1
		c-0.2,0.4-0.4,0.7-0.4,0.9l0,0.1c-0.2-0.1-0.3-0.1-0.5-0.2c-0.5-0.1-0.9-0.2-1.3,0c-0.7,0.3-0.8,1.2-0.9,2c0,0.4-0.1,0.8-0.2,1
		c-0.1,0.3-0.2,0.4-0.4,0.4c-0.2,0-0.6,0-1.3-0.2c-1.5-0.3-2.1,0.2-2.7,0.7l-0.2,0.1c-0.4,0.3-1,0.3-1.5,0.2c-0.1,0-0.2,0-0.3,0
		c-0.1,0-0.6-1.2-1-2.2c-0.3-0.8-0.6-1.4-0.8-1.6c-0.2-0.2-0.1-1.8,0-2.9c0-0.4,0-0.7,0-0.9c0-0.4-0.1-1.1-0.3-1.6
		c-0.2-0.5-0.4-0.9-0.8-1.1c-0.3-0.2-0.4-1-0.4-1.6c0-0.3,0-0.6-0.1-0.8c-0.1-0.4-0.3-0.9-0.6-1.3c-0.3-0.4-0.6-0.8-1-1.1
		c-0.7-0.6-1.7-0.2-2.6,0.2c-0.1-0.2-0.2-0.4-0.4-0.7c-0.3-0.3-0.6-0.5-0.9-0.7c-0.3-0.2-0.7-0.3-1.1-0.4c-0.3-0.1-0.4-0.1-0.5-0.2
		c-0.1-0.1-0.1-0.3-0.2-0.7c-0.1-0.5,0.2-0.9,0.5-1.4c0.1-0.2,0.3-0.5,0.5-0.8c0.6-1.2,0-1.6-1-2.3l-0.4-0.3c-0.7-0.5-0.7-0.7-0.8-1
		c0-0.2-0.1-0.4-0.2-0.7c-0.1-0.2-0.2-0.6-0.3-1.1c-0.3-1.2-0.7-2.8-1.6-3.5c-0.8-0.6-1-3.6-1.1-4.9l0-0.4l0,0l0,0
		c0,0,0.1,0.1,0.1,0.1c0.5-0.1,1.5,0.1,2.3,0.2c0.7,0.1,1.3,0.2,1.6,0.2c0.6,0,1.2-0.5,1.7-1.1c0.5-0.5,0.9-1.1,1.1-1.5
		c0.2-0.4,1.7-0.2,2.9-0.1c0.4,0,0.7,0.1,1,0.1c0.5,0,0.8,0.5,1.1,1c0.3,0.4,0.6,0.9,1,1.1c0.8,0.4,2.2-0.2,2.6-0.4
		c0.3,0.1,1.4,0.3,2.2,0.5c0.8,0.2,1.4,0,2.4-0.7c0.4,1,1.5,3.6,1.4,4.6c-0.1,0.5-0.2,1.1-0.4,1.6c-0.3,0.6-0.5,1.1-0.7,1.2
		c0,0-0.2,0.1-0.3,0.2C155.7,229.4,155.4,229.6,155.1,229.8L155.1,229.8z"/>
	<path class="st11" d="M157,255.5L157,255.5L157,255.5z"/>
	<path class="st11" d="M167.9,219.7c0,0.7,0.1,2.7,0.1,2.7l0,0.2l0.2,0.1c0,0,1.4,0.6,3.3,0.3c1.2-0.1,2.8-0.1,3.7-0.1
		c0.2,0,0.4,0,0.5,0.1c0.1,0.1,0.2,0.2,0.4,0.3c0.2,0.1,0.4,0.3,0.4,0.5c0.1,0.2,0.1,0.7,0.2,1.2c0.1,0.7,0.2,1.5,0.3,1.7
		c0,0.1,0.1,0.4,0.3,0.7c0.2,0.7,0.5,1.6,0.9,1.7c0.1,0,0.4,0,0.8,0c1,0,2.7,0.1,2.8,0.2c0.1,0.2,0.3,0.5,0.5,0.9
		c0.1,0.3,0.3,0.7,0.3,0.9c0.1,0.5,0.4,1.6,0.4,1.6l0,0.1l0.1,0.1c0,0,0.6,0.5,1.2,1.9l0.3,1.6c0,0,0,0.1,0,0.1v0.3c0,0,0,0.1,0,0.1
		c-0.5,1.8-1.3,3.7-2,5.5c-1.6,3.8-0.7,3.3-0.1,4.3c0.1,0.2,0.1,0.3,0,0.5c-1.1,1.8-1.6,1.6-2.6,3c-2.5,3.4,0,3.1-7.3,3.1
		c-1.7-0.5-3.3-0.6-4.8-0.6c-1.8,0.1-3.2,0.4-4.1,0.6c-1.6,0.4-2.1-0.2-2.3-0.4l0,0c0-0.1-0.2-0.1-0.3-0.2c0-0.1,0-0.2,0-0.3
		c0-0.1,0.2-0.4,0.3-0.7c0.2-0.3,0.4-0.7,0.6-0.9c0.3-0.3,0.4-0.9,0.4-1.5c0.1-0.6,0.1-1.2,0.1-1.8c0-1-1.1-2.1-1.8-2.8
		c-0.1-0.1-0.3-0.3-0.3-0.3c-0.3-0.3-0.2-1.3-0.1-1.9c0-0.2,0.1-0.3,0.1-0.5c0-0.1,0-0.2,0-0.4c0-1.1,0.1-3.6-0.1-5.1
		c-0.1-0.9-0.2-1.4-0.4-1.9c-0.1-0.5-0.3-0.9-0.6-1.5c-0.4-0.8-1.7-1.4-2.7-1.9c-0.6-0.3-1-0.5-1.2-0.7c0,0,0-0.1,0.1-0.2
		c0.2-0.2,0.5-0.3,0.7-0.5c0.2-0.1,0.3-0.2,0.4-0.2c0.2-0.2,0.6-0.7,0.9-1.5c0.2-0.5,0.4-1.2,0.5-1.8c0.1-1.2-1.1-4.2-1.4-5.1
		l0.4-0.3l0.7-0.4c1.7-1.1,3.1-3.5,3.9-4.9c0.2-0.4,0.4-0.7,0.5-0.8l0,0c0.1,0,0.5,0,0.9,0.1c0.7,0.2,1.6,0.5,2,0.7
		c0.1,0,0.1,0.1,0.2,0.1c0.3,0.5,1.3,2.3,1.8,2.7c0.1,0.1,0.2,0.2,0.3,0.2C167.6,219,167.9,219.2,167.9,219.7L167.9,219.7z"/>
	<path class="st11" d="M161.3,252.9L161.3,252.9L161.3,252.9z"/>
	<path class="st11" d="M161.4,252.9L161.4,252.9L161.4,252.9z"/>
	<path class="st11" d="M191.8,196.4c0.3,1.6,0.5,2.6,0.4,3.2c0,0.6-0.2,0.9-0.4,1.3l-0.1,0.1c-0.7,0.9-1.4,1.9-0.4,3.9
		c0.4,0.8,1.1,1.6,1.8,2.3c0.8,0.9,1.5,1.6,1.3,2.2c-0.1,0.4-0.3,0.8-0.5,1.3c-0.4,1-0.8,1.9-0.7,2.7c0.1,0.6,0.2,1.6,0.2,2.4
		c0,0.6,0,1.1,0,1.3c0,0.1-0.2-0.1-0.6-0.1c-1-0.1-2.5-0.1-3.2,1.2c-0.5,1.1-0.5,2.2-0.5,3.2c0,0.6,0,1.1-0.1,1.4v0
		c-0.1,0.3-0.9,0.7-1.7,1.1c-1.2,0.7-2.6,1.4-2.6,2.2c0,0.4,0.1,0.8,0.2,1.1c0.1,0.6,0.2,1.2,0,1.7c-0.2,0.5-1.4,1-1.9,1.2l0-0.1
		c-0.2-0.4-0.4-0.8-0.5-1c-0.3-0.4-2.2-0.4-3.3-0.5c-0.4,0-0.7,0-0.7,0c0,0-0.2-0.7-0.4-1.2c-0.1-0.4-0.2-0.7-0.3-0.9
		c-0.1-0.1-0.1-0.8-0.2-1.4c-0.1-0.5-0.1-1.1-0.2-1.3c-0.1-0.4-0.5-0.7-0.7-0.8c0,0-0.2,0.3-0.1,0.1c0,0,0-0.1,0-0.1
		c0-0.2-0.2-0.4-0.5-0.4c-0.2,0-0.4-0.1-0.6-0.1c-1-0.1-2.6-0.1-3.9,0.1c-1.4,0.2-2.4-0.1-2.8-0.2c0-0.5-0.1-1.9-0.1-2.5
		c0-0.8-0.4-1.1-0.8-1.4c-0.1-0.1-0.2-0.1-0.3-0.2c-0.3-0.2-1-1.5-1.4-2.2c0.7-0.1,1.3-0.7,1.6-0.9l0.1-0.1c0.3-0.2,0.8-0.8,1.1-1.5
		c0.2-0.5,0.3-1.1,0.2-1.6c-0.2-1.1,1.2-1.9,1.2-1.9l0.1,0l0-0.1l0.5-0.6l0.5-0.3c0.1-0.1,0.3-0.1,0.4-0.1c0.8,0.2,1.4,0.4,2.3,0.4
		c1.7-0.1,1.1-0.4,2.3-0.6c1.2-0.2,2.8,0.8,4.3,1c0.1,0,0.3,0,0.4-0.1c1.6-1.2,2.9-2.3,2.9-4.3c0.1-3.8-1.1-3.4-1.8-5
		c-0.1-0.2,0-0.4,0.1-0.5c1.4-1.6,0.4,1.2,2.8-3.5c2.1-4.2-0.8-6.9,5.5-4.7c0.2,0.1,0.3,0.2,0.3,0.5c0.1,2.2-0.8,0.6,0.5,2.5
		c0,0,0,0,0,0.1l0.3,0.6C191.6,195.4,191.7,195.9,191.8,196.4L191.8,196.4z"/>
	<path class="st11" d="M191.7,201.1L191.7,201.1L191.7,201.1z"/>
	<path class="st11" d="M191.8,201L191.8,201L191.8,201z"/>
	<path class="st11" d="M216.4,177.2c0.2,0.2,1.5,1.7,3.5,2.3c0.6,0.2,1.6,0.4,2.6,0.6c2.7,0.6,6.1,1.5,6.5,1.8
		c0.3,0.2,0.5,0.4,0.6,0.6c0.1,0.2,0.2,0.5,0.2,0.9c0,0.3,0,0.5-0.1,0.7h0c-0.2,0.7-0.3,1.1,1,1.5c0.3,0.1,0.7,0.2,1,0.2
		c1.2,0.3,2.6,0.5,2.7,0.9c0.1,0.3,0,1.3,0,2.3c-0.1,0.9-0.1,1.7-0.1,2.3c0,0.3,0,0.7,0,1.1v0c0,0.5,0,1.1,0,1.6
		c0,0.8-0.1,1.4-0.2,1.7c-0.1,0.4-0.1,0.7,0,1c0,0.3,0.1,0.5-0.3,0.6c-0.6,0.1-2.2,0.1-3.6-0.1c-1-0.2-1.9-0.5-2.3-0.9
		c-0.6-0.6-1.4-1.4-2-2.1c-0.4-0.5-0.7-1-0.8-1.3l-0.1-0.4c-0.2-0.9-0.5-2-1.1-2.1c-0.3,0-1.3,0-2.2,0.1c-0.7,0.1-1.3,0.1-1.6,0.2
		c-0.6,0.2-0.9,1.1-1.1,1.9c-0.1,0.3-0.2,0.6-0.3,0.8c-0.1,0.2-0.2,0.4-0.3,0.6c-0.4,0.7-0.9,1.5-0.6,2c0.1,0.2,0.3,0.4,0.5,0.8
		c0.5,0.7,1.1,1.7,1.2,2c0,0.1,0.1,0.5,0.1,0.8c0.1,0.8,0.2,1.9,0.6,2.3c0.1,0.2,0.4,0.4,0.6,0.7c0.7,0.7,1.7,1.8,1.7,2.4
		c0,0.6,0.1,2.6,0,4.1c-0.1,0.7-0.1,1.2-0.2,1.2c-0.2,0-0.6,0-1,0c-1.3,0-3.1-0.1-3.2,0.6c-0.1,0.5,0.2,1.2,0.5,1.7
		c0.1,0.2,0.2,0.4,0.2,0.4c0,0.1-0.4,0.7-0.9,1.2c-0.3,0.3-0.6,0.5-0.8,0.5l-0.2,0c-1,0-3.3,0.1-3.8,1.2c-0.3,0.7-0.4,1.7-0.4,2.4
		c0,0.4,0,0.7-0.1,0.8c-0.1,0.2-0.5,0.7-0.9,1.3c-0.5,0.6-1,1.2-1.1,1.6c-0.2,0.5-0.1,1.5,0,2c-0.4,0.1-0.7,0.3-0.9,0.3
		c-0.3,0-1.4,0.1-1.8,0.8c-0.1,0.2-0.5,0.3-1.1,0.4c-0.6,0.1-1.3,0.1-2,0.1c-0.4,0-0.8,0.1-1.1,0.1c-0.2,0-0.3,0-0.4,0.1
		c-0.1,0-0.1,0-0.1-0.1c0-0.5,0.1-1,0.3-1.5c0.1-0.3,0.2-0.6,0.2-0.8c0-0.2,0.2-0.5,0.4-0.8c0.2-0.4,0.4-0.7,0.4-1
		c0-0.3-0.1-0.6-0.6-0.6c-0.6,0-1.3,0.3-1.9,0.6c-0.4,0.2-0.7,0.3-0.9,0.3c-0.1,0-0.3,0-0.5,0c-0.3,0-0.7,0-1-0.1
		c-0.2-0.1-0.4-0.2-0.4-0.4l0,0c0-0.6,0.3-1,0.5-1.3c0.1-0.1,0.2-0.3,0.3-0.4c0-0.1,0-0.1,0-0.2c0-0.2-0.2-0.5-0.4-0.6
		c-0.2-0.1-0.5-0.3-0.7-0.4c-0.3-0.1-0.6-0.2-0.8-0.2c-0.2,0-0.8,0-1.3-0.1c-0.3-0.1-0.7-0.1-0.9-0.3c-0.5-0.2-1.3-0.7-1.7-0.9
		c0-0.3,0-0.8,0-1.2c0-0.9-0.1-1.9-0.2-2.5c-0.1-0.6,0.3-1.5,0.7-2.4c0.2-0.5,0.4-0.9,0.5-1.3c0.3-0.9-0.6-1.8-1.5-2.8
		c-0.6-0.7-1.3-1.4-1.7-2.1c-0.8-1.6-0.2-2.5,0.4-3.2v0l0.1-0.1h0c0.4-0.5,0.5-0.9,0.6-1.7c0-0.7-0.1-1.7-0.5-3.4
		c-0.1-0.5-0.2-1.1-0.2-1.6c0-0.1,0.1-0.1,0.2-0.2c2-1.1,2.8,0.5,4.8,1c3.8,1.1,7.4,1.4,10.2-1.2c1.4-1.3,2.1-1.6,3.4-2.5
		c0.2-0.1,0.2-0.3,0.2-0.5c-0.4-1.7-1.4-1.4-1.1-5.1c0.2-2.9,1.3-1.6,1.3-5l0-0.1c-0.3-1.8-2-0.7-2.1-4.9c0-0.1,0-0.3,0.1-0.4
		c0.1-0.1,0.2-0.2,0.4-0.1c2.1,0,1.9,0.3,3.4,1.5c0.2,0.2,0.5,0.1,0.7,0l0.7-0.7c0.1-0.1,0.3-0.2,0.5-0.1l1.2,0.4L216.4,177.2
		L216.4,177.2z"/>
	<path class="st11" d="M199.9,219.8L199.9,219.8L199.9,219.8z"/>
	<path class="st11" d="M218.7,193.5L218.7,193.5L218.7,193.5z"/>
	<path class="st11" d="M237.4,157c0.1,0.9,0.2,1.9,1.7,2.5l0.4,0.2c1.7,0.7,4.7,1.9,4.8,2.5c0,0.3,0.1,0.8,0.1,1.4
		c0.1,1.2,0.2,2.8,0.4,4.1c0.1,0.3,0.1,0.7,0.2,1.1c0.2,1.6,0.5,3,1.5,3.6l0.1,0c1.1,0.5,2.2,1.1,2.7,2.6c0.2,0.6,0.3,1.3,0.3,2
		c0.1,1.2,0.2,2.3,1.1,2.8c0.5,0.3,1.2,0.5,1.9,0.8c1.1,0.4,2.3,0.8,2.5,1.2c0.1,0.3,0.2,0.7,0.3,1.1c0.2,0.7,0.4,1.4,0.8,1.7
		c-0.6,0.8-1.9,2.6-1.9,4.9c0,1.4-0.1,2.3-0.2,2.9c-0.1,0.5-0.2,0.7-0.3,0.8c-0.1,0.1-2.4,0.2-5.2,0.3c-3.3,0.1-7.2,0.2-8,0.1
		c-1.3-0.1-4.7-1.1-5.6-1.3c0-0.3,0-0.6,0-0.9c0-0.5,0-1.4,0.1-2.3c0.1-1.1,0.1-2.1,0-2.5c-0.2-0.7-1.8-1.1-3.2-1.4
		c-0.4-0.1-0.7-0.2-1-0.2c-0.7-0.2-0.6-0.4-0.5-0.7c0.1-0.3,0.1-0.5,0.1-0.9c0-0.6-0.1-0.9-0.3-1.2c-0.2-0.3-0.4-0.5-0.8-0.8
		c-0.5-0.4-4-1.3-6.8-1.9c-1.1-0.3-2-0.5-2.6-0.6c-1.9-0.5-3.2-2.1-3.2-2.1l0,0l0,0l-1.1-1.1c0-0.1-0.1-0.3-0.1-0.5
		c0-0.2,0-0.3,0.1-0.4c1.6-1.9,1.1-2.1,0.8-4.1c0-0.2,0.1-0.4,0.2-0.5c2.2-1.3,2.8-1.2,3.1-4.4c0.2-2.4-0.2-0.9,1.1-2.7
		c2.1-3-0.9-3,4.1-7.3c2.8-2.4,1.4-2.5,2.2-5.1c0-0.2,0.2-0.3,0.3-0.3c3.6-1,5.6,1.3,6.7,2.2c0.1,0.4,0.3,0.7,0.4,0.9
		c0.3,0.4,0.7,0.9,1.2,1.3c0.6,0.6,1.3,1.3,1.4,1.8C237.4,156.6,237.4,156.8,237.4,157L237.4,157z"/>
	<path class="st11" d="M230.4,184.3L230.4,184.3L230.4,184.3z"/>
	<path class="st11" d="M254.2,192.3L254.2,192.3L254.2,192.3z"/>
	<path class="st11" d="M268.6,132.4c0.1,0,0.3,0,0.4,0.1c2.9,2.2,2.3,1.8,5.9,3.6c1.8,0.9,3,3.9,3.5,5.8c0.8,2.8-1.6,3.2-2.4,5.7
		c-0.7,2,1.2,1.5-1.7,6.4c-0.1,0.1-0.2,0.2-0.4,0.2c-2.4,0.4-4.7-0.7-5.5,6.5c-0.5,4.9,2.5,7.8,3.1,9c1.5,3,0.4,8.1,0.7,11.5
		c0.5,4.7-2.2,5.6-3.6,6.4c-0.2,0.1-0.3,0.2-0.3,0.4l0,0c-1.3,0.1-2.6,0.2-2.9,0.2c-0.3,0-0.4-0.3-0.4-0.7h0c0-0.2,0-0.3,0-0.5
		l0-0.1v0c0.1-0.9-0.6-1-2.3-1.1l-0.4,0c-0.9-0.1-1.2-0.4-1.5-0.7c-0.2-0.3-0.5-0.6-1.1-0.9c-0.9-0.4-1.6-0.3-2.2-0.2
		c-0.3,0.1-0.5,0.1-0.7,0.1l0,0c-0.3,0-0.5-0.7-0.7-1.4c-0.1-0.4-0.2-0.9-0.4-1.2c-0.3-0.7-1.6-1.1-2.8-1.5
		c-0.7-0.2-1.4-0.5-1.8-0.7c-0.6-0.3-0.7-1.3-0.8-2.3c-0.1-0.7-0.1-1.5-0.4-2.2c-0.7-1.7-1.9-2.3-3-2.9l-0.1,0
		c-0.8-0.4-1-1.7-1.2-3.1c-0.1-0.4-0.1-0.7-0.2-1.1c-0.2-1.2-0.3-2.9-0.4-4.1c0-0.6-0.1-1.2-0.1-1.5c-0.1-1-3.4-2.3-5.2-3l-0.4-0.2
		c-1.2-0.5-1.2-1.2-1.3-1.9c0-0.2,0-0.4-0.1-0.6c-0.1-0.7-0.8-1.4-1.5-2.1c-0.4-0.4-0.8-0.8-1.1-1.2c-0.1-0.1-0.1-0.2-0.2-0.4
		c0.1-0.1,0.1-0.2,0.1-0.4c0-0.2,0.1-0.3,0.3-0.4c5-2.7,2.5-5,4.7-9.3c3.8-7.3,8.7-5.9,10.6-7.5c0.6-0.5,0.9-1.1,1.7-1.6
		c5.3-3.7,8.2-0.9,10.8-0.1C265.9,134,266.1,132.8,268.6,132.4L268.6,132.4z"/>
	<path class="st11" d="M256.9,184.1L256.9,184.1L256.9,184.1z"/>
	<path class="st11" d="M265.1,187L265.1,187L265.1,187z"/>
</g>
</svg>
